<svg xmlns="http://www.w3.org/2000/svg" xmlns:xlink="http://www.w3.org/1999/xlink" width="284.132" height="227.861" viewBox="0 0 284.132 227.861"><defs><style>.a{fill:#44bbe6;}.b{clip-path:url(#a);}.c{fill:#3ab6e3;}</style><clipPath id="a"><path class="a" d="M9-16H293.132V197.967H59.539L48,211.861,36.473,197.967H9Z" transform="translate(-9 16)"/></clipPath></defs><g class="b"><path class="c" d="M571.2,679.291l7.254-8.229,35.506,37.248-7.316,7.547Zm35.444,33.236,4.1-4.23L578.52,674.489l-4.163,4.726ZM411.383,679.291l7.253-8.229,35.5,37.248-7.315,7.547Zm35.443,33.236,4.1-4.23L418.7,674.489l-4.163,4.726ZM251.564,679.291l7.253-8.229,35.5,37.248-7.315,7.547Zm35.443,33.236,4.1-4.23-32.225-33.808-4.163,4.726ZM91.744,679.291,99,671.062,134.5,708.31l-7.313,7.547Zm35.444,33.236,4.1-4.23L99.061,674.489,94.9,679.215Zm477.749-21.893,18.833-19.326,7.321,7.551-11.429,11.792,3.916,4.181,5.477-5.848,7.776,7.521L623.57,709.964Zm18.65,16.008,9.95-10.1-4.4-4.256-5.556,5.93-7.118-7.6,11.4-11.766-4.1-4.223-15.6,16.006Zm-178.47-16.008,18.833-19.326,7.321,7.551-11.429,11.792,3.916,4.181,5.477-5.848,7.776,7.521-13.263,13.459Zm18.651,16.008,9.949-10.1-4.4-4.256-5.556,5.93-7.118-7.6,11.4-11.766-4.1-4.223-15.6,16.006ZM285.3,690.634l18.835-19.326,7.32,7.551-11.429,11.792,3.916,4.181,5.479-5.848,7.775,7.521-13.263,13.459Zm18.651,16.008,9.949-10.1-4.4-4.256-5.558,5.93-7.118-7.6,11.4-11.766-4.1-4.223-15.6,16.006ZM125.479,690.634l18.835-19.326,7.32,7.551L140.2,690.651l3.916,4.181,5.479-5.848,7.776,7.521-13.264,13.459Zm18.651,16.008,9.95-10.1-4.4-4.256-5.558,5.93-7.118-7.6,11.4-11.766-4.1-4.223-15.6,16.006ZM661.779,691.1l7.215-8.684,13.437,14.087-7.25,7.979Zm3.131-.149L675.1,701.129l4.164-4.583L669.109,685.9Zm-162.95.149,7.215-8.684,13.437,14.087-7.252,7.979Zm13.322,10.025,4.164-4.583L509.29,685.9l-4.2,5.055ZM342.14,691.1l7.215-8.684,13.437,14.087-7.251,7.979Zm13.322,10.025,4.164-4.583L349.47,685.9l-4.2,5.055ZM182.32,691.1l7.215-8.684,13.438,14.087-7.253,7.979Zm13.321,10.025,4.166-4.583L189.651,685.9l-4.2,5.055ZM22.5,691.1l7.216-8.684,13.438,14.087L35.9,704.486Zm13.323,10.025,4.163-4.583L29.831,685.9l-4.2,5.055Zm500.715-22.271,7.321-7.552,11.416,11.776,5.708-5.888,7.323,7.555-13.031,13.443Zm18.737,16,9.8-10.111-4.095-4.224-5.708,5.888-11.416-11.776-4.092,4.222Zm-178.557-16,7.321-7.552,11.416,11.776,5.708-5.888,7.323,7.555-13.03,13.443Zm18.737,16,9.8-10.111-4.094-4.224-5.708,5.888-11.416-11.776-4.093,4.222Zm-178.557-16,7.321-7.552,11.416,11.776,5.708-5.888,7.323,7.555-13.031,13.443Zm18.737,16,9.8-10.111-4.094-4.224-5.708,5.888L224.22,674.637l-4.093,4.222Zm-178.557-16,7.323-7.552,11.416,11.776,5.708-5.888,7.321,7.555L75.817,698.192Zm18.738,16,9.8-10.111-4.093-4.224-5.708,5.888L64.4,674.637l-4.094,4.222Zm557.574-10.1,5.547-5.921-5.365-5.929,7.726-7.475,11.377,11.752,5.3-5.484,7.329,7.34L646.5,698.183Zm13.116,10.1,15.538-15.806L658,675.019l-5.327,5.508-11.43-11.8-4.449,4.3,5.289,5.849L636.6,684.73Zm-172.936-10.1,5.547-5.921-5.365-5.929,7.726-7.475,11.378,11.752,5.3-5.484,7.327,7.34-18.8,19.134Zm13.116,10.1,15.538-15.806-4.04-4.044-5.327,5.508-11.43-11.8-4.45,4.3,5.29,5.849-5.488,5.855Zm-172.936-10.1,5.547-5.921-5.365-5.929,7.726-7.475,11.378,11.752,5.3-5.484,7.328,7.34-18.806,19.134Zm13.116,10.1,15.538-15.806-4.039-4.044-5.328,5.508-11.43-11.8-4.45,4.3,5.29,5.849-5.488,5.855Zm-172.936-10.1,5.547-5.921-5.365-5.929,7.726-7.475,11.377,11.752,5.3-5.484,7.328,7.34-18.806,19.134Zm13.116,10.1,15.538-15.806-4.039-4.044-5.327,5.508-11.432-11.8-4.45,4.3,5.29,5.849-5.488,5.855Zm506.1-16.4,7.321-7.554,13.412,13.835-7.323,7.552Zm3.228,0,10.182,10.5,4.093-4.222-10.182-10.505Zm-163.048,0,7.321-7.554,13.411,13.835-7.323,7.552Zm13.41,10.5,4.093-4.222-10.182-10.505-4.093,4.224Zm-173.23-10.5,7.323-7.554,13.41,13.835-7.324,7.552Zm13.409,10.5,4.094-4.222L360.83,674.244l-4.095,4.224Zm-173.23-10.5,7.324-7.554,13.409,13.835L207.1,692.3Zm13.41,10.5,4.094-4.222L201.01,674.244l-4.094,4.224Zm-173.23-10.5,7.323-7.554L54.6,684.749,47.278,692.3Zm13.412,10.5,4.093-4.222L41.189,674.244,37.1,678.469Zm545.957-9.72,19.118-19.724,7.323,7.555-19.119,19.723Zm7.322,4.224,15.891-16.393-4.094-4.224-15.89,16.393Zm-167.141-4.224,19.118-19.724,7.323,7.555-19.119,19.723Zm7.322,4.224,15.891-16.393-4.094-4.224-15.89,16.393ZM273.6,679.252l19.118-19.724,7.323,7.555-19.118,19.723Zm7.323,4.224,15.89-16.393-4.094-4.224-15.89,16.393Zm-167.142-4.224L132.9,659.528l7.321,7.555L121.1,686.806Zm7.323,4.224,15.89-16.393-4.093-4.224-15.891,16.393Zm536.917-20.617-5.708,5.89-7.321-7.555,30.153-31.109,18.752,19.345-7.343,7.323-11.4-11.567-9.821,10.133,4.106,4.378,5.695-6.072,7.336,7.568-13.031,13.443Zm11.416,8.448,9.8-10.113-4.081-4.209-5.721,6.1-7.31-7.791,13.011-13.422,11.429,11.594,4.073-4.063-15.5-15.986-26.925,27.778,4.093,4.222,5.708-5.888ZM565.077,649.416l7.321-7.553,17.124,17.664,11.416-11.776,7.323,7.555-18.739,19.331Zm3.228,0,21.217,21.891,15.51-16-4.094-4.223-11.416,11.776L572.4,645.193Zm-7.323,19.332-5.708,5.888-7.322-7.554,13.029-13.443,13.031,13.443-7.323,7.554Zm5.708,2.558,4.095-4.224-9.8-10.112-9.8,10.112,4.093,4.224,5.708-5.891ZM498.2,662.859l-5.708,5.89-7.321-7.555,30.153-31.109,18.752,19.345-7.342,7.323-11.4-11.567-9.821,10.133,4.106,4.378,5.693-6.072,7.337,7.568-13.031,13.443Zm11.416,8.448,9.8-10.113-4.08-4.209-5.721,6.1-7.309-7.791,13.011-13.422,11.429,11.594,4.073-4.063-15.5-15.986L488.4,661.194l4.093,4.222,5.708-5.888ZM405.257,649.416l7.321-7.553L429.7,659.528l11.416-11.776,7.323,7.555L429.7,674.637Zm3.228,0L429.7,671.307l15.51-16-4.094-4.223L429.7,662.859l-17.124-17.666Zm-7.323,19.332-5.708,5.888-7.321-7.554,13.029-13.443,13.031,13.443-7.323,7.554Zm5.708,2.558,4.094-4.224-9.8-10.112-9.8,10.112,4.093,4.224,5.708-5.891Zm-68.493-8.448-5.708,5.89-7.321-7.555L355.5,630.086l18.752,19.345-7.343,7.323-11.4-11.567-9.821,10.133,4.106,4.378,5.693-6.072,7.337,7.568-13.031,13.443Zm11.416,8.448,9.8-10.113-4.08-4.209-5.721,6.1-7.309-7.791,13.011-13.422,11.429,11.594L371,649.4l-15.5-15.986-26.925,27.778,4.093,4.222,5.708-5.888ZM245.438,649.416l7.321-7.553,17.124,17.664L281.3,647.751l7.323,7.555-18.739,19.331Zm3.228,0,21.217,21.891,15.51-16-4.094-4.223-11.416,11.776-17.124-17.666Zm-7.323,19.332-5.708,5.888-7.321-7.554,13.029-13.443,13.031,13.443-7.323,7.554Zm5.708,2.558,4.094-4.224-9.8-10.112-9.8,10.112,4.093,4.224,5.708-5.891Zm-68.495-8.448-5.705,5.89-7.324-7.555,30.153-31.109,18.753,19.345-7.342,7.323-11.4-11.567-9.821,10.133,4.1,4.378,5.695-6.072L203,661.194l-13.031,13.443Zm11.416,8.448,9.8-10.113-4.079-4.209-5.724,6.1-7.308-7.791,13.011-13.422L207.1,653.464l4.073-4.063-15.5-15.986-26.923,27.778,4.094,4.222,5.705-5.888ZM85.618,649.416l7.323-7.553,17.124,17.664,11.416-11.776,7.321,7.555-18.737,19.331Zm3.228,0,21.218,21.891,15.509-16-4.093-4.223-11.416,11.776L92.941,645.193Zm-7.321,19.332-5.708,5.888-7.323-7.554L81.525,653.64l13.029,13.443-7.321,7.554Zm5.708,2.558,4.093-4.224-9.8-10.112-9.8,10.112,4.094,4.224,5.708-5.891Zm-68.495-8.448-5.708,5.89-7.323-7.555,30.154-31.109L54.614,649.43l-7.342,7.323-11.4-11.567L26.048,655.32l4.106,4.378,5.695-6.072,7.335,7.568L30.154,674.637Zm11.416,8.448,9.8-10.113-4.08-4.209-5.721,6.1-7.31-7.791L35.856,641.87l11.429,11.594,4.072-4.063L35.862,633.416,8.938,661.194l4.093,4.222,5.708-5.888ZM525.5,666.69l12.648-13.05,7.324,7.554-12.651,13.05Zm3.228,0,4.093,4.224,9.421-9.72-4.094-4.223Zm-163.048,0,12.648-13.05,7.323,7.554L373,674.244Zm3.228,0L373,670.914l9.421-9.72-4.094-4.223Zm-163.048,0,12.648-13.05,7.323,7.554-12.65,13.05Zm3.228,0,4.093,4.224,9.421-9.72-4.094-4.223Zm-163.048,0,12.65-13.05,7.321,7.554-12.65,13.05Zm3.228,0,4.093,4.224,9.421-9.72-4.093-4.223Zm550.052-29.05,7.321-7.555,22.832,23.554,11.416-11.776,7.323,7.553-18.738,19.332Zm3.228,0,26.925,27.776,15.51-16-4.095-4.223-11.416,11.777-22.832-23.555Zm-163.048,0,7.321-7.555,22.832,23.554,11.416-11.776,7.323,7.553-18.739,19.332Zm3.228,0,26.925,27.776,15.51-16-4.094-4.223-11.416,11.777-22.832-23.555Zm-163.048,0,7.321-7.555,22.832,23.554,11.416-11.776,7.323,7.553-18.738,19.332Zm3.228,0,26.925,27.776,15.51-16-4.094-4.223-11.416,11.777-22.832-23.555Zm-163.048,0,7.323-7.555L150.02,653.64l11.416-11.776,7.321,7.553L150.02,668.749Zm3.228,0,26.926,27.776,15.507-16-4.092-4.223L150.02,656.971l-22.832-23.555Zm419.151,11.776,18.737-19.331,7.323,7.555-18.739,19.331Zm3.23,0,4.092,4.223,15.51-16-4.095-4.224Zm-163.049,0,18.737-19.331,7.323,7.555-18.738,19.331Zm3.228,0,4.093,4.223,15.51-16-4.094-4.224Zm-163.048,0,18.737-19.331,7.323,7.555-18.738,19.331Zm3.228,0,4.093,4.223,15.51-16-4.094-4.224Zm-163.048,0,18.738-19.331,7.321,7.555L70.109,656.971Zm3.228,0,4.094,4.223,15.509-16-4.093-4.224ZM582.2,643.528l7.321-7.555,7.323,7.555-7.323,7.554Zm3.228,0,4.093,4.223,4.094-4.223-4.094-4.225Zm-163.048,0,7.321-7.555,7.323,7.555-7.323,7.554Zm3.228,0,4.093,4.223,4.095-4.223L429.7,639.3Zm-163.048,0,7.321-7.555,7.323,7.555-7.323,7.554Zm3.228,0,4.093,4.223,4.094-4.223-4.094-4.225Zm-163.048,0,7.323-7.555,7.321,7.555-7.321,7.554Zm3.228,0,4.094,4.223,4.093-4.223-4.093-4.225Zm534.923-10.113-11.416,11.778-7.321-7.553,11.416-11.779-4.095-4.222-11.416,11.776-7.321-7.555,18.737-19.331,30.154,31.11-7.323,7.553Zm11.416,8.448,4.094-4.223-26.926-27.778-15.509,16,4.093,4.224,11.416-11.778,7.323,7.553L625.384,637.64l4.093,4.223,11.416-11.778Zm-171.235-8.448-11.416,11.778-7.321-7.553,11.416-11.779-4.094-4.222-11.416,11.776-7.321-7.555,18.737-19.331,30.154,31.11-7.323,7.553Zm11.416,8.448,4.094-4.223-26.926-27.778-15.509,16,4.093,4.224,11.416-11.778,7.323,7.553L465.565,637.64l4.093,4.223,11.416-11.778Zm-171.235-8.448-11.416,11.778-7.322-7.553,11.416-11.779-4.094-4.222-11.416,11.776-7.321-7.555,18.737-19.331,30.154,31.11-7.323,7.553Zm11.416,8.448,4.093-4.223-26.924-27.778-15.509,16,4.093,4.224,11.416-11.778,7.323,7.553L305.745,637.64l4.093,4.223,11.416-11.778Zm-171.234-8.448L150.02,645.193,142.7,637.64l11.414-11.779-4.092-4.222L138.6,633.416l-7.323-7.555L150.02,606.53l30.153,31.11-7.321,7.553Zm11.416,8.448,4.092-4.223L150.02,609.862l-15.51,16,4.094,4.224,11.416-11.778,7.321,7.553L145.925,637.64l4.094,4.223,11.416-11.778Zm346.562-16,13.029-13.443,7.324,7.555-5.708,5.888,11.035,11.386-7.323,7.555Zm3.23,0,15.128,15.609,4.094-4.223-11.036-11.386,5.708-5.888-4.094-4.223Zm-163.049,0,13.029-13.443,7.323,7.555-5.707,5.888,11.035,11.386-7.321,7.555Zm3.23,0,15.129,15.609,4.092-4.223L371.01,625.861l5.708-5.888-4.094-4.223Zm-163.049,0L212.8,612.418l7.323,7.555-5.708,5.888,11.036,11.386-7.323,7.555Zm3.228,0,15.129,15.609,4.093-4.223L211.19,625.861l5.708-5.888L212.8,615.75Zm-163.048,0,13.031-13.443,7.321,7.555L54.6,625.861l11.035,11.386L58.313,644.8Zm3.228,0,15.129,15.609,4.093-4.223L51.371,625.861l5.708-5.888-4.093-4.223Zm521.893,0,7.321-7.553,13.031,13.443-7.323,7.553Zm3.228,0,9.8,10.113,4.095-4.223-9.8-10.111Zm-163.048,0,7.321-7.553,13.031,13.443-7.323,7.553Zm3.228,0,9.8,10.113,4.095-4.223-9.8-10.111Zm-163.048,0,7.321-7.553,13.031,13.443-7.323,7.553Zm3.228,0,9.8,10.113,4.094-4.223-9.8-10.111Zm-163.048,0,7.323-7.553,13.029,13.443L98.649,639.3Zm3.228,0,9.8,10.113,4.093-4.223-9.8-10.111Zm567.556,0,24.064-24.826,7.323,7.554-24.065,24.826Zm3.228,0,4.093,4.224,20.837-21.5-4.094-4.224Zm-83.139-11.776,7.321-7.555,11.416,11.778,22.831-23.554,7.323,7.553L595.23,633.416Zm3.228,0,15.509,16,26.926-27.778-4.094-4.223L595.23,621.639l-11.416-11.778Zm-37.476,11.776,5.708-5.888-5.708-5.888,7.322-7.555,13.03,13.443-13.03,13.443Zm3.23-11.776,5.707,5.888-5.707,5.888,4.092,4.224,9.8-10.112-9.8-10.111Zm-48.891,11.776,24.064-24.826,7.323,7.554L503.9,633.416Zm7.321,4.224,20.837-21.5-4.094-4.224-20.836,21.5Zm-87.232-16,7.321-7.555,11.416,11.778,22.832-23.554,7.323,7.553L435.41,633.416Zm3.228,0,15.509,16,26.926-27.778-4.094-4.223L435.41,621.639l-11.416-11.778Zm-37.476,11.776,5.708-5.888-5.708-5.888,7.321-7.555,13.031,13.443-13.031,13.443Zm3.228-11.776,5.708,5.888-5.708,5.888,4.093,4.224,9.8-10.112-9.8-10.111Zm-48.891,11.776,24.067-24.826,7.321,7.554-24.065,24.826Zm7.323,4.224,20.837-21.5-4.093-4.224-20.837,21.5Zm-87.232-16,7.321-7.555,11.416,11.778,22.832-23.554,7.323,7.553-30.154,31.109Zm3.228,0,15.509,16,26.926-27.778-4.094-4.223-22.832,23.555-11.416-11.778Zm-37.476,11.776,5.708-5.888-5.708-5.888,7.321-7.555,13.031,13.443-13.031,13.443Zm3.228-11.776,5.708,5.888-5.708,5.888,4.093,4.224,9.8-10.112-9.8-10.111Zm-48.891,11.776,24.067-24.826,7.321,7.554-24.067,24.826Zm7.321,4.224,20.837-21.5-4.092-4.224-20.837,21.5Zm-87.23-16,7.323-7.555,11.416,11.778L138.6,594.754l7.321,7.553-30.153,31.109Zm3.228,0,15.51,16L142.7,602.307l-4.093-4.223-22.832,23.555-11.416-11.778ZM62.787,625.861l5.708-5.888-5.708-5.888,7.323-7.555,13.029,13.443L70.109,633.416Zm3.228-11.776,5.708,5.888-5.708,5.888,4.094,4.224,9.8-10.112-9.8-10.111ZM17.124,625.861l24.065-24.826,7.323,7.554L24.446,633.416Zm7.323,4.224,20.836-21.5-4.093-4.224-20.837,21.5Zm603.417-33.667,7.321-7.555,24.446,25.221-7.323,7.554Zm3.228,0,21.217,21.889,4.094-4.223-21.218-21.89Zm-163.048,0,7.322-7.555,24.446,25.221-7.323,7.554Zm3.228,0,21.217,21.889,4.094-4.223-21.218-21.89Zm-163.048,0,7.321-7.555,24.446,25.221-7.323,7.554Zm3.228,0,21.217,21.889,4.093-4.223-21.217-21.89Zm-163.048,0,7.323-7.555,24.445,25.221-7.321,7.554Zm3.228,0,21.218,21.889,4.092-4.223-21.215-21.89ZM559.369,608.2l24.445-25.22,18.739,19.331-7.323,7.555-11.416-11.778L566.69,615.75Zm3.228,0,4.093,4.222,17.124-17.664L595.23,606.53l4.094-4.223-15.51-16Zm-163.048,0,24.445-25.22,18.738,19.331-7.323,7.555-11.416-11.778L406.871,615.75Zm3.228,0,4.093,4.222,17.124-17.664L435.41,606.53l4.095-4.223-15.51-16Zm-163.048,0,24.445-25.22,18.738,19.331-7.323,7.555-11.416-11.778L247.051,615.75Zm3.228,0,4.093,4.222,17.124-17.664,11.416,11.776,4.094-4.223-15.51-16Zm-163.048,0,24.446-25.22,18.737,19.331-7.321,7.555-11.416-11.778L87.233,615.75Zm3.228,0,4.094,4.222,17.124-17.664,11.416,11.776,4.093-4.223-15.509-16Zm567.547-11.789,18.728-18.891,7.383,7.11-5.75,5.735,5.695,6.07-13.017,13.429Zm3.247.02,9.792,10.1,9.814-10.125-5.721-6.1,5.664-5.649-4.031-3.882Zm-123.1,5.879,18.737-19.331,13.03,13.443-7.323,7.555-5.708-5.889-11.416,11.778Zm3.23,0,4.092,4.223,11.416-11.776,5.708,5.888,4.094-4.223-9.8-10.113Zm-43.193-5.9,18.728-18.891,7.383,7.11-5.75,5.735,5.695,6.07L503.9,609.862ZM503.9,606.53l9.814-10.125-5.721-6.1,5.666-5.649-4.032-3.882-15.519,15.654ZM371.01,602.307l18.737-19.331,13.031,13.443-7.323,7.555-5.708-5.889-11.416,11.778Zm3.229,0,4.092,4.223,11.416-11.776,5.708,5.888,4.094-4.223-9.8-10.113Zm-43.194-5.9,18.729-18.891,7.383,7.11-5.75,5.735,5.695,6.07-13.017,13.429Zm13.04,10.122,9.814-10.125-5.721-6.1,5.666-5.649-4.033-3.882-15.518,15.654ZM211.19,602.307l18.737-19.331,13.031,13.443-7.323,7.555-5.708-5.889-11.416,11.778Zm3.228,0,4.093,4.223,11.416-11.776,5.708,5.888,4.094-4.223-9.8-10.113Zm-43.193-5.9,18.729-18.891,7.383,7.11-5.75,5.735,5.695,6.07-13.019,13.429Zm13.038,10.122,9.815-10.125-5.721-6.1,5.666-5.649-4.033-3.882-15.518,15.654ZM51.371,602.307l18.738-19.331,13.029,13.443-7.321,7.555-5.708-5.889L58.694,609.862Zm3.228,0,4.094,4.223,11.416-11.776,5.708,5.888,4.093-4.223-9.8-10.113Zm-43.193-5.9,18.729-18.891,7.383,7.11-5.75,5.735,5.695,6.07L24.446,609.862Zm13.04,10.122,9.814-10.125-5.721-6.1,5.666-5.649-4.032-3.882L14.655,596.428Zm574.878-16,7.321-7.554,7.323,7.554-7.323,7.553Zm3.228,0,4.093,4.223,4.094-4.223-4.094-4.224Zm-83.139,0L538.151,571.2l7.324,7.553-18.738,19.332Zm3.23,0,4.093,4.223,15.509-16-4.094-4.222Zm-83.139,0,7.321-7.554,7.323,7.554-7.323,7.553Zm3.228,0,4.093,4.223,4.094-4.223-4.094-4.224Zm-83.139,0L378.331,571.2l7.323,7.553-18.738,19.332Zm3.23,0,4.092,4.223,15.51-16-4.094-4.222Zm-83.139,0,7.321-7.554,7.323,7.554-7.323,7.553Zm3.228,0,4.093,4.223,4.094-4.223-4.094-4.224Zm-83.139,0L218.512,571.2l7.323,7.553L207.1,598.084Zm3.228,0,4.093,4.223,15.51-16-4.094-4.222Zm-83.137,0,7.323-7.554,7.321,7.554-7.321,7.553Zm3.228,0,4.094,4.223,4.093-4.223-4.093-4.224Zm-83.139,0L58.694,571.2l7.321,7.553L47.278,598.084Zm3.228,0,4.094,4.223,15.509-16-4.093-4.222Zm596.1-5.889,24.445-25.22,7.322,7.554L646.6,592.195Zm7.322,4.223,21.218-21.889-4.094-4.223-21.217,21.889Zm-62.787-37.89L566.69,568.642l-7.322-7.555,24.445-25.221,22.832,23.554,11.8-12.169,13.031,13.443-7.322,7.554-5.708-5.89-4.474,4.616,9.8,10.113,17.124-17.667,7.323,7.554-24.446,25.219Zm39.955,37.89,21.218-21.889-4.095-4.223-17.124,17.666L610.74,566.975l7.7-7.947,5.708,5.889,4.094-4.223-9.8-10.113-11.8,12.17L583.814,539.2,562.6,561.087l4.093,4.222,17.124-17.664Zm-81.9-22.282,7.321-7.554,17.5,18.06L572.4,571.2l7.323,7.553L566.69,592.195Zm3.228,0,21.6,22.282,9.8-10.112L572.4,574.53l-5.708,5.888-17.5-18.059ZM479.46,584.641l24.445-25.22,7.323,7.554-24.446,25.219Zm7.321,4.223L508,566.975l-4.093-4.223-21.217,21.889Zm-62.787-37.89-17.124,17.667-7.322-7.555,24.445-25.221,22.831,23.554,11.8-12.169,13.03,13.443-7.323,7.554-5.708-5.89-4.474,4.616,9.8,10.113,17.124-17.667,7.323,7.554L463.95,592.195Zm39.955,37.89,21.218-21.889-4.094-4.223L463.95,580.418l-13.029-13.443,7.7-7.947,5.708,5.889,4.093-4.223-9.8-10.113-11.8,12.17L423.995,539.2l-21.217,21.89,4.093,4.222,17.124-17.664Zm-81.9-22.282,7.321-7.554,17.5,18.06,5.708-5.889,7.323,7.553-13.03,13.443Zm3.23,0,21.6,22.282,9.8-10.112-4.094-4.222-5.708,5.888-17.5-18.059ZM319.64,584.641l24.445-25.22,7.323,7.554-24.447,25.219Zm7.321,4.223,21.217-21.889-4.093-4.223-21.217,21.889Zm-62.787-37.89-17.124,17.667-7.321-7.555,24.445-25.221,22.831,23.554,11.8-12.169,13.031,13.443-7.323,7.554-5.708-5.89-4.474,4.616,9.8,10.113,17.124-17.667,7.323,7.554L304.13,592.195Zm39.955,37.89,21.218-21.889-4.094-4.223L304.13,580.418,291.1,566.975l7.7-7.947,5.708,5.889,4.093-4.223-9.8-10.113-11.8,12.17L264.175,539.2l-21.217,21.89,4.093,4.222,17.124-17.664Zm-81.9-22.282,7.323-7.554,17.5,18.06,5.708-5.889,7.323,7.553-13.031,13.443Zm3.23,0,21.6,22.282,9.8-10.112-4.094-4.222-5.708,5.888-17.5-18.059Zm-65.635,18.059,24.445-25.22,7.324,7.554-24.445,25.219Zm7.324,4.223,21.215-21.889-4.094-4.223-21.215,21.889Zm-62.787-37.89L87.233,568.642l-7.323-7.555,24.446-25.221,22.832,23.554,11.794-12.169,13.032,13.443-7.324,7.554-5.708-5.89-4.473,4.616,9.8,10.113,17.124-17.667,7.321,7.554-24.445,25.219Zm39.955,37.89,21.215-21.889-4.092-4.223-17.124,17.666-13.031-13.443,7.7-7.947,5.708,5.889,4.094-4.223-9.8-10.113-11.794,12.17L104.357,539.2l-21.218,21.89,4.094,4.222,17.124-17.664ZM62.406,566.583l7.323-7.554,17.5,18.06,5.708-5.889,7.321,7.553L87.233,592.195Zm3.228,0,21.6,22.282,9.8-10.112-4.093-4.222-5.708,5.888-17.5-18.059ZM0,584.641l24.446-25.22,7.321,7.554L7.323,592.195Zm3.23,0,4.093,4.223,21.217-21.889-4.093-4.223Zm573.263-17.666,7.321-7.554,18.739,19.331-7.323,7.554Zm3.228,0,15.509,16,4.094-4.224-15.51-16Zm-163.048,0,7.321-7.554,18.738,19.331-7.323,7.554Zm3.228,0,15.509,16,4.095-4.224-15.51-16Zm-163.048,0,7.321-7.554,18.738,19.331-7.323,7.554Zm3.228,0,15.509,16,4.094-4.224-15.51-16Zm-163.048,0,7.323-7.554,18.737,19.331-7.321,7.554Zm3.228,0,15.51,16,4.093-4.224-15.509-16Zm573.265,5.888,24.445-25.219,7.323,7.555-24.446,25.219Zm3.228,0,4.093,4.224L702.065,555.2l-4.093-4.225Zm-163.049,0,24.445-25.219,7.324,7.555-24.446,25.219Zm7.323,4.224L542.245,555.2l-4.094-4.225-21.215,21.889Zm-167.142-4.224,24.445-25.219,7.323,7.555-24.446,25.219Zm7.321,4.224L382.426,555.2l-4.094-4.225-21.215,21.889Zm-167.141-4.224,24.445-25.219,7.323,7.555-24.446,25.219Zm7.321,4.224L222.606,555.2l-4.094-4.225L197.3,572.864ZM34.247,572.864l24.446-25.219,7.321,7.555L41.57,580.418Zm7.323,4.224L62.787,555.2l-4.093-4.225L37.476,572.864ZM650.7,537.925l7.321-7.553,17.124,17.666,11.416-11.778,7.323,7.555L675.14,563.145Zm3.228,0,21.217,21.889,15.509-16-4.093-4.225L675.14,551.368,658.017,533.7Zm-163.048,0,7.321-7.553,17.124,17.666,11.416-11.778,7.323,7.555-18.739,19.331Zm24.445,21.889,15.509-16-4.093-4.225-11.416,11.778L498.2,533.7l-4.093,4.223ZM331.055,537.925l7.323-7.553L355.5,548.037l11.414-11.778,7.324,7.555L355.5,563.145ZM355.5,559.814l15.509-16-4.094-4.225L355.5,551.368,338.377,533.7l-4.093,4.223ZM171.235,537.925l7.321-7.553,17.124,17.666L207.1,536.26l7.323,7.555L195.68,563.145Zm24.445,21.889,15.51-16L207.1,539.59,195.68,551.368,178.557,533.7l-4.092,4.223ZM11.416,537.925l7.323-7.553,17.124,17.666L47.278,536.26l7.321,7.555L35.862,563.145Zm24.446,21.889,15.509-16-4.093-4.225L35.862,551.368,18.738,533.7l-4.093,4.223ZM640.6,551l-5.39,5.894-7.354-7.587L640.5,536.534l19.147,18.734-7.327,7.684Zm11.7,8.621,4.092-4.291L640.525,539.8l-9.425,9.515,4.061,4.189,5.382-5.884ZM480.779,551l-5.39,5.894-7.354-7.587,12.644-12.767,19.147,18.734-7.327,7.684Zm11.7,8.621,4.09-4.291L480.706,539.8l-9.425,9.515,4.063,4.189,5.381-5.884ZM320.96,551l-5.39,5.894-7.354-7.587,12.646-12.767,19.146,18.734-7.327,7.684Zm11.7,8.621,4.089-4.291L320.885,539.8l-9.423,9.515,4.06,4.189,5.382-5.884ZM161.14,551l-5.39,5.894-7.356-7.587,12.647-12.767,19.146,18.734-7.327,7.684Zm11.7,8.621,4.089-4.291L161.067,539.8l-9.424,9.515,4.06,4.189,5.382-5.884Zm357.99-27.973,7.321-7.554,17.124,17.667,5.708-5.89,7.323,7.555-13.031,13.443Zm3.23,0,21.216,21.889,9.8-10.111-4.095-4.224-5.708,5.89-17.124-17.666Zm-163.049,0,7.321-7.554,17.124,17.667,5.708-5.89,7.323,7.555-13.03,13.443Zm3.229,0,21.216,21.889,9.8-10.111-4.094-4.224-5.708,5.89-17.124-17.666Zm-163.049,0,7.321-7.554,17.124,17.667,5.708-5.89,7.323,7.555-13.031,13.443Zm3.228,0,21.217,21.889,9.8-10.111-4.094-4.224-5.708,5.89-17.124-17.666Zm-163.048,0,7.323-7.554,17.124,17.667,5.708-5.89,7.321,7.555L75.817,556.864Zm3.228,0,21.218,21.889,9.8-10.111L81.525,539.2l-5.708,5.89L58.694,527.421Zm516.6-17.235,7.254-8.23,35.506,37.25-7.316,7.546Zm35.444,33.236,4.1-4.23L578.52,509.606l-4.163,4.726ZM411.383,514.409l7.253-8.23,35.5,37.25-7.315,7.546Zm35.443,33.236,4.1-4.23L418.7,509.606l-4.163,4.726ZM251.564,514.409l7.253-8.23,35.5,37.25-7.315,7.546Zm35.443,33.236,4.1-4.23-32.225-33.809-4.163,4.726ZM91.744,514.409,99,506.179l35.506,37.25-7.313,7.546Zm35.444,33.236,4.1-4.23L99.061,509.606,94.9,514.331ZM604.937,525.75l18.833-19.324,7.321,7.552-11.429,11.791,3.916,4.18,5.477-5.846,7.776,7.52L623.57,545.081Zm18.65,16.01,9.95-10.1-4.4-4.257-5.556,5.93-7.118-7.6,11.4-11.763-4.1-4.226-15.6,16.007Zm-178.47-16.01,18.833-19.324,7.321,7.552-11.429,11.791,3.916,4.18,5.477-5.846,7.776,7.52-13.263,13.458Zm18.651,16.01,9.949-10.1-4.4-4.257-5.556,5.93-7.118-7.6,11.4-11.763-4.1-4.226-15.6,16.007ZM285.3,525.75l18.835-19.324,7.32,7.552-11.429,11.791,3.916,4.18,5.479-5.846,7.775,7.52-13.263,13.458Zm18.651,16.01,9.949-10.1-4.4-4.257-5.558,5.93-7.118-7.6,11.4-11.763-4.1-4.226-15.6,16.007ZM125.479,525.75l18.835-19.324,7.32,7.552L140.2,525.769l3.916,4.18L149.6,524.1l7.776,7.52-13.264,13.458Zm18.651,16.01,9.95-10.1-4.4-4.257-5.558,5.93-7.118-7.6,11.4-11.763-4.1-4.226-15.6,16.007Zm517.649-15.537,7.215-8.685,13.437,14.085-7.25,7.98ZM675.1,536.246l4.164-4.583-10.156-10.645-4.2,5.055ZM501.959,526.223l7.215-8.685,13.437,14.085-7.252,7.98Zm13.322,10.023,4.164-4.583L509.29,521.018l-4.2,5.055ZM342.14,526.223l7.215-8.685,13.437,14.085-7.251,7.98Zm13.322,10.023,4.164-4.583L349.47,521.018l-4.2,5.055ZM182.32,526.223l7.215-8.685,13.438,14.085-7.253,7.98Zm13.321,10.023,4.166-4.583-10.156-10.645-4.2,5.055ZM22.5,526.223l7.216-8.685,13.438,14.085L35.9,539.6Zm13.323,10.023,4.163-4.583L29.831,521.018l-4.2,5.055Zm529.254-4.6,7.321-7.554,7.323,7.554L572.4,539.2Zm3.228,0,4.093,4.223,4.095-4.223-4.095-4.223Zm-163.048,0,7.321-7.554,7.323,7.554-7.323,7.553Zm3.228,0,4.093,4.223,4.094-4.223-4.094-4.223Zm-163.048,0,7.321-7.554,7.323,7.554-7.323,7.553Zm3.228,0,4.093,4.223,4.094-4.223-4.094-4.223Zm-163.048,0,7.323-7.554,7.321,7.554L92.941,539.2Zm3.228,0,4.094,4.223,4.093-4.223-4.093-4.223Zm447.691-17.666,7.321-7.555L555.275,518.2l5.708-5.889,7.323,7.555-13.031,13.443Zm18.737,16,9.8-10.113-4.095-4.223-5.708,5.89-11.416-11.779-4.092,4.224Zm-178.557-16,7.321-7.555L395.455,518.2l5.708-5.889,7.323,7.555-13.03,13.443Zm18.737,16,9.8-10.113-4.094-4.223-5.708,5.89-11.416-11.779-4.093,4.224Zm-178.557-16,7.321-7.555L235.636,518.2l5.708-5.889,7.323,7.555-13.031,13.443Zm18.737,16,9.8-10.113-4.094-4.223-5.708,5.89L224.22,509.754l-4.093,4.224Zm-178.557-16,7.323-7.555L75.817,518.2l5.708-5.889,7.321,7.555L75.817,533.309Zm18.738,16,9.8-10.113-4.093-4.223-5.708,5.89L64.4,509.754l-4.094,4.224Zm557.574-10.095,5.547-5.921-5.365-5.929,7.726-7.473,11.377,11.749,5.3-5.483,7.329,7.341L646.5,533.3Zm13.116,10.1,15.538-15.808L658,510.135l-5.327,5.51-11.43-11.806-4.449,4.306,5.289,5.846-5.489,5.857Zm-172.936-10.1,5.547-5.921-5.365-5.929,7.726-7.473,11.378,11.749,5.3-5.483,7.327,7.341-18.8,19.131Zm13.116,10.1,15.538-15.808-4.04-4.045-5.327,5.51-11.43-11.806-4.45,4.306,5.29,5.846-5.488,5.857Zm-172.936-10.1,5.547-5.921-5.365-5.929,7.726-7.473,11.378,11.749,5.3-5.483,7.328,7.341L326.864,533.3Zm13.116,10.1,15.538-15.808-4.039-4.045-5.328,5.51-11.43-11.806-4.45,4.306,5.29,5.846-5.488,5.857Zm-172.936-10.1,5.547-5.921-5.365-5.929,7.726-7.473,11.377,11.749,5.3-5.483,7.328,7.341L167.045,533.3Zm13.116,10.1,15.538-15.808-4.039-4.045-5.327,5.51-11.432-11.806-4.45,4.306,5.29,5.846-5.488,5.857Zm506.1-16.4,7.321-7.555,13.412,13.836-7.323,7.554Zm13.41,10.5,4.093-4.223-10.182-10.5-4.093,4.223Zm-173.23-10.5,7.321-7.555,13.411,13.836-7.323,7.554Zm13.41,10.5,4.093-4.223-10.182-10.5-4.093,4.223Zm-173.23-10.5,7.323-7.555,13.41,13.836-7.324,7.554Zm13.409,10.5,4.094-4.223-10.181-10.5-4.095,4.223Zm-173.23-10.5,7.324-7.555,13.409,13.836-7.323,7.554Zm13.41,10.5,4.094-4.223-10.181-10.5-4.094,4.223Zm-173.23-10.5,7.323-7.555L54.6,519.866l-7.321,7.554Zm13.412,10.5,4.093-4.223-10.182-10.5L37.1,513.585Zm545.957-9.719,19.118-19.724,7.323,7.553-19.119,19.725Zm7.322,4.222L616.448,502.2l-4.094-4.223-15.89,16.393Zm-167.141-4.222,19.118-19.724,7.323,7.553-19.119,19.725Zm7.322,4.222L456.628,502.2l-4.094-4.223-15.89,16.393ZM273.6,514.371l19.118-19.724,7.323,7.553-19.118,19.725Zm7.323,4.222,15.89-16.392-4.094-4.223-15.89,16.393Zm-167.142-4.222L132.9,494.647l7.321,7.553L121.1,521.925Zm7.323,4.222,15.89-16.392-4.093-4.223-15.891,16.393Zm536.917-20.615-5.708,5.888-7.321-7.553L675.14,465.2l18.752,19.347-7.343,7.321-11.4-11.567-9.821,10.133,4.106,4.378,5.695-6.07,7.336,7.568-13.031,13.441Zm11.416,8.446,9.8-10.111-4.081-4.211-5.721,6.1-7.31-7.792,13.011-13.422,11.429,11.594,4.073-4.06-15.5-15.986-26.925,27.777,4.093,4.223,5.708-5.888ZM565.077,484.535l7.321-7.555,17.124,17.667,11.416-11.778,7.323,7.553-18.739,19.331Zm3.228,0,21.217,21.889,15.51-16-4.094-4.223-11.416,11.778L572.4,480.311Zm-7.323,19.331-5.708,5.888-7.322-7.553,13.029-13.443L574.013,502.2l-7.323,7.553Zm5.708,2.558,4.095-4.223-9.8-10.113-9.8,10.113,4.093,4.223,5.708-5.888ZM498.2,497.977l-5.708,5.888-7.321-7.553,30.153-31.11,18.752,19.347-7.342,7.321-11.4-11.567-9.821,10.133,4.106,4.378,5.693-6.07,7.337,7.568-13.031,13.441Zm11.416,8.446,9.8-10.111-4.08-4.211-5.721,6.1-7.309-7.792,13.011-13.422,11.429,11.594,4.073-4.06-15.5-15.986L488.4,496.312l4.093,4.223,5.708-5.888ZM405.257,484.535l7.321-7.555L429.7,494.647l11.416-11.778,7.323,7.553L429.7,509.754Zm3.228,0L429.7,506.423l15.51-16-4.094-4.223L429.7,497.977l-17.124-17.666Zm-7.323,19.331-5.708,5.888-7.321-7.553,13.029-13.443L414.193,502.2l-7.323,7.553Zm5.708,2.558,4.094-4.223-9.8-10.113-9.8,10.113,4.093,4.223,5.708-5.888Zm-68.493-8.446-5.708,5.888-7.321-7.553L355.5,465.2l18.752,19.347-7.343,7.321-11.4-11.567-9.821,10.133,4.106,4.378,5.693-6.07,7.337,7.568-13.031,13.441Zm11.416,8.446,9.8-10.111-4.08-4.211-5.721,6.1-7.309-7.792,13.011-13.422,11.429,11.594,4.073-4.06-15.5-15.986-26.925,27.777,4.093,4.223,5.708-5.888ZM245.438,484.535l7.321-7.555,17.124,17.667L281.3,482.869l7.323,7.553-18.739,19.331Zm3.228,0,21.217,21.889,15.51-16L281.3,486.2l-11.416,11.778-17.124-17.666Zm-7.323,19.331-5.708,5.888-7.321-7.553,13.029-13.443L254.374,502.2l-7.323,7.553Zm5.708,2.558,4.094-4.223-9.8-10.113-9.8,10.113,4.093,4.223,5.708-5.888Zm-68.495-8.446-5.705,5.888-7.324-7.553L195.68,465.2l18.753,19.347-7.342,7.321-11.4-11.567-9.821,10.133,4.1,4.378,5.695-6.07L203,496.312l-13.031,13.441Zm11.416,8.446,9.8-10.111L195.7,492.1l-5.724,6.1-7.308-7.792,13.011-13.422L207.1,488.581l4.073-4.06-15.5-15.986-26.923,27.777,4.094,4.223,5.705-5.888ZM85.618,484.535l7.323-7.555,17.124,17.667,11.416-11.778,7.321,7.553-18.737,19.331Zm3.228,0,21.218,21.889,15.509-16L121.48,486.2l-11.416,11.778L92.941,480.311Zm-7.321,19.331-5.708,5.888L68.495,502.2l13.031-13.443L94.555,502.2l-7.321,7.553Zm5.708,2.558,4.093-4.223-9.8-10.113-9.8,10.113,4.094,4.223,5.708-5.888Zm-68.495-8.446-5.708,5.888-7.323-7.553L35.862,465.2l18.752,19.347-7.342,7.321L35.869,480.3l-9.821,10.133,4.106,4.378,5.695-6.07,7.335,7.568L30.154,509.754Zm11.416,8.446,9.8-10.111-4.08-4.211-5.721,6.1-7.31-7.792,13.011-13.422,11.429,11.594,4.072-4.06L35.862,468.535,8.938,496.312l4.093,4.223,5.708-5.888ZM525.5,501.809l12.648-13.051,7.324,7.555-12.651,13.05Zm3.228,0,4.093,4.222,9.421-9.718-4.094-4.225Zm-163.048,0,12.648-13.051,7.323,7.555L373,509.362Zm3.228,0L373,506.031l9.421-9.718-4.094-4.225Zm-163.048,0,12.648-13.051,7.323,7.555-12.65,13.05Zm3.228,0,4.093,4.222,9.421-9.718-4.094-4.225Zm-163.048,0,12.65-13.051,7.321,7.555-12.65,13.05Zm3.228,0,4.093,4.222,9.421-9.718-4.093-4.225Zm550.052-29.052,7.321-7.554,22.832,23.555,11.416-11.778,7.323,7.555-18.738,19.331Zm3.228,0,26.925,27.778,15.51-16-4.095-4.223-11.416,11.776-22.832-23.553Zm-163.048,0,7.321-7.554,22.832,23.555,11.416-11.778,7.323,7.555-18.739,19.331Zm3.228,0,26.925,27.778,15.51-16-4.094-4.223-11.416,11.776-22.832-23.553Zm-163.048,0,7.321-7.554,22.832,23.555,11.416-11.778,7.323,7.555-18.738,19.331Zm3.228,0,26.925,27.778,15.51-16-4.094-4.223-11.416,11.776-22.832-23.553Zm-163.048,0,7.323-7.554,22.832,23.555,11.416-11.778,7.321,7.555L150.02,503.866Zm3.228,0,26.926,27.778,15.507-16-4.092-4.223L150.02,492.088l-22.832-23.553Zm419.151,11.778L560.982,465.2l7.323,7.554-18.739,19.331Zm3.23,0,4.092,4.223,15.51-16-4.095-4.222Zm-163.049,0L401.163,465.2l7.323,7.554-18.738,19.331Zm3.228,0,4.093,4.223,15.51-16-4.094-4.222Zm-163.048,0L241.343,465.2l7.323,7.554-18.738,19.331Zm3.228,0,4.093,4.223,15.51-16-4.094-4.222Zm-163.048,0L81.525,465.2l7.321,7.554L70.109,492.088Zm3.228,0,4.094,4.223,15.509-16-4.093-4.222Zm516.186-5.89,7.321-7.553,7.323,7.553-7.323,7.555Zm3.228,0,4.093,4.225,4.094-4.225-4.094-4.222Zm-163.048,0,7.321-7.553,7.323,7.553L429.7,486.2Zm3.228,0,4.093,4.225,4.095-4.225-4.095-4.222Zm-163.048,0,7.321-7.553,7.323,7.553-7.323,7.555Zm3.228,0,4.093,4.225,4.094-4.225-4.094-4.222Zm-163.048,0,7.323-7.553,7.321,7.553-7.321,7.555Zm3.228,0,4.094,4.225,4.093-4.225-4.093-4.222Zm534.923-10.11-11.416,11.776-7.321-7.555,11.416-11.776-4.095-4.224-11.416,11.779-7.321-7.555,18.737-19.331,30.154,31.107-7.323,7.555Zm11.416,8.445,4.094-4.223L629.477,444.98l-15.509,16,4.093,4.222,11.416-11.776,7.323,7.555-11.416,11.776,4.093,4.223L640.893,465.2Zm-171.235-8.445-11.416,11.776-7.321-7.555,11.416-11.776-4.094-4.224-11.416,11.779-7.321-7.555,18.737-19.331,30.154,31.107-7.323,7.555Zm11.416,8.445,4.094-4.223L469.658,444.98l-15.509,16,4.093,4.222,11.416-11.776,7.323,7.555-11.416,11.776,4.093,4.223L481.073,465.2Zm-171.235-8.445-11.416,11.776-7.322-7.555,11.416-11.776-4.094-4.224-11.416,11.779-7.321-7.555,18.737-19.331,30.154,31.107-7.323,7.555Zm11.416,8.445,4.093-4.223L309.838,444.98l-15.509,16,4.093,4.222,11.416-11.776,7.323,7.555-11.416,11.776,4.093,4.223L321.254,465.2Zm-171.234-8.445L150.02,480.311l-7.323-7.555,11.414-11.776-4.092-4.224L138.6,468.535l-7.323-7.555L150.02,441.65l30.153,31.107-7.321,7.555Zm11.416,8.445,4.092-4.223L150.02,444.98l-15.51,16L138.6,465.2l11.416-11.776,7.321,7.555-11.416,11.776,4.094,4.223L161.436,465.2Zm346.562-16,13.029-13.443,7.324,7.555-5.708,5.888,11.035,11.383-7.323,7.555Zm3.23,0,15.128,15.607,4.094-4.223-11.036-11.383,5.708-5.888-4.094-4.225Zm-163.049,0,13.029-13.443,7.323,7.555-5.707,5.888,11.035,11.383-7.321,7.555Zm3.23,0,15.129,15.607,4.092-4.223L371.01,460.981l5.708-5.888-4.094-4.225Zm-163.049,0L212.8,447.538l7.323,7.555-5.708,5.888,11.036,11.383-7.323,7.555Zm3.228,0,15.129,15.607,4.093-4.223L211.19,460.981l5.708-5.888-4.094-4.225Zm-163.048,0,13.031-13.443,7.321,7.555L54.6,460.981l11.035,11.383-7.321,7.555Zm3.228,0,15.129,15.607,4.093-4.223L51.371,460.981l5.708-5.888-4.093-4.225Zm521.893,0,7.321-7.555,13.031,13.443-7.323,7.555Zm3.228,0,9.8,10.111,4.095-4.223-9.8-10.113Zm-163.048,0,7.321-7.555,13.031,13.443-7.323,7.555Zm3.228,0,9.8,10.111,4.095-4.223-9.8-10.113Zm-163.048,0,7.321-7.555,13.031,13.443-7.323,7.555Zm3.228,0,9.8,10.111,4.094-4.223-9.8-10.113Zm-163.048,0,7.323-7.555,13.029,13.443-7.321,7.555Zm3.228,0,9.8,10.111,4.093-4.223-9.8-10.113Zm567.556,0,24.064-24.829,7.323,7.555-24.065,24.829Zm3.228,0,4.093,4.222,20.837-21.5-4.094-4.223ZM576.493,449.2l7.321-7.552,11.416,11.776,22.831-23.555,7.323,7.555-30.154,31.11Zm3.228,0,15.509,16,26.926-27.777-4.094-4.223L595.23,456.756,583.814,444.98Zm-37.476,11.779,5.708-5.888-5.708-5.891,7.322-7.552,13.03,13.443-13.03,13.443Zm3.23-11.779,5.707,5.891-5.707,5.888,4.092,4.222,9.8-10.11-9.8-10.113Zm-48.891,11.779,24.064-24.829,7.323,7.555L503.9,468.535ZM503.9,465.2l20.837-21.5-4.094-4.223-20.836,21.5Zm-87.232-16,7.321-7.552,11.416,11.776,22.832-23.555,7.323,7.555-30.154,31.11Zm3.228,0,15.509,16,26.926-27.777-4.094-4.223L435.41,456.756,423.995,444.98Zm-37.476,11.779,5.708-5.888-5.708-5.891,7.321-7.552,13.031,13.443-13.031,13.443Zm3.228-11.779,5.708,5.891-5.708,5.888,4.093,4.222,9.8-10.11-9.8-10.113Zm-48.891,11.779,24.067-24.829,7.321,7.555-24.065,24.829Zm7.323,4.222,20.837-21.5-4.093-4.223-20.837,21.5Zm-87.232-16,7.321-7.552,11.416,11.776,22.832-23.555,7.323,7.555-30.154,31.11Zm3.228,0,15.509,16,26.926-27.777-4.094-4.223-22.832,23.554L264.175,444.98Zm-37.476,11.779,5.708-5.888-5.708-5.891,7.321-7.552,13.031,13.443-13.031,13.443Zm3.228-11.779,5.708,5.891-5.708,5.888,4.093,4.222,9.8-10.11-9.8-10.113Zm-48.891,11.779,24.067-24.829,7.321,7.555-24.067,24.829Zm7.321,4.222,20.837-21.5-4.092-4.223-20.837,21.5Zm-87.23-16,7.323-7.552,11.416,11.776L138.6,429.871l7.321,7.555-30.153,31.11Zm3.228,0,15.51,16L142.7,437.425,138.6,433.2l-22.832,23.554L104.357,444.98ZM62.787,460.981l5.708-5.888L62.787,449.2l7.323-7.552,13.029,13.443L70.109,468.535ZM66.015,449.2l5.708,5.891-5.708,5.888,4.094,4.222,9.8-10.11-9.8-10.113ZM17.124,460.981l24.065-24.829,7.323,7.555L24.446,468.535Zm7.323,4.222,20.836-21.5-4.093-4.223-20.837,21.5Zm603.417-33.665,7.321-7.555L659.631,449.2l-7.323,7.555Zm3.228,0,21.217,21.889L656.4,449.2l-21.218-21.888Zm-163.048,0,7.322-7.555L499.812,449.2l-7.323,7.555Zm3.228,0,21.217,21.889,4.094-4.225-21.218-21.888Zm-163.048,0,7.321-7.555L339.992,449.2l-7.323,7.555Zm3.228,0,21.217,21.889,4.093-4.225-21.217-21.888Zm-163.048,0,7.323-7.555L180.173,449.2l-7.321,7.555Zm3.228,0,21.218,21.889,4.092-4.225-21.215-21.888Zm407.735,11.776,24.445-25.219,18.739,19.331-7.323,7.554L583.814,433.2,566.69,450.868Zm3.228,0,4.093,4.224,17.124-17.667L595.23,441.65l4.094-4.224-15.51-16Zm-163.048,0,24.445-25.219,18.738,19.331-7.323,7.554L423.995,433.2l-17.124,17.666Zm3.228,0,4.093,4.224,17.124-17.667L435.41,441.65l4.095-4.224-15.51-16Zm-163.048,0,24.445-25.219,18.738,19.331-7.323,7.554L264.175,433.2l-17.124,17.666Zm3.228,0,4.093,4.224,17.124-17.667,11.416,11.779,4.094-4.224-15.51-16Zm-163.048,0,24.446-25.219,18.737,19.331-7.321,7.554L104.357,433.2,87.233,450.868Zm3.228,0,4.094,4.224,17.124-17.667,11.416,11.779,4.093-4.224-15.509-16Zm567.547-11.786,18.728-18.893,7.383,7.11-5.75,5.734,5.695,6.072L663.725,444.98Zm3.247.018,9.792,10.1,9.814-10.126-5.721-6.1,5.664-5.65-4.031-3.882Zm-123.1,5.88,18.737-19.331,13.03,13.443-7.323,7.553-5.708-5.888L538.151,444.98Zm3.23,0,4.092,4.224,11.416-11.779,5.708,5.888,4.094-4.222-9.8-10.111Zm-43.193-5.9,18.728-18.893,7.383,7.11-5.75,5.734,5.695,6.072L503.9,444.98ZM503.9,441.65l9.814-10.126-5.721-6.1,5.666-5.65-4.032-3.882-15.519,15.653ZM371.01,437.425l18.737-19.331,13.031,13.443-7.323,7.553-5.708-5.888L378.331,444.98Zm3.229,0,4.092,4.224,11.416-11.779,5.708,5.888,4.094-4.222-9.8-10.111Zm-43.194-5.9,18.729-18.893,7.383,7.11-5.75,5.734,5.695,6.072L344.085,444.98Zm13.04,10.122,9.814-10.126-5.721-6.1,5.666-5.65-4.033-3.882-15.518,15.653ZM211.19,437.425l18.737-19.331,13.031,13.443-7.323,7.553-5.708-5.888L218.512,444.98Zm3.228,0,4.093,4.224,11.416-11.779,5.708,5.888,4.094-4.222-9.8-10.111Zm-43.193-5.9,18.729-18.893,7.383,7.11-5.75,5.734,5.695,6.072L184.264,444.98Zm13.038,10.122,9.815-10.126-5.721-6.1,5.666-5.65-4.033-3.882-15.518,15.653ZM51.371,437.425l18.738-19.331,13.029,13.443-7.321,7.553L70.109,433.2,58.694,444.98Zm3.228,0,4.094,4.224,11.416-11.779,5.708,5.888,4.093-4.222-9.8-10.111Zm-43.193-5.9,18.729-18.893,7.383,7.11-5.75,5.734,5.695,6.072L24.446,444.98Zm13.04,10.122,9.814-10.126-5.721-6.1,5.666-5.65-4.032-3.882L14.655,431.545Zm574.878-16,7.321-7.553,7.323,7.553-7.323,7.555Zm3.228,0,4.093,4.223,4.094-4.223-4.094-4.222Zm-83.139,0,18.737-19.331,7.324,7.555L526.737,433.2Zm3.23,0,4.093,4.223,15.509-16-4.094-4.224Zm-83.139,0,7.321-7.553,7.323,7.553-7.323,7.555Zm3.228,0,4.093,4.223,4.094-4.223-4.094-4.222Zm-83.139,0,18.737-19.331,7.323,7.555L366.916,433.2Zm3.23,0,4.092,4.223,15.51-16-4.094-4.224Zm-83.139,0,7.321-7.553,7.323,7.553-7.323,7.555Zm3.228,0,4.093,4.223,4.094-4.223-4.094-4.222Zm-83.139,0,18.737-19.331,7.323,7.555L207.1,433.2Zm3.228,0,4.093,4.223,15.51-16-4.094-4.224Zm-83.137,0,7.323-7.553,7.321,7.553-7.321,7.555Zm3.228,0,4.094,4.223,4.093-4.223-4.093-4.222Zm-83.139,0,18.738-19.331,7.321,7.555L47.278,433.2Zm3.228,0,4.094,4.223,15.509-16-4.093-4.224Zm596.1-5.888,24.445-25.219,7.322,7.552L646.6,427.314Zm7.322,4.223,21.218-21.89-4.094-4.222-21.217,21.889Zm-62.787-37.89L566.69,403.759l-7.322-7.555,24.445-25.219,22.832,23.555,11.8-12.172,13.031,13.443-7.322,7.554-5.708-5.888-4.474,4.615,9.8,10.113,17.124-17.665,7.323,7.552-24.446,25.222Zm39.955,37.89,21.218-21.89-4.095-4.222-17.124,17.664L610.74,402.092l7.7-7.945,5.708,5.888,4.094-4.224-9.8-10.111-11.8,12.17-22.832-23.554L562.6,396.2l4.093,4.224,17.124-17.667Zm-81.9-22.283,7.321-7.552,17.5,18.057,5.708-5.888,7.323,7.555L566.69,427.314Zm3.228,0,21.6,22.283,9.8-10.111-4.095-4.224-5.708,5.888-17.5-18.057Zm-65.634,18.06L503.9,394.54l7.323,7.552-24.446,25.222Zm7.321,4.223L508,402.092,503.9,397.87l-21.217,21.889Zm-62.787-37.89-17.124,17.666-7.322-7.555,24.445-25.219,22.831,23.555,11.8-12.172,13.03,13.443-7.323,7.554-5.708-5.888-4.474,4.615,9.8,10.113,17.124-17.665,7.323,7.552L463.95,427.314Zm39.955,37.89,21.218-21.89-4.094-4.222L463.95,415.535l-13.029-13.443,7.7-7.945,5.708,5.888,4.093-4.224-9.8-10.111-11.8,12.17-22.831-23.554L402.778,396.2l4.093,4.224,17.124-17.667Zm-81.9-22.283,7.321-7.552,17.5,18.057,5.708-5.888,7.323,7.555-13.03,13.443Zm3.23,0,21.6,22.283,9.8-10.111-4.094-4.224-5.708,5.888-17.5-18.057Zm-65.634,18.06,24.445-25.219,7.323,7.552-24.447,25.222Zm7.321,4.223,21.217-21.89-4.093-4.222-21.217,21.889Zm-62.787-37.89-17.124,17.666L239.73,396.2l24.445-25.219,22.831,23.555,11.8-12.172,13.031,13.443-7.323,7.554-5.708-5.888-4.474,4.615,9.8,10.113,17.124-17.665,7.323,7.552L304.13,427.314Zm39.955,37.89,21.218-21.89-4.094-4.222L304.13,415.535,291.1,402.092l7.7-7.945,5.708,5.888,4.093-4.224L298.8,385.7l-11.8,12.17-22.831-23.554L242.958,396.2l4.093,4.224,17.124-17.667Zm-81.9-22.283,7.323-7.552,17.5,18.057,5.708-5.888,7.323,7.555-13.031,13.443Zm3.23,0,21.6,22.283,9.8-10.111-4.094-4.224-5.708,5.888-17.5-18.057Zm-65.635,18.06,24.445-25.219,7.324,7.552-24.445,25.222Zm7.324,4.223,21.215-21.89-4.094-4.222-21.215,21.889Zm-62.787-37.89L87.233,403.759,79.91,396.2l24.446-25.219,22.832,23.555,11.794-12.172,13.032,13.443-7.324,7.554-5.708-5.888-4.473,4.615,9.8,10.113,17.124-17.665,7.321,7.552-24.445,25.222Zm39.955,37.89,21.215-21.89-4.092-4.222-17.124,17.664-13.031-13.443,7.7-7.945,5.708,5.888,4.094-4.224-9.8-10.111-11.794,12.17-22.832-23.554L83.139,396.2l4.094,4.224,17.124-17.667ZM62.406,401.7l7.323-7.552,17.5,18.057,5.708-5.888,7.321,7.555L87.233,427.314Zm3.228,0,21.6,22.283,9.8-10.111-4.093-4.224-5.708,5.888-17.5-18.057ZM0,419.759,24.446,394.54l7.321,7.552L7.323,427.314Zm3.23,0,4.093,4.223,21.217-21.89-4.093-4.222Zm573.263-17.667,7.321-7.552,18.739,19.331-7.323,7.555Zm3.228,0,15.509,16,4.094-4.223-15.51-16Zm-163.048,0,7.321-7.552,18.738,19.331-7.323,7.555Zm3.228,0,15.509,16,4.095-4.223-15.51-16Zm-163.048,0,7.321-7.552,18.738,19.331-7.323,7.555Zm3.228,0,15.509,16,4.094-4.223-15.51-16Zm-163.048,0,7.323-7.552,18.737,19.331-7.321,7.555Zm3.228,0,15.51,16,4.093-4.223-15.509-16Zm573.265,5.891,24.445-25.222,7.323,7.555-24.446,25.219Zm3.228,0,4.093,4.222,21.217-21.889-4.093-4.223Zm-163.049,0,24.445-25.222,7.324,7.555-24.446,25.219Zm7.323,4.222,21.217-21.889-4.094-4.223-21.215,21.89Zm-167.142-4.222,24.445-25.222,7.323,7.555-24.446,25.219Zm7.321,4.222,21.218-21.889-4.094-4.223-21.215,21.89Zm-167.141-4.222,24.445-25.222,7.323,7.555-24.446,25.219Zm7.321,4.222,21.218-21.889-4.094-4.223L197.3,407.983ZM34.247,407.983l24.446-25.222,7.321,7.555L41.57,415.535ZM41.57,412.2l21.217-21.889-4.093-4.223-21.218,21.89ZM650.7,373.043l7.321-7.555,17.124,17.666,11.416-11.776,7.323,7.553L675.14,398.263Zm3.228,0,21.217,21.89,15.509-16-4.093-4.223L675.14,386.486l-17.124-17.667Zm-163.048,0,7.321-7.555,17.124,17.666,11.416-11.776,7.323,7.553-18.739,19.332Zm24.445,21.89,15.509-16-4.093-4.223-11.416,11.778L498.2,368.818l-4.093,4.225Zm-184.266-21.89,7.323-7.555L355.5,383.154l11.414-11.776,7.324,7.553L355.5,398.263Zm24.446,21.89,15.509-16-4.094-4.223L355.5,386.486l-17.124-17.667-4.093,4.225Zm-184.266-21.89,7.321-7.555,17.124,17.666L207.1,371.378l7.323,7.553L195.68,398.263Zm24.445,21.89,15.51-16-4.094-4.223L195.68,386.486l-17.124-17.667-4.092,4.225ZM11.416,373.043l7.323-7.555,17.124,17.666,11.416-11.776,7.321,7.553L35.862,398.263Zm24.446,21.89,15.509-16-4.093-4.223L35.862,386.486,18.738,368.818l-4.093,4.225Zm604.737-8.82-5.39,5.892-7.354-7.587L640.5,371.654l19.147,18.731-7.327,7.684Zm11.7,8.622,4.092-4.291-15.863-15.521-9.425,9.513,4.061,4.191,5.382-5.884Zm-171.517-8.622-5.39,5.892-7.354-7.587,12.644-12.764,19.147,18.731-7.327,7.684Zm11.7,8.622,4.09-4.291-15.862-15.521-9.425,9.513,4.063,4.191,5.381-5.884ZM320.96,386.113l-5.39,5.892-7.354-7.587,12.646-12.764,19.146,18.731-7.327,7.684Zm11.7,8.622,4.089-4.291-15.863-15.521-9.423,9.513,4.06,4.191,5.382-5.884ZM161.14,386.113l-5.39,5.892-7.356-7.587,12.647-12.764,19.146,18.731-7.327,7.684Zm11.7,8.622,4.089-4.291-15.862-15.521-9.424,9.513,4.06,4.191,5.382-5.884Zm357.99-27.973,7.321-7.555,17.124,17.666,5.708-5.888,7.323,7.553-13.031,13.443Zm3.23,0,21.216,21.888,9.8-10.111-4.095-4.222-5.708,5.888-17.124-17.667Zm-163.049,0,7.321-7.555,17.124,17.666,5.708-5.888,7.323,7.553-13.03,13.443Zm3.229,0,21.216,21.888,9.8-10.111-4.094-4.222-5.708,5.888-17.124-17.667Zm-163.049,0,7.321-7.555,17.124,17.666,5.708-5.888,7.323,7.553-13.031,13.443Zm3.228,0,21.217,21.888,9.8-10.111-4.094-4.222-5.708,5.888-17.124-17.667Zm-163.048,0,7.323-7.555,17.124,17.666,5.708-5.888,7.321,7.553L75.817,391.981Zm3.228,0L75.817,388.65l9.8-10.111-4.093-4.222L75.817,380.2,58.694,362.538Zm516.6-17.235,7.254-8.232,35.506,37.251-7.316,7.547Zm35.444,33.234,4.1-4.23L578.52,344.725l-4.163,4.725ZM411.383,349.527l7.253-8.232,35.5,37.251-7.315,7.547Zm35.443,33.234,4.1-4.23L418.7,344.725l-4.163,4.725ZM251.564,349.527l7.253-8.232,35.5,37.251-7.315,7.547Zm35.443,33.234,4.1-4.23-32.225-33.807-4.163,4.725ZM91.744,349.527,99,341.3,134.5,378.546l-7.313,7.547Zm35.444,33.234,4.1-4.23L99.061,344.725,94.9,349.449Zm477.749-21.893,18.833-19.324,7.321,7.55-11.429,11.793,3.916,4.18,5.477-5.847,7.776,7.521L623.57,380.2Zm18.65,16.009,9.95-10.1-4.4-4.256-5.556,5.932-7.118-7.6,11.4-11.764-4.1-4.226-15.6,16.009Zm-178.47-16.009,18.833-19.324,7.321,7.55-11.429,11.793,3.916,4.18,5.477-5.847,7.776,7.521L463.751,380.2Zm18.651,16.009,9.949-10.1-4.4-4.256-5.556,5.932-7.118-7.6,11.4-11.764-4.1-4.226-15.6,16.009ZM285.3,360.868l18.835-19.324,7.32,7.55-11.429,11.793,3.916,4.18,5.479-5.847,7.775,7.521L303.931,380.2Zm18.651,16.009,9.949-10.1-4.4-4.256-5.558,5.932-7.118-7.6,11.4-11.764-4.1-4.226-15.6,16.009ZM125.479,360.868l18.835-19.324,7.32,7.55L140.2,360.887l3.916,4.18,5.479-5.847,7.776,7.521L144.112,380.2Zm18.651,16.009,9.95-10.1-4.4-4.256-5.558,5.932-7.118-7.6,11.4-11.764-4.1-4.226-15.6,16.009ZM661.779,361.34l7.215-8.684L682.43,366.74l-7.25,7.981ZM675.1,371.364l4.164-4.583-10.156-10.647-4.2,5.056ZM501.959,361.34l7.215-8.684L522.61,366.74l-7.252,7.981Zm13.322,10.024,4.164-4.583L509.29,356.134l-4.2,5.056ZM342.14,361.34l7.215-8.684,13.437,14.084-7.251,7.981Zm13.322,10.024,4.164-4.583L349.47,356.134l-4.2,5.056ZM182.32,361.34l7.215-8.684,13.438,14.084-7.253,7.981Zm13.321,10.024,4.166-4.583-10.156-10.647-4.2,5.056ZM22.5,361.34l7.216-8.684L43.153,366.74,35.9,374.722Zm13.323,10.024,4.163-4.583L29.831,356.134l-4.2,5.056Zm529.254-4.6,7.321-7.555,7.323,7.555-7.323,7.554Zm3.228,0,4.093,4.223,4.095-4.223-4.095-4.224Zm-163.048,0,7.321-7.555,7.323,7.555-7.323,7.554Zm3.228,0,4.093,4.223,4.094-4.223-4.094-4.224Zm-163.048,0,7.321-7.555,7.323,7.555-7.323,7.554Zm3.228,0,4.093,4.223,4.094-4.223-4.094-4.224Zm-163.048,0,7.323-7.555,7.321,7.555-7.321,7.554Zm3.228,0,4.094,4.223,4.093-4.223-4.093-4.224Zm447.691-17.667,7.321-7.555,11.416,11.779,5.708-5.888,7.323,7.552-13.031,13.443Zm18.737,16,9.8-10.113-4.095-4.222-5.708,5.888-11.416-11.776-4.092,4.222Zm-178.557-16,7.321-7.555,11.416,11.779,5.708-5.888,7.323,7.552-13.03,13.443Zm18.737,16,9.8-10.113-4.094-4.222-5.708,5.888-11.416-11.776-4.093,4.222Zm-178.557-16,7.321-7.555,11.416,11.779,5.708-5.888,7.323,7.552-13.031,13.443Zm18.737,16,9.8-10.113-4.094-4.222-5.708,5.888L224.22,344.873l-4.093,4.222Zm-178.557-16L64.4,341.54l11.416,11.779,5.708-5.888,7.321,7.552L75.817,368.426Zm18.738,16,9.8-10.113-4.093-4.222-5.708,5.888L64.4,344.873l-4.094,4.222ZM633.391,355l5.547-5.921-5.365-5.93,7.726-7.473,11.377,11.752,5.3-5.484,7.329,7.34L646.5,368.419Zm13.116,10.1L662.045,349.3,658,345.254l-5.327,5.509-11.43-11.8-4.449,4.3,5.289,5.847-5.489,5.857ZM473.571,355l5.547-5.921-5.365-5.93,7.726-7.473,11.378,11.752,5.3-5.484,7.327,7.34-18.8,19.134Zm13.116,10.1L502.225,349.3l-4.04-4.045-5.327,5.509-11.43-11.8-4.45,4.3,5.29,5.847-5.488,5.857ZM313.752,355l5.547-5.921-5.365-5.93,7.726-7.473,11.378,11.752,5.3-5.484,7.328,7.34-18.806,19.134Zm13.116,10.1L342.406,349.3l-4.039-4.045-5.328,5.509-11.43-11.8-4.45,4.3,5.29,5.847-5.488,5.857ZM153.932,355l5.547-5.921-5.365-5.93,7.726-7.473,11.377,11.752,5.3-5.484,7.328,7.34-18.806,19.134Zm13.116,10.1L182.586,349.3l-4.039-4.045-5.327,5.509-11.432-11.8-4.45,4.3,5.29,5.847-5.488,5.857Zm506.1-16.4,7.321-7.552,13.412,13.833-7.323,7.555Zm13.41,10.506,4.093-4.224-10.182-10.5-4.093,4.222ZM513.326,348.7l7.321-7.552,13.411,13.833-7.323,7.555Zm13.41,10.506,4.093-4.224-10.182-10.5-4.093,4.222ZM353.507,348.7l7.323-7.552,13.41,13.833-7.324,7.555Zm13.409,10.506,4.094-4.224-10.181-10.5-4.095,4.222ZM193.686,348.7l7.324-7.552,13.409,13.833-7.323,7.555Zm13.41,10.506,4.094-4.224-10.181-10.5-4.094,4.222ZM33.866,348.7l7.323-7.552L54.6,354.983l-7.321,7.555Zm13.412,10.506,4.093-4.224-10.182-10.5L37.1,348.7Zm545.957-9.72,19.118-19.724,7.323,7.555-19.119,19.724Zm7.322,4.224,15.891-16.394-4.094-4.223-15.89,16.392Zm-167.141-4.224,19.118-19.724,7.323,7.555-19.119,19.724Zm7.322,4.224,15.891-16.394-4.094-4.223-15.89,16.392ZM273.6,349.487l19.118-19.724,7.323,7.555-19.118,19.724Zm7.323,4.224,15.89-16.394-4.094-4.223-15.89,16.392Zm-167.142-4.224L132.9,329.764l7.321,7.555L121.1,357.042Zm7.323,4.224,15.89-16.394L132.9,333.1l-15.891,16.392ZM658.017,333.1l-5.708,5.888-7.321-7.553,30.153-31.109,18.752,19.344-7.343,7.324-11.4-11.567-9.821,10.132,4.106,4.378,5.695-6.07,7.336,7.568-13.031,13.443Zm11.416,8.445,9.8-10.11-4.081-4.21-5.721,6.1-7.31-7.792L675.134,312.1l11.429,11.6,4.073-4.063-15.5-15.986L648.216,331.43l4.093,4.222,5.708-5.888ZM565.077,319.653,572.4,312.1l17.124,17.666,11.416-11.776,7.323,7.553-18.739,19.332Zm3.228,0,21.217,21.887,15.51-16-4.094-4.223L589.522,333.1,572.4,315.428Zm-7.323,19.331-5.708,5.89-7.322-7.555,13.029-13.443,13.031,13.443-7.323,7.555Zm5.708,2.557,4.095-4.222-9.8-10.111-9.8,10.111,4.093,4.222,5.708-5.888ZM498.2,333.1l-5.708,5.888-7.321-7.553,30.153-31.109,18.752,19.344-7.342,7.324-11.4-11.567-9.821,10.132,4.106,4.378,5.693-6.07,7.337,7.568-13.031,13.443Zm11.416,8.445,9.8-10.11-4.08-4.21-5.721,6.1-7.309-7.792L515.314,312.1l11.429,11.6,4.073-4.063-15.5-15.986L488.4,331.43l4.093,4.222,5.708-5.888ZM405.257,319.653l7.321-7.555L429.7,329.764l11.416-11.776,7.323,7.553L429.7,344.873Zm3.228,0L429.7,341.54l15.51-16-4.094-4.223L429.7,333.1l-17.124-17.667Zm-7.323,19.331-5.708,5.89-7.321-7.555,13.029-13.443,13.031,13.443-7.323,7.555Zm5.708,2.557,4.094-4.222-9.8-10.111-9.8,10.111,4.093,4.222,5.708-5.888ZM338.377,333.1l-5.708,5.888-7.321-7.553L355.5,300.322l18.752,19.344-7.343,7.324-11.4-11.567-9.821,10.132,4.106,4.378,5.693-6.07,7.337,7.568-13.031,13.443Zm11.416,8.445,9.8-10.11-4.08-4.21-5.721,6.1-7.309-7.792L355.495,312.1l11.429,11.6L371,319.638l-15.5-15.986L328.577,331.43l4.093,4.222,5.708-5.888ZM245.438,319.653l7.321-7.555,17.124,17.666L281.3,317.988l7.323,7.553-18.739,19.332Zm3.228,0,21.217,21.887,15.51-16-4.094-4.223L269.883,333.1l-17.124-17.667Zm-7.323,19.331-5.708,5.89-7.321-7.555,13.029-13.443,13.031,13.443-7.323,7.555Zm5.708,2.557,4.094-4.222-9.8-10.111-9.8,10.111,4.093,4.222,5.708-5.888ZM178.557,333.1l-5.705,5.888-7.324-7.553,30.153-31.109,18.753,19.344-7.342,7.324-11.4-11.567-9.821,10.132,4.1,4.378,5.695-6.07L203,331.43l-13.031,13.443Zm11.416,8.445,9.8-10.11-4.079-4.21-5.724,6.1-7.308-7.792L195.675,312.1,207.1,323.7l4.073-4.063-15.5-15.986L168.757,331.43l4.094,4.222,5.705-5.888ZM85.618,319.653l7.323-7.555,17.124,17.666,11.416-11.776,7.321,7.553-18.737,19.332Zm3.228,0,21.218,21.887,15.509-16-4.093-4.223L110.065,333.1,92.941,315.428Zm-7.321,19.331-5.708,5.89-7.323-7.555,13.031-13.443,13.029,13.443-7.321,7.555Zm5.708,2.557,4.093-4.222-9.8-10.111-9.8,10.111,4.094,4.222,5.708-5.888ZM18.738,333.1l-5.708,5.888L5.708,331.43l30.154-31.109,18.752,19.344-7.342,7.324-11.4-11.567-9.821,10.132,4.106,4.378,5.695-6.07,7.335,7.568L30.154,344.873Zm11.416,8.445,9.8-10.11-4.08-4.21-5.721,6.1-7.31-7.792L35.856,312.1l11.429,11.6,4.072-4.063L35.862,303.652,8.938,331.43l4.093,4.222,5.708-5.888ZM525.5,336.926l12.648-13.05,7.324,7.555-12.651,13.05Zm3.228,0,4.093,4.224,9.421-9.72-4.094-4.223Zm-163.048,0,12.648-13.05,7.323,7.555L373,344.48Zm3.228,0L373,341.15l9.421-9.72-4.094-4.223Zm-163.048,0,12.648-13.05,7.323,7.555-12.65,13.05Zm3.228,0,4.093,4.224,9.421-9.72-4.094-4.223Zm-163.048,0,12.65-13.05,7.321,7.555-12.65,13.05Zm3.228,0,4.093,4.224,9.421-9.72-4.093-4.223Zm550.052-29.051,7.321-7.553,22.832,23.554L640.893,312.1l7.323,7.555-18.738,19.331Zm3.228,0,26.925,27.777,15.51-16-4.095-4.225-11.416,11.779-22.832-23.555Zm-163.048,0,7.321-7.553,22.832,23.554L481.073,312.1l7.323,7.555-18.739,19.331Zm3.228,0,26.925,27.777,15.51-16-4.094-4.225-11.416,11.779-22.832-23.555Zm-163.048,0,7.321-7.553,22.832,23.554L321.254,312.1l7.323,7.555-18.738,19.331Zm3.228,0,26.925,27.777,15.51-16-4.094-4.225-11.416,11.779-22.832-23.555Zm-163.048,0,7.323-7.553,22.832,23.554L161.436,312.1l7.321,7.555L150.02,338.983Zm3.228,0,26.926,27.777,15.507-16-4.092-4.225L150.02,327.207l-22.832-23.555Zm419.151,11.778,18.737-19.331,7.323,7.553-18.739,19.332Zm3.23,0,4.092,4.223,15.51-16-4.095-4.223Zm-163.049,0,18.737-19.331,7.323,7.553-18.738,19.332Zm3.228,0,4.093,4.223,15.51-16-4.094-4.223Zm-163.048,0,18.737-19.331,7.323,7.553-18.738,19.332Zm3.228,0,4.093,4.223,15.51-16-4.094-4.223Zm-163.048,0,18.738-19.331,7.321,7.553L70.109,327.207Zm3.228,0,4.094,4.223,15.509-16-4.093-4.223ZM582.2,313.764l7.321-7.555,7.323,7.555-7.323,7.553Zm3.228,0,4.093,4.223,4.094-4.223-4.094-4.224Zm-163.048,0,7.321-7.555,7.323,7.555-7.323,7.553Zm3.228,0,4.093,4.223,4.095-4.223L429.7,309.54Zm-163.048,0,7.321-7.555,7.323,7.555-7.323,7.553Zm3.228,0,4.093,4.223,4.094-4.223-4.094-4.224Zm-163.048,0,7.323-7.555,7.321,7.555-7.321,7.553Zm3.228,0,4.094,4.223,4.093-4.223-4.093-4.224Zm534.923-10.113-11.416,11.776-7.321-7.553L633.572,296.1l-4.095-4.223-11.416,11.778L610.74,296.1l18.737-19.331,30.154,31.109-7.323,7.553Zm11.416,8.446,4.094-4.223L629.477,280.1l-15.509,16,4.093,4.225,11.416-11.779L636.8,296.1l-11.416,11.778,4.093,4.223,11.416-11.776Zm-171.235-8.446-11.416,11.776-7.321-7.553L473.752,296.1l-4.094-4.223-11.416,11.778-7.321-7.555,18.737-19.331,30.154,31.109-7.323,7.553Zm11.416,8.446,4.094-4.223L469.658,280.1l-15.509,16,4.093,4.225,11.416-11.779,7.323,7.555-11.416,11.778,4.093,4.223,11.416-11.776Zm-171.235-8.446-11.416,11.776-7.322-7.553L313.933,296.1l-4.094-4.223-11.416,11.778L291.1,296.1l18.737-19.331,30.154,31.109-7.323,7.553ZM332.67,312.1l4.093-4.223L309.838,280.1l-15.509,16,4.093,4.225,11.416-11.779,7.323,7.555-11.416,11.778,4.093,4.223,11.416-11.776Zm-171.234-8.446L150.02,315.428l-7.323-7.553L154.112,296.1l-4.092-4.223L138.6,303.652l-7.323-7.555,18.738-19.331,30.153,31.109-7.321,7.553Zm11.416,8.446,4.092-4.223L150.02,280.1l-15.51,16,4.094,4.225,11.416-11.779,7.321,7.555-11.416,11.778,4.094,4.223,11.416-11.776Zm346.562-16,13.029-13.443,7.324,7.555-5.708,5.888,11.035,11.385-7.323,7.553Zm3.23,0,15.128,15.608,4.094-4.223L530.829,296.1l5.708-5.888-4.094-4.223Zm-163.049,0,13.029-13.443,7.323,7.555L374.24,296.1l11.035,11.385-7.321,7.553Zm3.23,0,15.129,15.608,4.092-4.223L371.01,296.1l5.708-5.888-4.094-4.223Zm-163.049,0L212.8,282.655l7.323,7.555-5.708,5.888,11.036,11.385-7.323,7.553Zm3.228,0,15.129,15.608,4.093-4.223L211.19,296.1l5.708-5.888-4.094-4.223Zm-163.048,0,13.031-13.443,7.321,7.555L54.6,296.1l11.035,11.385-7.321,7.553Zm3.228,0,15.129,15.608,4.093-4.223L51.371,296.1l5.708-5.888-4.093-4.223Zm521.893,0,7.321-7.555,13.031,13.443-7.323,7.555Zm3.228,0,9.8,10.113,4.095-4.225-9.8-10.111Zm-163.048,0,7.321-7.555,13.031,13.443-7.323,7.555Zm3.228,0,9.8,10.113,4.095-4.225-9.8-10.111Zm-163.048,0,7.321-7.555,13.031,13.443-7.323,7.555Zm3.228,0,9.8,10.113,4.094-4.225-9.8-10.111Zm-163.048,0,7.323-7.555,13.029,13.443-7.321,7.555Zm3.228,0,9.8,10.113,4.093-4.225-9.8-10.111Zm567.556,0,24.064-24.826,7.323,7.553-24.065,24.828Zm3.228,0,4.093,4.225,20.837-21.5-4.094-4.223Zm-83.139-11.776,7.321-7.555,11.416,11.776,22.831-23.554,7.323,7.555L595.23,303.652Zm3.228,0,15.509,16,26.926-27.778-4.094-4.224L595.23,291.874,583.814,280.1ZM542.245,296.1l5.708-5.888-5.708-5.888,7.322-7.555,13.03,13.443-13.03,13.443Zm3.23-11.776,5.707,5.888-5.707,5.888,4.092,4.225,9.8-10.113-9.8-10.111ZM496.584,296.1l24.064-24.826,7.323,7.553L503.9,303.652Zm7.321,4.225,20.837-21.5-4.094-4.223-20.836,21.5Zm-87.232-16,7.321-7.555,11.416,11.776,22.832-23.554,7.323,7.555L435.41,303.652Zm3.228,0,15.509,16,26.926-27.778-4.094-4.224L435.41,291.874,423.995,280.1ZM382.426,296.1l5.708-5.888-5.708-5.888,7.321-7.555,13.031,13.443-13.031,13.443Zm3.228-11.776,5.708,5.888-5.708,5.888,4.093,4.225,9.8-10.113-9.8-10.111ZM336.763,296.1l24.067-24.826,7.321,7.553-24.065,24.828Zm7.323,4.225,20.837-21.5L360.83,274.6l-20.837,21.5Zm-87.232-16,7.321-7.555,11.416,11.776,22.832-23.554,7.323,7.555-30.154,31.109Zm3.228,0,15.509,16,26.926-27.778-4.094-4.224-22.832,23.555L264.175,280.1ZM222.606,296.1l5.708-5.888-5.708-5.888,7.321-7.555,13.031,13.443-13.031,13.443Zm3.228-11.776,5.708,5.888-5.708,5.888,4.093,4.225,9.8-10.113-9.8-10.111ZM176.943,296.1l24.067-24.826,7.321,7.553-24.067,24.828Zm7.321,4.225,20.837-21.5L201.01,274.6l-20.837,21.5Zm-87.23-16,7.323-7.555,11.416,11.776L138.6,264.989l7.321,7.555-30.153,31.109Zm3.228,0,15.51,16L142.7,272.543l-4.093-4.224-22.832,23.555L104.357,280.1ZM62.787,296.1l5.708-5.888-5.708-5.888,7.323-7.555,13.029,13.443L70.109,303.652Zm3.228-11.776,5.708,5.888L66.015,296.1l4.094,4.225,9.8-10.113-9.8-10.111ZM17.124,296.1l24.065-24.826,7.323,7.553L24.446,303.652Zm7.323,4.225,20.836-21.5L41.189,274.6,20.352,296.1Zm603.417-33.667,7.321-7.555,24.446,25.221-7.323,7.553Zm3.228,0,21.217,21.888,4.094-4.222-21.218-21.89Zm-163.048,0,7.322-7.555,24.446,25.221-7.323,7.553Zm3.228,0,21.217,21.888,4.094-4.222-21.218-21.89Zm-163.048,0,7.321-7.555,24.446,25.221-7.323,7.553Zm3.228,0,21.217,21.888,4.093-4.222-21.217-21.89Zm-163.048,0,7.323-7.555,24.445,25.221-7.321,7.553Zm3.228,0,21.218,21.888,4.092-4.222-21.215-21.89Zm407.735,11.776,24.445-25.219,18.739,19.331L595.23,280.1l-11.416-11.779L566.69,285.986Zm3.228,0,4.093,4.223,17.124-17.666,11.416,11.778,4.094-4.223-15.51-16Zm-163.048,0,24.445-25.219,18.738,19.331L435.41,280.1l-11.416-11.779-17.124,17.667Zm3.228,0,4.093,4.223,17.124-17.666,11.416,11.778,4.095-4.223-15.51-16Zm-163.048,0,24.445-25.219,18.738,19.331-7.323,7.555-11.416-11.779-17.124,17.667Zm3.228,0,4.093,4.223,17.124-17.666,11.416,11.778,4.094-4.223-15.51-16Zm-163.048,0,24.446-25.219,18.737,19.331-7.321,7.555-11.416-11.779L87.233,285.986Zm3.228,0,4.094,4.223,17.124-17.666,11.416,11.778,4.093-4.223-15.509-16Zm567.547-11.787,18.728-18.892,7.383,7.109-5.75,5.736,5.695,6.07L663.725,280.1Zm3.247.02,9.792,10.1,9.814-10.125-5.721-6.1,5.664-5.649-4.031-3.883Zm-123.1,5.879,18.737-19.331,13.03,13.443-7.323,7.553-5.708-5.89L538.151,280.1Zm3.23,0,4.092,4.223,11.416-11.778,5.708,5.89,4.094-4.223-9.8-10.113Zm-43.193-5.9,18.728-18.892,7.383,7.109-5.75,5.736,5.695,6.07L503.9,280.1ZM503.9,276.766l9.814-10.125-5.721-6.1,5.666-5.649-4.032-3.883-15.519,15.655ZM371.01,272.543l18.737-19.331,13.031,13.443-7.323,7.553-5.708-5.89L378.331,280.1Zm3.229,0,4.092,4.223,11.416-11.778,5.708,5.89,4.094-4.223-9.8-10.113Zm-43.194-5.9,18.729-18.892,7.383,7.109-5.75,5.736,5.695,6.07L344.085,280.1Zm13.04,10.122,9.814-10.125-5.721-6.1,5.666-5.649-4.033-3.883-15.518,15.655ZM211.19,272.543l18.737-19.331,13.031,13.443-7.323,7.553-5.708-5.89L218.512,280.1Zm3.228,0,4.093,4.223,11.416-11.778,5.708,5.89,4.094-4.223-9.8-10.113Zm-43.193-5.9,18.729-18.892,7.383,7.109-5.75,5.736,5.695,6.07L184.264,280.1Zm13.038,10.122,9.815-10.125-5.721-6.1,5.666-5.649-4.033-3.883-15.518,15.655ZM51.371,272.543l18.738-19.331,13.029,13.443-7.321,7.553-5.708-5.89L58.694,280.1Zm3.228,0,4.094,4.223,11.416-11.778,5.708,5.89,4.093-4.223-9.8-10.113Zm-43.193-5.9,18.729-18.892,7.383,7.109-5.75,5.736,5.695,6.07L24.446,280.1Zm13.04,10.122,9.814-10.125-5.721-6.1,5.666-5.649-4.032-3.883L14.655,266.665Zm574.878-16,7.321-7.553,7.323,7.553-7.323,7.553Zm3.228,0,4.093,4.223,4.094-4.223-4.094-4.223Zm-83.139,0,18.737-19.332,7.324,7.555-18.738,19.331Zm3.23,0,4.093,4.223,15.509-16-4.094-4.222Zm-83.139,0,7.321-7.553,7.323,7.553-7.323,7.553Zm3.228,0,4.093,4.223,4.094-4.223-4.094-4.223Zm-83.139,0,18.737-19.332,7.323,7.555-18.738,19.331Zm3.23,0,4.092,4.223,15.51-16-4.094-4.222Zm-83.139,0,7.321-7.553,7.323,7.553-7.323,7.553Zm3.228,0,4.093,4.223,4.094-4.223-4.094-4.223Zm-83.139,0,18.737-19.332,7.323,7.555L207.1,268.319Zm3.228,0,4.093,4.223,15.51-16-4.094-4.222Zm-83.137,0,7.323-7.553,7.321,7.553-7.321,7.553Zm3.228,0,4.094,4.223,4.093-4.223-4.093-4.223Zm-83.139,0,18.738-19.332,7.321,7.555L47.278,268.319Zm3.228,0,4.094,4.223,15.509-16-4.093-4.222Zm596.1-5.89,24.445-25.219,7.322,7.555L646.6,262.431ZM646.6,259.1l21.218-21.889-4.094-4.224-21.217,21.889Zm-62.787-37.89L566.69,238.877l-7.322-7.553,24.445-25.22,22.832,23.554,11.8-12.169,13.031,13.443-7.322,7.553-5.708-5.888-4.474,4.616,9.8,10.111,17.124-17.666,7.323,7.555-24.446,25.219Zm39.955,37.89,21.218-21.889-4.095-4.224-17.124,17.667L610.74,237.212l7.7-7.947,5.708,5.888,4.094-4.222-9.8-10.113-11.8,12.169-22.832-23.554L562.6,231.323l4.093,4.222,17.124-17.664Zm-81.9-22.282,7.321-7.555,17.5,18.059,5.708-5.89,7.323,7.555L566.69,262.431Zm3.228,0,21.6,22.282,9.8-10.113-4.095-4.222-5.708,5.888-17.5-18.059ZM479.46,254.876,503.9,229.657l7.323,7.555-24.446,25.219Zm7.321,4.224L508,237.212l-4.093-4.224-21.217,21.889Zm-62.787-37.89-17.124,17.666-7.322-7.553,24.445-25.22,22.831,23.554,11.8-12.169,13.03,13.443-7.323,7.553-5.708-5.888-4.474,4.616,9.8,10.111,17.124-17.666,7.323,7.555L463.95,262.431ZM463.95,259.1l21.218-21.889-4.094-4.224L463.95,250.654l-13.029-13.443,7.7-7.947,5.708,5.888,4.093-4.222-9.8-10.113-11.8,12.169-22.831-23.554-21.217,21.89,4.093,4.222,17.124-17.664Zm-81.9-22.282,7.321-7.555,17.5,18.059,5.708-5.89,7.323,7.555-13.03,13.443Zm3.23,0,21.6,22.282,9.8-10.113-4.094-4.222-5.708,5.888-17.5-18.059ZM319.64,254.876l24.445-25.219,7.323,7.555-24.447,25.219Zm7.321,4.224,21.217-21.889-4.093-4.224-21.217,21.889Zm-62.787-37.89-17.124,17.666-7.321-7.553,24.445-25.22,22.831,23.554,11.8-12.169,13.031,13.443-7.323,7.553L298.8,232.6l-4.474,4.616,9.8,10.111,17.124-17.666,7.323,7.555L304.13,262.431ZM304.13,259.1l21.218-21.889-4.094-4.224L304.13,250.654,291.1,237.212l7.7-7.947,5.708,5.888,4.093-4.222-9.8-10.113-11.8,12.169-22.831-23.554-21.217,21.89,4.093,4.222,17.124-17.664Zm-81.9-22.282,7.323-7.555,17.5,18.059,5.708-5.89,7.323,7.555-13.031,13.443Zm3.23,0,21.6,22.282,9.8-10.113-4.094-4.222-5.708,5.888-17.5-18.059Zm-65.635,18.057,24.445-25.219,7.324,7.555-24.445,25.219Zm7.324,4.224,21.215-21.889-4.094-4.224-21.215,21.889Zm-62.787-37.89L87.233,238.877l-7.323-7.553,24.446-25.22,22.832,23.554,11.794-12.169,13.032,13.443-7.324,7.553-5.708-5.888-4.473,4.616,9.8,10.111,17.124-17.666,7.321,7.555-24.445,25.219Zm39.955,37.89,21.215-21.889-4.092-4.224-17.124,17.667-13.031-13.443,7.7-7.947,5.708,5.888,4.094-4.222-9.8-10.113-11.794,12.169-22.832-23.554-21.218,21.89,4.094,4.222,17.124-17.664ZM62.406,236.819l7.323-7.555,17.5,18.059,5.708-5.89,7.321,7.555L87.233,262.431Zm3.228,0,21.6,22.282,9.8-10.113-4.093-4.222-5.708,5.888L69.728,232.6ZM0,254.876l24.446-25.219,7.321,7.555L7.323,262.431Zm3.23,0L7.323,259.1l21.217-21.889-4.093-4.224Zm573.263-17.664,7.321-7.555,18.739,19.331-7.323,7.555Zm3.228,0,15.509,16,4.094-4.224-15.51-16Zm-163.048,0,7.321-7.555,18.738,19.331-7.323,7.555Zm3.228,0,15.509,16,4.095-4.224-15.51-16Zm-163.048,0,7.321-7.555,18.738,19.331-7.323,7.555Zm3.228,0,15.509,16,4.094-4.224-15.51-16Zm-163.048,0,7.323-7.555,18.737,19.331-7.321,7.555Zm3.228,0,15.51,16,4.093-4.224-15.509-16ZM673.527,243.1l24.445-25.219,7.323,7.553-24.446,25.22Zm3.228,0,4.093,4.223,21.217-21.889-4.093-4.223Zm-163.049,0,24.445-25.219,7.324,7.553-24.446,25.22Zm7.323,4.223,21.217-21.889-4.094-4.223L516.936,243.1ZM353.886,243.1l24.445-25.219,7.323,7.553-24.446,25.22Zm7.321,4.223,21.218-21.889-4.094-4.223L357.116,243.1ZM194.067,243.1l24.445-25.219,7.323,7.553-24.446,25.22Zm7.321,4.223,21.218-21.889-4.094-4.223L197.3,243.1ZM34.247,243.1l24.446-25.219,7.321,7.553L41.57,250.654Zm7.323,4.223,21.217-21.889-4.093-4.223L37.476,243.1ZM650.7,208.16l7.321-7.553,17.124,17.666,11.416-11.778,7.323,7.554L675.14,233.38Zm3.228,0,21.217,21.89,15.509-16-4.093-4.223L675.14,221.6l-17.124-17.664Zm-163.048,0,7.321-7.553,17.124,17.666,11.416-11.778,7.323,7.554L515.321,233.38Zm24.445,21.89,15.509-16-4.093-4.223L515.321,221.6,498.2,203.938,494.1,208.16ZM331.055,208.16l7.323-7.553L355.5,218.272l11.414-11.778,7.324,7.554L355.5,233.38ZM355.5,230.05l15.509-16-4.094-4.223L355.5,221.6l-17.124-17.664-4.093,4.222ZM171.235,208.16l7.321-7.553,17.124,17.666L207.1,206.495l7.323,7.554L195.68,233.38Zm24.445,21.89,15.51-16-4.094-4.223L195.68,221.6l-17.124-17.664-4.092,4.222ZM11.416,208.16l7.323-7.553,17.124,17.666,11.416-11.778,7.321,7.554L35.862,233.38Zm24.446,21.89,15.509-16-4.093-4.223L35.862,221.6,18.738,203.938l-4.093,4.222ZM640.6,221.23l-5.39,5.895-7.354-7.588L640.5,206.77,659.646,225.5l-7.327,7.684Zm11.7,8.622,4.092-4.29-15.863-15.521-9.425,9.515,4.061,4.189,5.382-5.884ZM480.779,221.23l-5.39,5.895-7.354-7.588,12.644-12.766L499.826,225.5l-7.327,7.684Zm11.7,8.622,4.09-4.29-15.862-15.521-9.425,9.515,4.063,4.189,5.381-5.884ZM320.96,221.23l-5.39,5.895-7.354-7.588,12.646-12.766L340.007,225.5l-7.327,7.684Zm11.7,8.622,4.089-4.29-15.863-15.521-9.423,9.515,4.06,4.189,5.382-5.884ZM161.14,221.23l-5.39,5.895-7.356-7.588,12.647-12.766L180.187,225.5l-7.327,7.684Zm11.7,8.622,4.089-4.29-15.862-15.521-9.424,9.515,4.06,4.189,5.382-5.884Zm357.99-27.973,7.321-7.553,17.124,17.666,5.708-5.888,7.323,7.553L555.275,227.1Zm3.23,0,21.216,21.89,9.8-10.113-4.095-4.223-5.708,5.888-17.124-17.664Zm-163.049,0,7.321-7.553,17.124,17.666,5.708-5.888,7.323,7.553L395.455,227.1Zm3.229,0,21.216,21.89,9.8-10.113-4.094-4.223-5.708,5.888-17.124-17.664Zm-163.049,0,7.321-7.553,17.124,17.666,5.708-5.888,7.323,7.553L235.636,227.1Zm3.228,0,21.217,21.89,9.8-10.113-4.094-4.223-5.708,5.888-17.124-17.664Zm-163.048,0,7.323-7.553,17.124,17.666,5.708-5.888,7.321,7.553L75.817,227.1Zm3.228,0,21.218,21.89,9.8-10.113-4.093-4.223-5.708,5.888L58.694,197.657Zm516.6-17.235,7.254-8.229,35.506,37.248-7.316,7.548Zm35.444,33.237,4.1-4.231L578.52,179.842l-4.163,4.726ZM411.383,184.644l7.253-8.229,35.5,37.248-7.315,7.548Zm35.443,33.237,4.1-4.231L418.7,179.842l-4.163,4.726ZM251.564,184.644l7.253-8.229,35.5,37.248-7.315,7.548Zm35.443,33.237,4.1-4.231-32.225-33.808-4.163,4.726ZM91.744,184.644,99,176.415,134.5,213.663l-7.313,7.548Zm35.444,33.237,4.1-4.231L99.061,179.842,94.9,184.568Zm477.749-21.894,18.833-19.325,7.321,7.553L619.663,196l3.916,4.181,5.477-5.846,7.776,7.521L623.57,215.317ZM623.587,212l9.95-10.095-4.4-4.257-5.556,5.93-7.118-7.6,11.4-11.763-4.1-4.226-15.6,16.006Zm-178.47-16.009,18.833-19.325,7.321,7.553L459.843,196l3.916,4.181,5.477-5.846,7.776,7.521-13.263,13.458ZM463.769,212l9.949-10.095-4.4-4.257-5.556,5.93-7.118-7.6,11.4-11.763-4.1-4.226-15.6,16.006ZM285.3,195.986l18.835-19.325,7.32,7.553L300.024,196l3.916,4.181,5.479-5.846,7.775,7.521-13.263,13.458ZM303.95,212,313.9,201.9l-4.4-4.257-5.558,5.93-7.118-7.6,11.4-11.763-4.1-4.226-15.6,16.006ZM125.479,195.986l18.835-19.325,7.32,7.553L140.2,196l3.916,4.181,5.479-5.846,7.776,7.521-13.264,13.458ZM144.13,212l9.95-10.095-4.4-4.257-5.558,5.93-7.118-7.6,11.4-11.763-4.1-4.226-15.6,16.006Zm517.649-15.536,7.215-8.685L682.43,201.86l-7.25,7.98ZM675.1,206.482l4.164-4.583-10.156-10.645-4.2,5.054ZM501.959,196.459l7.215-8.685L522.61,201.86l-7.252,7.98Zm13.322,10.023,4.164-4.583L509.29,191.254l-4.2,5.054ZM342.14,196.459l7.215-8.685,13.437,14.086-7.251,7.98Zm13.322,10.023,4.164-4.583L349.47,191.254l-4.2,5.054ZM182.32,196.459l7.215-8.685,13.438,14.086-7.253,7.98Zm13.321,10.023,4.166-4.583-10.156-10.645-4.2,5.054ZM22.5,196.459l7.216-8.685L43.153,201.86,35.9,209.84Zm13.323,10.023,4.163-4.583L29.831,191.254l-4.2,5.054Zm529.254-4.6,7.321-7.553,7.323,7.553-7.323,7.555Zm3.228,0L572.4,206.1l4.095-4.225-4.095-4.222Zm-163.048,0,7.321-7.553,7.323,7.553-7.323,7.555Zm3.228,0,4.093,4.225,4.094-4.225-4.094-4.222Zm-163.048,0,7.321-7.553,7.323,7.553-7.323,7.555Zm3.228,0,4.093,4.225,4.094-4.225-4.094-4.222Zm-163.048,0,7.323-7.553,7.321,7.553-7.321,7.555Zm3.228,0,4.094,4.225,4.093-4.225-4.093-4.222Zm447.691-17.664,7.321-7.555,11.416,11.776,5.708-5.888,7.323,7.555-13.031,13.443Zm18.737,16,9.8-10.111-4.095-4.224-5.708,5.889L543.859,179.99l-4.092,4.224Zm-178.557-16,7.321-7.555,11.416,11.776,5.708-5.888,7.323,7.555-13.03,13.443Zm18.737,16,9.8-10.111-4.094-4.224-5.708,5.889L384.039,179.99l-4.093,4.224Zm-178.557-16,7.321-7.555,11.416,11.776,5.708-5.888,7.323,7.555-13.031,13.443Zm18.737,16,9.8-10.111-4.094-4.224-5.708,5.889L224.22,179.99l-4.093,4.224Zm-178.557-16L64.4,176.66l11.416,11.776,5.708-5.888,7.321,7.555L75.817,203.545Zm18.738,16,9.8-10.111-4.093-4.224-5.708,5.889L64.4,179.99l-4.094,4.224ZM633.391,190.12l5.547-5.921-5.365-5.93L641.3,170.8l11.377,11.749,5.3-5.483,7.329,7.34L646.5,203.536Zm13.116,10.1,15.538-15.805L658,180.372l-5.327,5.508-11.43-11.8-4.449,4.3,5.289,5.849-5.489,5.857Zm-172.936-10.1,5.547-5.921-5.365-5.93,7.726-7.472,11.378,11.749,5.3-5.483,7.327,7.34-18.8,19.132Zm13.116,10.1,15.538-15.805-4.04-4.045-5.327,5.508-11.43-11.8-4.45,4.3,5.29,5.849-5.488,5.857Zm-172.936-10.1L319.3,184.2l-5.365-5.93,7.726-7.472,11.378,11.749,5.3-5.483,7.328,7.34-18.806,19.132Zm13.116,10.1,15.538-15.805-4.039-4.045-5.328,5.508-11.43-11.8-4.45,4.3,5.29,5.849-5.488,5.857Zm-172.936-10.1,5.547-5.921-5.365-5.93,7.726-7.472,11.377,11.749,5.3-5.483,7.328,7.34-18.806,19.132Zm13.116,10.1,15.538-15.805-4.039-4.045-5.327,5.508-11.432-11.8-4.45,4.3,5.29,5.849-5.488,5.857Zm506.1-16.4,7.321-7.555L693.879,190.1l-7.323,7.554Zm13.41,10.5,4.093-4.223L680.467,179.6l-4.093,4.224Zm-173.23-10.5,7.321-7.555L534.059,190.1l-7.323,7.554Zm13.41,10.5,4.093-4.223L520.648,179.6l-4.093,4.224Zm-173.23-10.5,7.323-7.555L374.24,190.1l-7.324,7.554Zm13.409,10.5,4.094-4.223L360.83,179.6l-4.095,4.224Zm-173.23-10.5,7.324-7.555L214.419,190.1l-7.323,7.554Zm13.41,10.5,4.094-4.223L201.01,179.6l-4.094,4.224Zm-173.23-10.5,7.323-7.555L54.6,190.1l-7.321,7.554Zm13.412,10.5,4.093-4.223L41.189,179.6,37.1,183.821Zm545.957-9.718,19.118-19.725,7.323,7.553L600.557,192.16Zm7.322,4.222,15.891-16.394-4.094-4.223-15.89,16.395Zm-167.141-4.222,19.118-19.725,7.323,7.553L440.737,192.16Zm7.322,4.222,15.891-16.394-4.094-4.223-15.89,16.395ZM273.6,184.607l19.118-19.725,7.323,7.553L280.919,192.16Zm7.323,4.222,15.89-16.394-4.094-4.223-15.89,16.395Zm-167.142-4.222L132.9,164.882l7.321,7.553L121.1,192.16Zm7.323,4.222,15.89-16.394-4.093-4.223-15.891,16.395Zm536.917-20.617-5.708,5.89-7.321-7.555,30.153-31.109,18.752,19.344-7.343,7.324-11.4-11.567-9.821,10.133,4.106,4.378,5.695-6.072,7.336,7.568L669.432,179.99Zm11.416,8.448,9.8-10.113-4.081-4.209-5.721,6.1-7.31-7.792,13.011-13.422,11.429,11.594,4.073-4.061-15.5-15.987-26.925,27.778,4.093,4.224,5.708-5.889Zm-104.356-21.89,7.321-7.553,17.124,17.666L600.938,153.1l7.323,7.555L589.522,179.99Zm3.228,0,21.217,21.89,15.51-16-4.094-4.223-11.416,11.776L572.4,150.548ZM560.982,174.1l-5.708,5.888-7.322-7.555,13.029-13.443,13.031,13.443-7.323,7.555Zm5.708,2.558,4.095-4.224-9.8-10.111-9.8,10.111,4.093,4.224,5.708-5.888ZM498.2,168.212l-5.708,5.89-7.321-7.555,30.153-31.109,18.752,19.344-7.342,7.324-11.4-11.567-9.821,10.133,4.106,4.378,5.693-6.072,7.337,7.568L509.613,179.99Zm11.416,8.448,9.8-10.113-4.08-4.209-5.721,6.1-7.309-7.792,13.011-13.422,11.429,11.594,4.073-4.061-15.5-15.987L488.4,166.547l4.093,4.224,5.708-5.889Zm-104.355-21.89,7.321-7.553L429.7,164.882,441.118,153.1l7.323,7.555L429.7,179.99Zm3.228,0L429.7,176.66l15.51-16-4.094-4.223L429.7,168.212l-17.124-17.664ZM401.163,174.1l-5.708,5.888-7.321-7.555,13.029-13.443,13.031,13.443-7.323,7.555Zm5.708,2.558,4.094-4.224-9.8-10.111-9.8,10.111,4.093,4.224,5.708-5.888Zm-68.493-8.448-5.708,5.89-7.321-7.555L355.5,135.438l18.752,19.344-7.343,7.324-11.4-11.567-9.821,10.133,4.106,4.378,5.693-6.072,7.337,7.568L349.793,179.99Zm11.416,8.448,9.8-10.113-4.08-4.209-5.721,6.1-7.309-7.792,13.011-13.422,11.429,11.594L371,154.756l-15.5-15.987-26.925,27.778,4.093,4.224,5.708-5.889Zm-104.355-21.89,7.321-7.553,17.124,17.666L281.3,153.1l7.323,7.555L269.883,179.99Zm3.228,0,21.217,21.89,15.51-16-4.094-4.223-11.416,11.776-17.124-17.664ZM241.343,174.1l-5.708,5.888-7.321-7.555,13.029-13.443,13.031,13.443-7.323,7.555Zm5.708,2.558,4.094-4.224-9.8-10.111-9.8,10.111,4.093,4.224,5.708-5.888Zm-68.495-8.448-5.705,5.89-7.324-7.555,30.153-31.109,18.753,19.344-7.342,7.324-11.4-11.567-9.821,10.133,4.1,4.378,5.695-6.072L203,166.547,189.972,179.99Zm11.416,8.448,9.8-10.113-4.079-4.209-5.724,6.1-7.308-7.792,13.011-13.422L207.1,158.817l4.073-4.061-15.5-15.987-26.923,27.778,4.094,4.224,5.705-5.889ZM85.618,154.769l7.323-7.553,17.124,17.666L121.48,153.1l7.321,7.555L110.065,179.99Zm3.228,0,21.218,21.89,15.509-16-4.093-4.223-11.416,11.776L92.941,150.548ZM81.525,174.1l-5.708,5.888-7.323-7.555,13.031-13.443,13.029,13.443-7.321,7.555Zm5.708,2.558,4.093-4.224-9.8-10.111-9.8,10.111,4.094,4.224,5.708-5.888Zm-68.495-8.448-5.708,5.89-7.323-7.555,30.154-31.109,18.752,19.344-7.342,7.324-11.4-11.567-9.821,10.133,4.106,4.378,5.695-6.072,7.335,7.568L30.154,179.99Zm11.416,8.448,9.8-10.113-4.08-4.209-5.721,6.1-7.31-7.792,13.011-13.422,11.429,11.594,4.072-4.061L35.862,138.769,8.938,166.547l4.093,4.224,5.708-5.889ZM525.5,172.042l12.648-13.05,7.324,7.555L532.824,179.6Zm3.228,0,4.093,4.224,9.421-9.72-4.094-4.223Zm-163.048,0,12.648-13.05,7.323,7.555L373,179.6Zm3.228,0L373,176.267l9.421-9.72-4.094-4.223Zm-163.048,0,12.648-13.05,7.323,7.555-12.65,13.05Zm3.228,0,4.093,4.224,9.421-9.72-4.094-4.223Zm-163.048,0,12.65-13.05,7.321,7.555L53.365,179.6Zm3.228,0,4.093,4.224,9.421-9.72-4.093-4.223Zm550.052-29.049,7.321-7.555,22.832,23.554,11.416-11.776,7.323,7.553L629.477,174.1Zm3.228,0,26.925,27.778,15.51-16-4.095-4.222-11.416,11.776-22.832-23.555Zm-163.048,0,7.321-7.555,22.832,23.554,11.416-11.776,7.323,7.553L469.658,174.1Zm3.228,0,26.925,27.778,15.51-16-4.094-4.222-11.416,11.776-22.832-23.555Zm-163.048,0,7.321-7.555,22.832,23.554,11.416-11.776,7.323,7.553L309.838,174.1Zm3.228,0,26.925,27.778,15.51-16-4.094-4.222-11.416,11.776-22.832-23.555Zm-163.048,0,7.323-7.555,22.832,23.554,11.416-11.776,7.321,7.553L150.02,174.1Zm3.228,0,26.926,27.778,15.507-16-4.092-4.222L150.02,162.324l-22.832-23.555Zm419.151,11.776,18.737-19.331,7.323,7.555-18.739,19.331Zm3.23,0,4.092,4.223,15.51-16-4.095-4.224Zm-163.049,0,18.737-19.331,7.323,7.555-18.738,19.331Zm3.228,0,4.093,4.223,15.51-16-4.094-4.224Zm-163.048,0,18.737-19.331,7.323,7.555-18.738,19.331Zm3.228,0,4.093,4.223,15.51-16-4.094-4.224Zm-163.048,0,18.738-19.331,7.321,7.555L70.109,162.324Zm3.228,0,4.094,4.223,15.509-16-4.093-4.224ZM582.2,148.881l7.321-7.555,7.323,7.555-7.323,7.555Zm3.228,0,4.093,4.223,4.094-4.223-4.094-4.222Zm-163.048,0,7.321-7.555,7.323,7.555-7.323,7.555Zm3.228,0L429.7,153.1l4.095-4.223-4.095-4.222Zm-163.048,0,7.321-7.555,7.323,7.555-7.323,7.555Zm3.228,0,4.093,4.223,4.094-4.223-4.094-4.222Zm-163.048,0,7.323-7.555,7.321,7.555-7.321,7.555Zm3.228,0,4.094,4.223,4.093-4.223-4.093-4.222Zm534.923-10.113-11.416,11.779-7.321-7.555,11.416-11.776-4.095-4.224-11.416,11.776-7.321-7.552,18.737-19.334,30.154,31.11-7.323,7.555Zm11.416,8.448,4.094-4.223-26.926-27.778-15.509,16,4.093,4.222,11.416-11.776,7.323,7.555-11.416,11.776,4.093,4.223,11.416-11.778Zm-171.235-8.448-11.416,11.779-7.321-7.555,11.416-11.776-4.094-4.224-11.416,11.776-7.321-7.552,18.737-19.334,30.154,31.11-7.323,7.555Zm11.416,8.448,4.094-4.223-26.926-27.778-15.509,16,4.093,4.222,11.416-11.776,7.323,7.555-11.416,11.776,4.093,4.223,11.416-11.778Zm-171.235-8.448-11.416,11.779-7.322-7.555,11.416-11.776-4.094-4.224-11.416,11.776-7.321-7.552,18.737-19.334,30.154,31.11-7.323,7.555Zm11.416,8.448,4.093-4.223-26.924-27.778-15.509,16,4.093,4.222,11.416-11.776,7.323,7.555-11.416,11.776,4.093,4.223,11.416-11.778Zm-171.234-8.448L150.02,150.548l-7.323-7.555,11.414-11.776-4.092-4.224L138.6,138.769l-7.323-7.552,18.738-19.334,30.153,31.11-7.321,7.555Zm11.416,8.448,4.092-4.223L150.02,115.215l-15.51,16,4.094,4.222,11.416-11.776,7.321,7.555-11.416,11.776,4.094,4.223,11.416-11.778Zm346.562-16,13.029-13.443,7.324,7.552-5.708,5.891L545.094,142.6l-7.323,7.555Zm3.23,0,15.128,15.607,4.094-4.223-11.036-11.383,5.708-5.891-4.094-4.222Zm-163.049,0,13.029-13.443,7.323,7.552-5.707,5.891L385.274,142.6l-7.321,7.555Zm3.23,0,15.129,15.607,4.092-4.223L371.01,131.217l5.708-5.891-4.094-4.222Zm-163.049,0L212.8,117.774l7.323,7.552-5.708,5.891L225.455,142.6l-7.323,7.555Zm3.228,0,15.129,15.607,4.093-4.223L211.19,131.217l5.708-5.891L212.8,121.1Zm-163.048,0,13.031-13.443,7.321,7.552L54.6,131.217,65.634,142.6l-7.321,7.555Zm3.228,0,15.129,15.607,4.093-4.223L51.371,131.217l5.708-5.891L52.986,121.1Zm521.893,0,7.321-7.555L585.429,137.1l-7.323,7.555Zm3.228,0,9.8,10.11L582.2,137.1l-9.8-10.113Zm-163.048,0,7.321-7.555L425.609,137.1l-7.323,7.555Zm3.228,0,9.8,10.11,4.095-4.222-9.8-10.113Zm-163.048,0,7.321-7.555L265.79,137.1l-7.323,7.555Zm3.228,0,9.8,10.11,4.094-4.222-9.8-10.113Zm-163.048,0,7.323-7.555L105.97,137.1l-7.321,7.555Zm3.228,0,9.8,10.11,4.093-4.222-9.8-10.113Zm567.556,0,24.064-24.829,7.323,7.555-24.065,24.826Zm3.228,0,4.093,4.222,20.837-21.5-4.094-4.223Zm-83.139-11.779,7.321-7.555,11.416,11.779,22.831-23.555,7.323,7.555L595.23,138.769Zm3.228,0,15.509,16,26.926-27.777-4.094-4.223L595.23,126.992l-11.416-11.778Zm-37.476,11.779,5.708-5.891-5.708-5.888,7.322-7.555,13.03,13.443-13.03,13.443Zm3.23-11.779,5.707,5.888-5.707,5.891,4.092,4.222,9.8-10.113-9.8-10.111Zm-48.891,11.779,24.064-24.829,7.323,7.555L503.9,138.769Zm7.321,4.222,20.837-21.5-4.094-4.223-20.836,21.5Zm-87.232-16,7.321-7.555,11.416,11.779,22.832-23.555,7.323,7.555L435.41,138.769Zm3.228,0,15.509,16,26.926-27.777-4.094-4.223L435.41,126.992l-11.416-11.778Zm-37.476,11.779,5.708-5.891-5.708-5.888,7.321-7.555,13.031,13.443-13.031,13.443Zm3.228-11.779,5.708,5.888-5.708,5.891,4.093,4.222,9.8-10.113-9.8-10.111Zm-48.891,11.779,24.067-24.829,7.321,7.555-24.065,24.826Zm7.323,4.222,20.837-21.5-4.093-4.223-20.837,21.5Zm-87.232-16,7.321-7.555,11.416,11.779,22.832-23.555,7.323,7.555-30.154,31.107Zm3.228,0,15.509,16,26.926-27.777-4.094-4.223-22.832,23.554-11.416-11.778Zm-37.476,11.779,5.708-5.891-5.708-5.888,7.321-7.555,13.031,13.443-13.031,13.443Zm3.228-11.779,5.708,5.888-5.708,5.891,4.093,4.222,9.8-10.113-9.8-10.111Zm-48.891,11.779,24.067-24.829,7.321,7.555-24.067,24.826Zm7.321,4.222,20.837-21.5-4.092-4.223-20.837,21.5Zm-87.23-16,7.323-7.555,11.416,11.779L138.6,100.107l7.321,7.555-30.153,31.107Zm3.228,0,15.51,16L142.7,107.661l-4.093-4.223-22.832,23.554-11.416-11.778ZM62.787,131.217l5.708-5.891-5.708-5.888,7.323-7.555,13.029,13.443L70.109,138.769Zm3.228-11.779,5.708,5.888-5.708,5.891,4.094,4.222,9.8-10.113-9.8-10.111ZM17.124,131.217l24.065-24.829,7.323,7.555L24.446,138.769Zm7.323,4.222,20.836-21.5-4.093-4.223-20.837,21.5Zm603.417-33.667,7.321-7.553,24.446,25.219-7.323,7.555Zm3.228,0,21.217,21.89,4.094-4.224L635.185,97.549Zm-163.048,0,7.322-7.553,24.446,25.219-7.323,7.555Zm3.228,0,21.217,21.89,4.094-4.224L475.366,97.549Zm-163.048,0,7.321-7.553,24.446,25.219-7.323,7.555Zm3.228,0,21.217,21.89,4.093-4.224L315.546,97.549Zm-163.048,0,7.323-7.553,24.445,25.219-7.321,7.555Zm3.228,0,21.218,21.89,4.092-4.224L155.728,97.549ZM559.369,113.55l24.445-25.22,18.739,19.332-7.323,7.553-11.416-11.776L566.69,121.1Zm3.228,0,4.093,4.224,17.124-17.667,11.416,11.776,4.094-4.222-15.51-16Zm-163.048,0,24.445-25.22,18.738,19.332-7.323,7.553-11.416-11.776L406.871,121.1Zm3.228,0,4.093,4.224,17.124-17.667,11.416,11.776,4.095-4.222-15.51-16Zm-163.048,0,24.445-25.22,18.738,19.332-7.323,7.553-11.416-11.776L247.051,121.1Zm3.228,0,4.093,4.224,17.124-17.667,11.416,11.776,4.094-4.222-15.51-16Zm-163.048,0,24.446-25.22,18.737,19.332-7.321,7.553-11.416-11.776L87.233,121.1Zm3.228,0,4.094,4.224,17.124-17.667,11.416,11.776,4.093-4.222-15.509-16Zm567.547-11.786,18.728-18.893,7.383,7.11-5.75,5.735,5.695,6.07-13.017,13.429Zm3.247.018,9.792,10.1,9.814-10.125-5.721-6.1,5.664-5.65-4.031-3.883Zm-123.1,5.88,18.737-19.332,13.03,13.443-7.323,7.555-5.708-5.888-11.416,11.776Zm3.23,0,4.092,4.222,11.416-11.776,5.708,5.888,4.094-4.223-9.8-10.113Zm-43.193-5.9,18.728-18.893,7.383,7.11-5.75,5.735,5.695,6.07L503.9,115.215ZM503.9,111.883l9.814-10.125L508,95.661l5.666-5.65-4.032-3.883-15.519,15.654ZM371.01,107.661l18.737-19.332,13.031,13.443-7.323,7.555-5.708-5.888-11.416,11.776Zm3.229,0,4.092,4.222,11.416-11.776,5.708,5.888,4.094-4.223-9.8-10.113Zm-43.194-5.9,18.729-18.893,7.383,7.11-5.75,5.735,5.695,6.07-13.017,13.429Zm13.04,10.119,9.814-10.125-5.721-6.1,5.666-5.65-4.033-3.883-15.518,15.654ZM211.19,107.661l18.737-19.332,13.031,13.443-7.323,7.555-5.708-5.888-11.416,11.776Zm3.228,0,4.093,4.222,11.416-11.776,5.708,5.888,4.094-4.223-9.8-10.113Zm-43.193-5.9,18.729-18.893,7.383,7.11-5.75,5.735,5.695,6.07-13.019,13.429Zm13.038,10.119,9.815-10.125-5.721-6.1,5.666-5.65-4.033-3.883-15.518,15.654ZM51.371,107.661,70.109,88.329l13.029,13.443-7.321,7.555-5.708-5.888L58.694,115.215Zm3.228,0,4.094,4.222,11.416-11.776,5.708,5.888,4.093-4.223-9.8-10.113Zm-43.193-5.9L30.136,82.871l7.383,7.11-5.75,5.735,5.695,6.07L24.446,115.215Zm13.04,10.119,9.814-10.125-5.721-6.1,5.666-5.65-4.032-3.883L14.655,101.781Zm574.878-16,7.321-7.555,7.323,7.555-7.323,7.555Zm3.228,0,4.093,4.223,4.094-4.223-4.094-4.224Zm-83.139,0,18.737-19.331,7.324,7.555-18.738,19.331Zm3.23,0,4.093,4.223,15.509-16-4.094-4.224Zm-83.139,0,7.321-7.555,7.323,7.555-7.323,7.555Zm3.228,0,4.093,4.223,4.094-4.223-4.094-4.224Zm-83.139,0,18.737-19.331,7.323,7.555-18.738,19.331Zm3.23,0,4.092,4.223,15.51-16-4.094-4.224Zm-83.139,0,7.321-7.555,7.323,7.555-7.323,7.555Zm3.228,0,4.093,4.223,4.094-4.223-4.094-4.224Zm-83.139,0,18.737-19.331,7.323,7.555L207.1,103.438Zm3.228,0,4.093,4.223,15.51-16-4.094-4.224Zm-83.137,0,7.323-7.555,7.321,7.555-7.321,7.555Zm3.228,0,4.094,4.223,4.093-4.223-4.093-4.224Zm-83.139,0L58.694,76.553l7.321,7.555L47.278,103.438Zm3.228,0,4.094,4.223,15.509-16-4.093-4.224ZM639.279,90l24.445-25.222,7.322,7.555L646.6,97.549Zm7.322,4.223,21.218-21.89-4.094-4.223L642.508,90Zm-62.787-37.89L566.69,73.995l-7.322-7.555,24.445-25.22,22.832,23.554,11.8-12.169,13.031,13.443L624.151,73.6l-5.708-5.888-4.474,4.615,9.8,10.113,17.124-17.667,7.323,7.555-24.446,25.22Zm39.955,37.89,21.218-21.89-4.095-4.223L623.769,85.771,610.74,72.328l7.7-7.947,5.708,5.891,4.094-4.224-9.8-10.111-11.8,12.169L583.814,44.55,562.6,66.44l4.093,4.224L583.814,53Zm-81.9-22.283,7.321-7.555,17.5,18.06,5.708-5.888,7.323,7.555L566.69,97.549Zm3.228,0,21.6,22.283,9.8-10.111L572.4,79.883l-5.708,5.888-17.5-18.057ZM479.46,90,503.9,64.774l7.323,7.555-24.446,25.22Zm7.321,4.223L508,72.328,503.9,68.105,482.688,90Zm-62.787-37.89L406.871,73.995l-7.322-7.555,24.445-25.22,22.831,23.554,11.8-12.169,13.03,13.443L464.331,73.6l-5.708-5.888-4.474,4.615,9.8,10.113,17.124-17.667,7.323,7.555L463.95,97.549Zm39.955,37.89,21.218-21.89-4.094-4.223L463.95,85.771,450.921,72.328l7.7-7.947,5.708,5.891,4.093-4.224-9.8-10.111-11.8,12.169L423.995,44.55,402.778,66.44l4.093,4.224L423.995,53Zm-81.9-22.283,7.321-7.555,17.5,18.06,5.708-5.888,7.323,7.555-13.03,13.441Zm3.23,0,21.6,22.283,9.8-10.111-4.094-4.224-5.708,5.888-17.5-18.057ZM319.64,90l24.445-25.222,7.323,7.555-24.447,25.22Zm7.321,4.223,21.217-21.89-4.093-4.223L322.869,90Zm-62.787-37.89L247.051,73.995,239.73,66.44l24.445-25.22,22.831,23.554L298.8,52.6l13.031,13.443L304.511,73.6,298.8,67.714l-4.474,4.615,9.8,10.113,17.124-17.667,7.323,7.555L304.13,97.549Zm39.955,37.89,21.218-21.89-4.094-4.223L304.13,85.771,291.1,72.328l7.7-7.947,5.708,5.891,4.093-4.224-9.8-10.111-11.8,12.169L264.175,44.55,242.958,66.44l4.093,4.224L264.175,53Zm-81.9-22.283,7.323-7.555,17.5,18.06,5.708-5.888,7.323,7.555L247.051,97.549Zm3.23,0,21.6,22.283,9.8-10.111-4.094-4.224-5.708,5.888-17.5-18.057ZM159.819,90l24.445-25.222,7.324,7.555-24.445,25.22Zm7.324,4.223,21.215-21.89-4.094-4.223L163.049,90Zm-62.787-37.89L87.233,73.995,79.91,66.44l24.446-25.22,22.832,23.554L138.982,52.6l13.032,13.443L144.69,73.6l-5.708-5.888-4.473,4.615,9.8,10.113,17.124-17.667,7.321,7.555-24.445,25.22Zm39.955,37.89,21.215-21.89-4.092-4.223L144.312,85.771,131.281,72.328l7.7-7.947,5.708,5.891,4.094-4.224-9.8-10.111L127.188,68.105,104.357,44.55,83.139,66.44l4.094,4.224L104.357,53ZM62.406,71.936l7.323-7.555,17.5,18.06,5.708-5.888,7.321,7.555L87.233,97.549Zm3.228,0,21.6,22.283,9.8-10.111-4.093-4.224-5.708,5.888-17.5-18.057ZM0,90,24.446,64.774l7.321,7.555L7.323,97.549Zm3.23,0,4.093,4.223,21.217-21.89-4.093-4.223ZM576.493,72.328l7.321-7.555,18.739,19.334-7.323,7.552Zm3.228,0,15.509,16,4.094-4.222-15.51-16Zm-163.048,0,7.321-7.555,18.738,19.334-7.323,7.552Zm3.228,0,15.509,16,4.095-4.222-15.51-16Zm-163.048,0,7.321-7.555,18.738,19.334-7.323,7.552Zm3.228,0,15.509,16,4.094-4.222-15.51-16Zm-163.048,0,7.323-7.555,18.737,19.334-7.321,7.552Zm3.228,0,15.51,16,4.093-4.222-15.509-16Zm573.265,5.888L697.972,53l7.323,7.555L680.848,85.771Zm3.228,0,4.093,4.224,21.217-21.889-4.093-4.223Zm-163.049,0L538.151,53l7.324,7.555L521.028,85.771Zm7.323,4.224,21.217-21.889-4.094-4.223L516.936,78.217ZM353.886,78.217,378.331,53l7.323,7.555L361.208,85.771Zm7.321,4.224,21.218-21.889-4.094-4.223L357.116,78.217ZM194.067,78.217,218.512,53l7.323,7.555L201.388,85.771Zm7.321,4.224,21.218-21.889-4.094-4.223L197.3,78.217ZM34.247,78.217,58.694,53l7.321,7.555L41.57,85.771Zm7.323,4.224L62.787,60.552l-4.093-4.223L37.476,78.217ZM650.7,43.279l7.321-7.555L675.14,53.39l11.416-11.778,7.323,7.555L675.14,68.5Zm3.228,0L675.14,65.167l15.509-16-4.093-4.224L675.14,56.722,658.017,39.055Zm-163.048,0,7.321-7.555L515.321,53.39l11.416-11.778,7.323,7.555L515.321,68.5Zm24.445,21.888,15.509-16-4.093-4.224L515.321,56.722,498.2,39.055,494.1,43.279ZM331.055,43.279l7.323-7.555L355.5,53.39l11.414-11.778,7.324,7.555L355.5,68.5ZM355.5,65.167l15.509-16-4.094-4.224L355.5,56.722,338.377,39.055l-4.093,4.224ZM171.235,43.279l7.321-7.555L195.68,53.39,207.1,41.613l7.323,7.555L195.68,68.5ZM195.68,65.167l15.51-16L207.1,44.943,195.68,56.722,178.557,39.055l-4.092,4.224ZM11.416,43.279l7.323-7.555L35.862,53.39,47.278,41.613,54.6,49.167,35.862,68.5ZM35.862,65.167l15.509-16-4.093-4.224L35.862,56.722,18.738,39.055l-4.093,4.224ZM640.6,56.348l-5.39,5.894-7.354-7.587L640.5,41.889l19.147,18.733-7.327,7.684Zm11.7,8.622,4.092-4.29L640.525,45.159,631.1,54.672l4.061,4.189,5.382-5.884ZM480.779,56.348l-5.39,5.894-7.354-7.587,12.644-12.766,19.147,18.733L492.5,68.305Zm11.7,8.622,4.09-4.29L480.706,45.159l-9.425,9.513,4.063,4.189,5.381-5.884ZM320.96,56.348l-5.39,5.894-7.354-7.587,12.646-12.766,19.146,18.733-7.327,7.684Zm11.7,8.622,4.089-4.29L320.885,45.159l-9.423,9.513,4.06,4.189,5.382-5.884ZM161.14,56.348l-5.39,5.894-7.356-7.587,12.647-12.766,19.146,18.733-7.327,7.684Zm11.7,8.622,4.089-4.29L161.067,45.159l-9.424,9.513,4.06,4.189,5.382-5.884ZM530.829,37l7.321-7.555,17.124,17.666,5.708-5.89,7.323,7.555L555.275,62.217Zm3.23,0,21.216,21.888,9.8-10.111-4.095-4.224-5.708,5.89L538.151,32.774ZM371.01,37l7.321-7.555,17.124,17.666,5.708-5.89,7.323,7.555-13.03,13.443Zm3.229,0,21.216,21.888,9.8-10.111-4.094-4.224-5.708,5.89L378.331,32.774ZM211.19,37l7.321-7.555,17.124,17.666,5.708-5.89,7.323,7.555L235.636,62.217Zm3.228,0,21.217,21.888,9.8-10.111-4.094-4.224-5.708,5.89L218.512,32.774ZM51.371,37l7.323-7.555L75.817,47.109l5.708-5.89,7.321,7.555L75.817,62.217ZM54.6,37,75.817,58.886l9.8-10.111L81.525,44.55l-5.708,5.89L58.694,32.774ZM571.2,19.763l7.254-8.231,35.506,37.25-7.316,7.548Zm3.156-.079L606.646,53l4.1-4.23L578.52,14.96Zm-162.974.079,7.253-8.231,35.5,37.25-7.315,7.548Zm3.154-.079L446.826,53l4.1-4.23L418.7,14.96Zm-162.974.079,7.253-8.231,35.5,37.25-7.315,7.548Zm3.155-.079L287.006,53l4.1-4.23L258.881,14.96Zm-162.974.079L99,11.532,134.5,48.781l-7.313,7.548Zm3.155-.079L127.188,53l4.1-4.23L99.061,14.96ZM604.937,31.1l18.833-19.324,7.321,7.552L619.663,31.124l3.916,4.18,5.477-5.847,7.776,7.521L623.57,50.435Zm3.227.01,15.423,16,9.95-10.1-4.4-4.257-5.556,5.93-7.118-7.6,11.4-11.763-4.1-4.226ZM445.118,31.1l18.833-19.324,7.321,7.552L459.843,31.124l3.916,4.18,5.477-5.847,7.776,7.521L463.751,50.435Zm3.228.01,15.423,16,9.949-10.1-4.4-4.257-5.556,5.93-7.118-7.6,11.4-11.763-4.1-4.226ZM285.3,31.1l18.835-19.324,7.32,7.552L300.024,31.124l3.916,4.18,5.479-5.847,7.775,7.521L303.931,50.435Zm3.228.01,15.423,16,9.949-10.1-4.4-4.257-5.558,5.93-7.118-7.6,11.4-11.763-4.1-4.226ZM125.479,31.1l18.835-19.324,7.32,7.552L140.2,31.124l3.916,4.18,5.479-5.847,7.776,7.521L144.112,50.435Zm3.228.01,15.423,16,9.95-10.1-4.4-4.257-5.558,5.93L137,31.094l11.4-11.763-4.1-4.226Zm533.072.463,7.215-8.685L682.43,36.976l-7.25,7.98Zm3.131-.15L675.1,41.6l4.164-4.582L669.109,26.37Zm-162.95.15,7.215-8.685L522.61,36.976l-7.252,7.98ZM515.281,41.6l4.164-4.582L509.29,26.37l-4.2,5.056ZM342.14,31.576l7.215-8.685,13.437,14.086-7.251,7.98ZM355.462,41.6l4.164-4.582L349.47,26.37l-4.2,5.056ZM182.32,31.576l7.215-8.685,13.438,14.086-7.253,7.98ZM195.641,41.6l4.166-4.582L189.651,26.37l-4.2,5.056ZM22.5,31.576l7.216-8.685L43.153,36.976,35.9,44.956ZM35.823,41.6l4.163-4.582L29.831,26.37l-4.2,5.056ZM565.077,37l7.321-7.555L579.721,37,572.4,44.55Zm3.228,0L572.4,41.22,576.493,37,572.4,32.774ZM405.257,37l7.321-7.555L419.9,37l-7.323,7.552Zm3.228,0,4.093,4.222L416.673,37l-4.094-4.224ZM245.438,37l7.321-7.555L260.082,37l-7.323,7.552Zm3.228,0,4.093,4.222L256.854,37l-4.094-4.224ZM85.618,37l7.323-7.555L100.262,37,92.941,44.55Zm3.228,0,4.094,4.222L97.034,37l-4.093-4.224ZM536.537,19.331l7.321-7.555,11.416,11.779,5.708-5.891,7.323,7.555L555.275,38.662Zm3.23,0,15.508,16,9.8-10.113L560.982,21l-5.708,5.888L543.859,15.108Zm-163.049,0,7.321-7.555,11.416,11.779,5.708-5.891,7.323,7.555-13.03,13.443Zm3.228,0,15.509,16,9.8-10.113L401.163,21l-5.708,5.888L384.039,15.108Zm-163.048,0,7.321-7.555,11.416,11.779,5.708-5.891,7.323,7.555L235.636,38.662Zm3.228,0,15.509,16,9.8-10.113L241.343,21l-5.708,5.888L224.22,15.108Zm-163.048,0L64.4,11.776,75.817,23.555l5.708-5.891,7.321,7.555L75.817,38.662Zm3.228,0,15.51,16,9.8-10.113L81.525,21l-5.708,5.888L64.4,15.108Zm573.084,5.907,5.547-5.921-5.365-5.93L641.3,5.914l11.377,11.749,5.3-5.482,7.329,7.34L646.5,38.654ZM636.8,13.5l5.289,5.847L636.6,25.2l9.909,10.138,15.538-15.808L658,15.488,652.678,21l-11.43-11.8ZM473.571,25.238l5.547-5.921-5.365-5.93,7.726-7.473,11.378,11.749,5.3-5.482,7.327,7.34-18.8,19.132Zm3.406-11.74,5.29,5.847L476.78,25.2l9.908,10.138,15.538-15.808-4.04-4.045L492.858,21l-11.43-11.8ZM313.752,25.238l5.547-5.921-5.365-5.93,7.726-7.473,11.378,11.749,5.3-5.482,7.328,7.34L326.864,38.654Zm3.406-11.74,5.29,5.847L316.96,25.2l9.908,10.138,15.538-15.808-4.039-4.045L333.039,21l-11.43-11.8ZM153.932,25.238l5.547-5.921-5.365-5.93,7.726-7.473,11.377,11.749,5.3-5.482,7.328,7.34L167.045,38.654Zm3.406-11.74,5.29,5.847L157.141,25.2l9.908,10.138,15.538-15.808-4.039-4.045L173.22,21l-11.432-11.8Zm515.807,5.44,7.321-7.555,13.412,13.836-7.323,7.555Zm3.228,0,10.182,10.505,4.093-4.224-10.182-10.5Zm-163.048,0,7.321-7.555,13.411,13.836-7.323,7.555Zm13.41,10.505,4.093-4.224-10.182-10.5-4.093,4.223ZM353.507,18.938l7.323-7.555,13.41,13.836-7.324,7.555Zm13.409,10.505,4.094-4.224-10.181-10.5-4.095,4.223ZM193.686,18.938l7.324-7.555,13.409,13.836L207.1,32.774ZM207.1,29.443l4.094-4.224-10.181-10.5-4.094,4.223ZM33.866,18.938l7.323-7.555L54.6,25.219l-7.321,7.555ZM47.278,29.443l4.093-4.224-10.182-10.5L37.1,18.938Zm545.957-9.72L612.353,0l7.323,7.555L600.557,27.278Zm3.228,0,4.093,4.223L616.448,7.555,612.353,3.33Zm-163.048,0L452.534,0l7.323,7.555L440.737,27.278Zm3.228,0,4.093,4.223L456.628,7.555,452.534,3.33Zm-163.048,0L292.715,0l7.323,7.555L280.919,27.278Zm3.228,0,4.094,4.223,15.89-16.392L292.715,3.33Zm-163.048,0L132.9,0l7.321,7.555L121.1,27.278Zm3.228,0,4.094,4.223,15.89-16.392L132.9,3.33Z" transform="translate(-68.075 -20.678)"/></g></svg>