<svg xmlns="http://www.w3.org/2000/svg" xmlns:xlink="http://www.w3.org/1999/xlink" width="284.132" height="228.918" viewBox="0 0 284.132 228.918"><defs><style>.a{fill:#50be87;}.b{clip-path:url(#a);}.c{fill:#3cb478;}</style><clipPath id="a"><path class="a" d="M9,285.918H293.132V71.409H57.455L45.916,57,34.389,71.409H9Z" transform="translate(-9 -57)"/></clipPath></defs><g class="b"><path class="c" d="M571.2,704.714l7.254-8.537,35.506,38.642-7.316,7.829Zm35.444,34.48,4.1-4.388L578.52,699.732l-4.163,4.9Zm-195.262-34.48,7.253-8.537,35.5,38.642-7.315,7.829Zm35.443,34.48,4.1-4.388L418.7,699.732l-4.163,4.9Zm-195.263-34.48,7.253-8.537,35.5,38.642-7.315,7.829Zm35.443,34.48,4.1-4.388-32.225-35.073-4.163,4.9ZM91.744,704.714,99,696.177,134.5,734.819l-7.313,7.829Zm35.444,34.48,4.1-4.388L99.061,699.732l-4.163,4.9Zm477.749-22.712,18.833-20.049,7.321,7.833L619.663,716.5l3.916,4.338,5.477-6.066,7.776,7.8L623.57,736.535Zm18.65,16.607,9.95-10.473-4.4-4.415-5.556,6.152-7.118-7.881,11.4-12.206-4.1-4.381-15.6,16.605Zm-178.47-16.607,18.833-20.049,7.321,7.833L459.843,716.5l3.916,4.338,5.477-6.066,7.776,7.8-13.263,13.963Zm18.651,16.607,9.949-10.473-4.4-4.415-5.556,6.152-7.118-7.881,11.4-12.206-4.1-4.381-15.6,16.605ZM285.3,716.481l18.835-20.049,7.32,7.833L300.024,716.5l3.916,4.338,5.479-6.066,7.775,7.8-13.263,13.963Zm18.651,16.607,9.949-10.473-4.4-4.415-5.558,6.152-7.118-7.881,11.4-12.206-4.1-4.381-15.6,16.605ZM125.479,716.481l18.835-20.049,7.32,7.833L140.2,716.5l3.916,4.338,5.479-6.066,7.776,7.8-13.264,13.963Zm18.651,16.607,9.95-10.473-4.4-4.415-5.558,6.152L137,716.471l11.4-12.206-4.1-4.381-15.6,16.605Zm517.649-16.119,7.215-9.009,13.437,14.614-7.25,8.277Zm3.131-.155L675.1,727.37l4.164-4.755L669.109,711.57Zm-162.95.155,7.215-9.009,13.437,14.614-7.252,8.277Zm13.322,10.4,4.164-4.755L509.29,711.57l-4.2,5.245Zm-173.142-10.4,7.215-9.009,13.437,14.614-7.251,8.277Zm13.322,10.4,4.164-4.755L349.47,711.57l-4.2,5.245Zm-173.141-10.4,7.215-9.009,13.438,14.614-7.253,8.277Zm13.321,10.4,4.166-4.755L189.651,711.57l-4.2,5.245ZM22.5,716.969l7.216-9.009,13.438,14.614L35.9,730.852Zm13.323,10.4,4.163-4.755L29.831,711.57l-4.2,5.245Zm500.715-23.1,7.321-7.834,11.416,12.217,5.708-6.109,7.323,7.837-13.031,13.946Zm18.737,16.6,9.8-10.49-4.095-4.382-5.708,6.108-11.416-12.217-4.092,4.38Zm-178.557-16.6,7.321-7.834,11.416,12.217,5.708-6.109,7.323,7.837-13.03,13.946Zm18.737,16.6,9.8-10.49-4.094-4.382-5.708,6.108-11.416-12.217-4.093,4.38ZM216.9,704.266l7.321-7.834,11.416,12.217,5.708-6.109,7.323,7.837-13.031,13.946Zm18.737,16.6,9.8-10.49-4.094-4.382-5.708,6.108L224.22,699.886l-4.093,4.38Zm-178.557-16.6,7.323-7.834,11.416,12.217,5.708-6.109,7.321,7.837L75.817,724.323Zm18.738,16.6,9.8-10.49-4.093-4.382L75.817,712.1,64.4,699.886l-4.094,4.38Zm557.574-10.473,5.547-6.142-5.365-6.151,7.726-7.754,11.377,12.192,5.3-5.69,7.329,7.614L646.5,724.313Zm13.116,10.481,15.538-16.4-4.04-4.2L652.678,706l-11.43-12.246-4.449,4.465,5.289,6.068-5.489,6.074ZM473.571,710.394l5.547-6.142-5.365-6.151,7.726-7.754,11.378,12.192,5.3-5.69,7.327,7.614-18.8,19.85Zm13.116,10.481,15.538-16.4-4.04-4.2L492.858,706l-11.43-12.246-4.45,4.465,5.29,6.068-5.488,6.074ZM313.752,710.394l5.547-6.142-5.365-6.151,7.726-7.754,11.378,12.192,5.3-5.69,7.328,7.614-18.806,19.85Zm13.116,10.481,15.538-16.4-4.039-4.2L333.039,706l-11.43-12.246-4.45,4.465,5.29,6.068-5.488,6.074ZM153.932,710.394l5.547-6.142-5.365-6.151,7.726-7.754,11.377,12.192,5.3-5.69,7.328,7.614-18.806,19.85Zm13.116,10.481,15.538-16.4-4.039-4.2L173.22,706,161.789,693.75l-4.45,4.465,5.29,6.068-5.488,6.074Zm506.1-17.014,7.321-7.837,13.412,14.353-7.323,7.835Zm3.228,0,10.182,10.9,4.093-4.38-10.182-10.9Zm-163.048,0,7.321-7.837,13.411,14.353-7.323,7.835Zm13.41,10.9,4.093-4.38-10.182-10.9-4.093,4.383Zm-173.23-10.9,7.323-7.837,13.41,14.353-7.324,7.835Zm13.409,10.9,4.094-4.38-10.181-10.9-4.095,4.383Zm-173.23-10.9,7.324-7.837,13.409,14.353-7.323,7.835Zm13.41,10.9,4.094-4.38-10.181-10.9-4.094,4.383Zm-173.23-10.9,7.323-7.837L54.6,710.377l-7.321,7.835Zm13.412,10.9,4.093-4.38-10.182-10.9L37.1,703.861Zm545.957-10.084,19.118-20.462,7.323,7.838L600.557,712.51Zm7.322,4.383,15.891-17.007-4.094-4.382-15.89,17.006Zm-167.141-4.383,19.118-20.462,7.323,7.838L440.737,712.51Zm7.322,4.383,15.891-17.007-4.094-4.382-15.89,17.006ZM273.6,704.673l19.118-20.462,7.323,7.838L280.919,712.51Zm7.323,4.383,15.89-17.007-4.094-4.382-15.89,17.006Zm-167.142-4.383L132.9,684.211l7.321,7.838L121.1,712.51Zm7.323,4.383,15.89-17.007-4.093-4.382-15.891,17.006Zm536.917-21.389-5.708,6.11-7.321-7.837,30.153-32.273,18.752,20.069-7.343,7.6-11.4-12-9.821,10.512,4.106,4.542,5.695-6.3,7.336,7.851-13.031,13.946Zm11.416,8.764,9.8-10.491-4.081-4.367-5.721,6.327-7.31-8.083,13.011-13.925,11.429,12.028,4.073-4.215-15.5-16.584L648.216,685.94l4.093,4.38,5.708-6.109Zm-104.356-22.71,7.321-7.836,17.124,18.326,11.416-12.217,7.323,7.838-18.739,20.054Zm3.228,0,21.217,22.71,15.51-16.6-4.094-4.381-11.416,12.217L572.4,669.34Zm-7.323,20.056-5.708,6.109-7.322-7.837L560.982,678.1l13.031,13.946-7.323,7.837Zm5.708,2.654,4.095-4.383-9.8-10.49-9.8,10.49,4.093,4.383,5.708-6.112ZM498.2,687.667l-5.708,6.11-7.321-7.837,30.153-32.273,18.752,20.069-7.342,7.6-11.4-12-9.821,10.512,4.106,4.542,5.693-6.3,7.337,7.851-13.031,13.946Zm11.416,8.764,9.8-10.491-4.08-4.367-5.721,6.327-7.309-8.083,13.011-13.925,11.429,12.028,4.073-4.215-15.5-16.584L488.4,685.94l4.093,4.38,5.708-6.109Zm-104.355-22.71,7.321-7.836L429.7,684.211l11.416-12.217,7.323,7.838L429.7,699.886Zm3.228,0,21.217,22.71,15.51-16.6-4.094-4.381L429.7,687.667,412.579,669.34Zm-7.323,20.056-5.708,6.109-7.321-7.837L401.163,678.1l13.031,13.946-7.323,7.837Zm5.708,2.654,4.094-4.383-9.8-10.49-9.8,10.49,4.093,4.383,5.708-6.112Zm-68.493-8.764-5.708,6.11-7.321-7.837L355.5,653.667l18.752,20.069-7.343,7.6-11.4-12-9.821,10.512,4.106,4.542,5.693-6.3,7.337,7.851-13.031,13.946Zm11.416,8.764,9.8-10.491-4.08-4.367-5.721,6.327-7.309-8.083,13.011-13.925,11.429,12.028L371,673.706l-15.5-16.584L328.577,685.94l4.093,4.38,5.708-6.109Zm-104.355-22.71,7.321-7.836,17.124,18.326L281.3,671.994l7.323,7.838-18.739,20.054Zm3.228,0,21.217,22.71,15.51-16.6L281.3,675.45l-11.416,12.217L252.759,669.34Zm-7.323,20.056-5.708,6.109-7.321-7.837L241.343,678.1l13.031,13.946-7.323,7.837Zm5.708,2.654,4.094-4.383-9.8-10.49-9.8,10.49,4.093,4.383,5.708-6.112Zm-68.495-8.764-5.705,6.11-7.324-7.837,30.153-32.273,18.753,20.069-7.342,7.6-11.4-12-9.821,10.512,4.1,4.542,5.695-6.3L203,685.94l-13.031,13.946Zm11.416,8.764,9.8-10.491-4.079-4.367-5.724,6.327-7.308-8.083,13.011-13.925L207.1,677.921l4.073-4.215-15.5-16.584L168.757,685.94l4.094,4.38,5.705-6.109ZM85.618,673.721l7.323-7.836,17.124,18.326,11.416-12.217,7.321,7.838-18.737,20.054Zm3.228,0,21.218,22.71,15.509-16.6-4.093-4.381-11.416,12.217L92.941,669.34Zm-7.321,20.056-5.708,6.109-7.323-7.837L81.525,678.1l13.029,13.946-7.321,7.837Zm5.708,2.654,4.093-4.383-9.8-10.49-9.8,10.49,4.094,4.383,5.708-6.112Zm-68.495-8.764-5.708,6.11L5.708,685.94l30.154-32.273,18.752,20.069-7.342,7.6-11.4-12-9.821,10.512,4.106,4.542,5.695-6.3,7.335,7.851L30.154,699.886Zm11.416,8.764,9.8-10.491-4.08-4.367L30.154,687.9l-7.31-8.083,13.011-13.925,11.429,12.028,4.072-4.215L35.862,657.122,8.938,685.94l4.093,4.38,5.708-6.109Zm495.348-4.79L538.151,678.1l7.324,7.837-12.651,13.538Zm3.228,0,4.093,4.383,9.421-10.084-4.094-4.381Zm-163.048,0L378.331,678.1l7.323,7.837L373,699.478Zm3.228,0L373,696.023l9.421-10.084-4.094-4.381Zm-163.048,0L218.512,678.1l7.323,7.837-12.65,13.538Zm3.228,0,4.093,4.383,9.421-10.084-4.094-4.381Zm-163.048,0L58.694,678.1l7.321,7.837-12.65,13.538Zm3.228,0,4.093,4.383,9.421-10.084-4.093-4.381ZM599.324,661.5l7.321-7.837L629.477,678.1l11.416-12.217,7.323,7.836-18.738,20.056Zm3.228,0,26.925,28.815,15.51-16.6-4.095-4.381-11.416,12.218-22.832-24.437Zm-163.048,0,7.321-7.837L469.658,678.1l11.416-12.217,7.323,7.836-18.739,20.056Zm3.228,0,26.925,28.815,15.51-16.6-4.094-4.381-11.416,12.218-22.832-24.437Zm-163.048,0,7.321-7.837L309.838,678.1l11.416-12.217,7.323,7.836-18.738,20.056Zm3.228,0,26.925,28.815,15.51-16.6-4.094-4.381-11.416,12.218-22.832-24.437Zm-163.048,0,7.323-7.837L150.02,678.1l11.416-12.217,7.321,7.836L150.02,693.777Zm3.228,0L150.02,690.32l15.507-16.6-4.092-4.381L150.02,681.559l-22.832-24.437Zm419.151,12.217,18.737-20.054,7.323,7.837-18.739,20.054Zm3.23,0,4.092,4.381,15.51-16.6-4.095-4.382Zm-163.049,0,18.737-20.054,7.323,7.837-18.738,20.054Zm3.228,0,4.093,4.381,15.51-16.6-4.094-4.382Zm-163.048,0,18.737-20.054,7.323,7.837-18.738,20.054Zm3.228,0,4.093,4.381,15.51-16.6-4.094-4.382Zm-163.048,0,18.738-20.054,7.321,7.837L70.109,681.559Zm3.228,0,4.094,4.381,15.509-16.6-4.093-4.382ZM582.2,667.613l7.321-7.837,7.323,7.837-7.323,7.837Zm3.228,0,4.093,4.381,4.094-4.381-4.094-4.383Zm-163.048,0,7.321-7.837,7.323,7.837L429.7,675.45Zm3.228,0,4.093,4.381,4.095-4.381L429.7,663.23Zm-163.048,0,7.321-7.837,7.323,7.837-7.323,7.837Zm3.228,0,4.093,4.381,4.094-4.381-4.094-4.383Zm-163.048,0,7.323-7.837,7.321,7.837-7.321,7.837Zm3.228,0,4.094,4.381,4.093-4.381-4.093-4.383Zm534.923-10.491L629.477,669.34l-7.321-7.836,11.416-12.22-4.095-4.38-11.416,12.217-7.321-7.837,18.737-20.054L659.631,661.5l-7.323,7.836Zm11.416,8.764L656.4,661.5l-26.926-28.818-15.509,16.6,4.093,4.383,11.416-12.218,7.323,7.836L625.384,661.5l4.093,4.381,11.416-12.219Zm-171.235-8.764L469.658,669.34l-7.321-7.836,11.416-12.22-4.094-4.38-11.416,12.217-7.321-7.837,18.737-20.054L499.812,661.5l-7.323,7.836Zm11.416,8.764,4.094-4.381-26.926-28.818-15.509,16.6,4.093,4.383,11.416-12.218,7.323,7.836L465.565,661.5l4.093,4.381,11.416-12.219Zm-171.235-8.764L309.838,669.34l-7.322-7.836,11.416-12.22-4.094-4.38-11.416,12.217-7.321-7.837,18.737-20.054L339.992,661.5l-7.323,7.836Zm11.416,8.764,4.093-4.381-26.924-28.818-15.509,16.6,4.093,4.383,11.416-12.218,7.323,7.836L305.745,661.5l4.093,4.381,11.416-12.219Zm-171.234-8.764L150.02,669.34,142.7,661.5l11.414-12.22-4.092-4.38L138.6,657.122l-7.323-7.837L150.02,629.23,180.173,661.5l-7.321,7.836Zm11.416,8.764,4.092-4.381L150.02,632.686l-15.51,16.6,4.094,4.383,11.416-12.218,7.321,7.836L145.925,661.5l4.094,4.381,11.416-12.219Zm346.562-16.6,13.029-13.946,7.324,7.837-5.708,6.108L545.094,661.1l-7.323,7.838Zm3.23,0,15.128,16.194,4.094-4.381-11.036-11.812,5.708-6.108-4.094-4.381Zm-163.049,0,13.029-13.946,7.323,7.837-5.707,6.108L385.274,661.1l-7.321,7.838Zm3.23,0,15.129,16.194,4.092-4.381L371.01,649.284l5.708-6.108-4.094-4.381Zm-163.049,0L212.8,635.339l7.323,7.837-5.708,6.108L225.455,661.1l-7.323,7.838Zm3.228,0,15.129,16.194,4.093-4.381L211.19,649.284l5.708-6.108-4.094-4.381Zm-163.048,0,13.031-13.946,7.321,7.837L54.6,649.284,65.634,661.1l-7.321,7.838Zm3.228,0,15.129,16.194,4.093-4.381L51.371,649.284l5.708-6.108-4.093-4.381Zm521.893,0,7.321-7.836,13.031,13.946-7.323,7.836Zm3.228,0,9.8,10.491,4.095-4.381-9.8-10.49Zm-163.048,0,7.321-7.836,13.031,13.946-7.323,7.836Zm3.228,0,9.8,10.491,4.095-4.381-9.8-10.49Zm-163.048,0,7.321-7.836,13.031,13.946-7.323,7.836Zm3.228,0,9.8,10.491,4.094-4.381-9.8-10.49Zm-163.048,0,7.323-7.836,13.029,13.946-7.321,7.836Zm3.228,0,9.8,10.491,4.093-4.381-9.8-10.49Zm567.556,0,24.064-25.755,7.323,7.837-24.065,25.755Zm3.228,0,4.093,4.383,20.837-22.3-4.094-4.383Zm-83.139-12.217,7.321-7.837,11.416,12.219,22.831-24.436,7.323,7.836L595.23,657.122Zm3.228,0,15.509,16.6,26.926-28.818-4.094-4.381L595.23,644.9l-11.416-12.218Zm-37.476,12.217,5.708-6.108-5.708-6.109,7.322-7.837,13.03,13.946-13.03,13.946Zm3.23-12.217,5.707,6.109-5.707,6.108,4.092,4.383,9.8-10.491-9.8-10.49Zm-48.891,12.217,24.064-25.755,7.323,7.837L503.9,657.122Zm7.321,4.383,20.837-22.3-4.094-4.383-20.836,22.3Zm-87.232-16.6,7.321-7.837,11.416,12.219,22.832-24.436,7.323,7.836L435.41,657.122Zm3.228,0,15.509,16.6,26.926-28.818-4.094-4.381L435.41,644.9l-11.416-12.218Zm-37.476,12.217,5.708-6.108-5.708-6.109,7.321-7.837,13.031,13.946-13.031,13.946Zm3.228-12.217,5.708,6.109-5.708,6.108,4.093,4.383,9.8-10.491-9.8-10.49Zm-48.891,12.217,24.067-25.755,7.321,7.837-24.065,25.755Zm7.323,4.383,20.837-22.3-4.093-4.383-20.837,22.3Zm-87.232-16.6,7.321-7.837,11.416,12.219,22.832-24.436,7.323,7.836-30.154,32.273Zm3.228,0,15.509,16.6,26.926-28.818-4.094-4.381L275.591,644.9l-11.416-12.218Zm-37.476,12.217,5.708-6.108-5.708-6.109,7.321-7.837,13.031,13.946-13.031,13.946Zm3.228-12.217,5.708,6.109-5.708,6.108,4.093,4.383,9.8-10.491-9.8-10.49Zm-48.891,12.217,24.067-25.755,7.321,7.837-24.067,25.755Zm7.321,4.383,20.837-22.3-4.092-4.383-20.837,22.3Zm-87.23-16.6,7.323-7.837,11.416,12.219L138.6,617.013l7.321,7.836-30.153,32.273Zm3.228,0,15.51,16.6L142.7,624.849l-4.093-4.381L115.773,644.9l-11.416-12.218ZM62.787,649.284l5.708-6.108-5.708-6.109,7.323-7.837,13.029,13.946L70.109,657.122Zm3.228-12.217,5.708,6.109-5.708,6.108,4.094,4.383,9.8-10.491-9.8-10.49ZM17.124,649.284l24.065-25.755,7.323,7.837L24.446,657.122Zm7.323,4.383,20.836-22.3-4.093-4.383-20.837,22.3ZM627.864,618.74l7.321-7.837,24.446,26.164-7.323,7.837Zm3.228,0,21.217,22.708,4.094-4.381-21.218-22.71Zm-163.048,0,7.322-7.837,24.446,26.164-7.323,7.837Zm3.228,0,21.217,22.708,4.094-4.381-21.218-22.71Zm-163.048,0,7.321-7.837,24.446,26.164L332.67,644.9Zm3.228,0,21.217,22.708,4.093-4.381-21.217-22.71Zm-163.048,0,7.323-7.837,24.445,26.164-7.321,7.837Zm3.228,0,21.218,22.708,4.092-4.381-21.215-22.71Zm407.735,12.219,24.445-26.164,18.739,20.054-7.323,7.837-11.416-12.219L566.69,638.795Zm3.228,0,4.093,4.38,17.124-18.326L595.23,629.23l4.094-4.381-15.51-16.6Zm-163.048,0,24.445-26.164,18.738,20.054-7.323,7.837-11.416-12.219-17.124,18.327Zm3.228,0,4.093,4.38,17.124-18.326L435.41,629.23l4.095-4.381-15.51-16.6Zm-163.048,0,24.445-26.164,18.738,20.054-7.323,7.837-11.416-12.219-17.124,18.327Zm3.228,0,4.093,4.38,17.124-18.326,11.416,12.217,4.094-4.381-15.51-16.6Zm-163.048,0,24.446-26.164,18.737,20.054-7.321,7.837-11.416-12.219L87.233,638.795Zm3.228,0,4.094,4.38,17.124-18.326,11.416,12.217,4.093-4.381-15.509-16.6Zm567.547-12.23,18.728-19.6,7.383,7.376-5.75,5.949,5.695,6.3-13.017,13.932Zm3.247.021,9.792,10.48,9.814-10.5-5.721-6.329,5.664-5.86-4.031-4.027Zm-123.1,6.1,18.737-20.054L562.6,618.74l-7.323,7.837-5.708-6.11-11.416,12.219Zm3.23,0,4.092,4.381,11.416-12.217,5.708,6.109,4.094-4.381-9.8-10.491Zm-43.193-6.12,18.728-19.6,7.383,7.376-5.75,5.949,5.695,6.3L503.9,632.686Zm13.038,10.5,9.814-10.5L508,612.4l5.666-5.86-4.032-4.027-15.519,16.24ZM371.01,624.849l18.737-20.054,13.031,13.946-7.323,7.837-5.708-6.11-11.416,12.219Zm3.229,0,4.092,4.381,11.416-12.217,5.708,6.109,4.094-4.381-9.8-10.491Zm-43.194-6.12,18.729-19.6,7.383,7.376-5.75,5.949,5.695,6.3-13.017,13.932Zm13.04,10.5,9.814-10.5-5.721-6.329,5.666-5.86-4.033-4.027-15.518,16.24ZM211.19,624.849l18.737-20.054,13.031,13.946-7.323,7.837-5.708-6.11-11.416,12.219Zm3.228,0,4.093,4.381,11.416-12.217,5.708,6.109,4.094-4.381-9.8-10.491Zm-43.193-6.12,18.729-19.6,7.383,7.376-5.75,5.949,5.695,6.3-13.019,13.932Zm13.038,10.5,9.815-10.5-5.721-6.329,5.666-5.86-4.033-4.027-15.518,16.24ZM51.371,624.849l18.738-20.054L83.139,618.74l-7.321,7.837-5.708-6.11L58.694,632.686Zm3.228,0,4.094,4.381,11.416-12.217,5.708,6.109,4.093-4.381-9.8-10.491Zm-43.193-6.12,18.729-19.6,7.383,7.376-5.75,5.949,5.695,6.3L24.446,632.686Zm13.04,10.5,9.814-10.5L28.539,612.4l5.666-5.86-4.032-4.027L14.655,618.75Zm574.878-16.6,7.321-7.837,7.323,7.837-7.323,7.836Zm3.228,0,4.093,4.381,4.094-4.381-4.094-4.382Zm-83.139,0,18.737-20.056,7.324,7.836-18.738,20.055Zm3.23,0,4.093,4.381,15.509-16.6-4.094-4.38Zm-83.139,0,7.321-7.837,7.323,7.837-7.323,7.836Zm3.228,0,4.093,4.381,4.094-4.381-4.094-4.382Zm-83.139,0,18.737-20.056,7.323,7.836-18.738,20.055Zm3.23,0,4.092,4.381,15.51-16.6-4.094-4.38Zm-83.139,0,7.321-7.837,7.323,7.837-7.323,7.836Zm3.228,0,4.093,4.381,4.094-4.381-4.094-4.382Zm-83.139,0,18.737-20.056,7.323,7.836L207.1,620.468Zm3.228,0,4.093,4.381,15.51-16.6-4.094-4.38Zm-83.137,0,7.323-7.837,7.321,7.837-7.321,7.836Zm3.228,0,4.094,4.381,4.093-4.381-4.093-4.382Zm-83.139,0,18.738-20.056,7.321,7.836L47.278,620.468Zm3.228,0,4.094,4.381,15.509-16.6-4.093-4.38Zm596.1-6.11,24.445-26.164,7.322,7.837L646.6,614.358ZM646.6,610.9l21.218-22.708-4.094-4.381-21.217,22.708ZM583.814,571.6,566.69,589.924l-7.322-7.837,24.445-26.164,22.832,24.436,11.8-12.625,13.031,13.946-7.322,7.837-5.708-6.11-4.474,4.789,9.8,10.491,17.124-18.328,7.323,7.837-24.446,26.163ZM623.769,610.9l21.218-22.708-4.095-4.381-17.124,18.327L610.74,588.195l7.7-8.245,5.708,6.11,4.094-4.381-9.8-10.491-11.8,12.626-22.832-24.437L562.6,582.086l4.093,4.38,17.124-18.325Zm-81.9-23.116,7.321-7.837,17.5,18.736,5.708-6.11,7.323,7.836L566.69,614.358Zm3.228,0,21.6,23.116,9.8-10.491-4.095-4.38-5.708,6.109-17.5-18.735ZM479.46,606.522,503.9,580.358l7.323,7.837-24.446,26.163Zm7.321,4.381L508,588.195l-4.093-4.381-21.217,22.708ZM423.995,571.6l-17.124,18.329-7.322-7.837,24.445-26.164,22.831,24.436,11.8-12.625,13.03,13.946-7.323,7.837-5.708-6.11-4.474,4.789,9.8,10.491,17.124-18.328,7.323,7.837L463.95,614.358ZM463.95,610.9l21.218-22.708-4.094-4.381L463.95,602.141l-13.029-13.946,7.7-8.245,5.708,6.11,4.093-4.381-9.8-10.491-11.8,12.626-22.831-24.437-21.217,22.709,4.093,4.38,17.124-18.325Zm-81.9-23.116,7.321-7.837,17.5,18.736,5.708-6.11,7.323,7.836-13.03,13.945Zm3.23,0,21.6,23.116,9.8-10.491-4.094-4.38-5.708,6.109-17.5-18.735ZM319.64,606.522l24.445-26.164,7.323,7.837-24.447,26.163Zm7.321,4.381,21.217-22.708-4.093-4.381-21.217,22.708ZM264.175,571.6l-17.124,18.329-7.321-7.837,24.445-26.164,22.831,24.436,11.8-12.625,13.031,13.946-7.323,7.837-5.708-6.11-4.474,4.789,9.8,10.491,17.124-18.328,7.323,7.837L304.13,614.358ZM304.13,610.9l21.218-22.708-4.094-4.381L304.13,602.141,291.1,588.195l7.7-8.245,5.708,6.11,4.093-4.381-9.8-10.491-11.8,12.626-22.831-24.437-21.217,22.709,4.093,4.38,17.124-18.325Zm-81.9-23.116,7.323-7.837,17.5,18.736,5.708-6.11,7.323,7.836-13.031,13.945Zm3.23,0,21.6,23.116,9.8-10.491-4.094-4.38-5.708,6.109-17.5-18.735Zm-65.635,18.735,24.445-26.164,7.324,7.837-24.445,26.163Zm7.324,4.381,21.215-22.708-4.094-4.381-21.215,22.708ZM104.357,571.6,87.233,589.924l-7.323-7.837,24.446-26.164,22.832,24.436,11.794-12.625,13.032,13.946-7.324,7.837-5.708-6.11-4.473,4.789,9.8,10.491,17.124-18.328,7.321,7.837-24.445,26.163ZM144.312,610.9l21.215-22.708-4.092-4.381-17.124,18.327-13.031-13.946,7.7-8.245,5.708,6.11,4.094-4.381-9.8-10.491-11.794,12.626-22.832-24.437L83.139,582.086l4.094,4.38,17.124-18.325ZM62.406,587.787l7.323-7.837,17.5,18.736,5.708-6.11,7.321,7.836L87.233,614.358Zm3.228,0,21.6,23.116,9.8-10.491-4.093-4.38-5.708,6.109-17.5-18.735ZM0,606.522l24.446-26.164,7.321,7.837L7.323,614.358Zm3.23,0L7.323,610.9l21.217-22.708-4.093-4.381Zm573.263-18.327,7.321-7.837,18.739,20.055-7.323,7.837Zm3.228,0,15.509,16.6,4.094-4.382-15.51-16.6Zm-163.048,0,7.321-7.837,18.738,20.055-7.323,7.837Zm3.228,0,15.509,16.6,4.095-4.382-15.51-16.6Zm-163.048,0,7.321-7.837,18.738,20.055-7.323,7.837Zm3.228,0,15.509,16.6,4.094-4.382-15.51-16.6Zm-163.048,0,7.323-7.837,18.737,20.055-7.321,7.837Zm3.228,0,15.51,16.6,4.093-4.382-15.509-16.6ZM673.527,594.3l24.445-26.163,7.323,7.837-24.446,26.163Zm3.228,0,4.093,4.383,21.217-22.708-4.093-4.383Zm-163.049,0,24.445-26.163,7.324,7.837-24.446,26.163Zm7.323,4.383,21.217-22.708-4.094-4.383L516.936,594.3ZM353.886,594.3l24.445-26.163,7.323,7.837-24.446,26.163Zm7.321,4.383,21.218-22.708-4.094-4.383L357.116,594.3ZM194.067,594.3l24.445-26.163,7.323,7.837-24.446,26.163Zm7.321,4.383,21.218-22.708-4.094-4.383L197.3,594.3ZM34.247,594.3l24.446-26.163,7.321,7.837L41.57,602.141Zm7.323,4.383,21.217-22.708L58.694,571.6,37.476,594.3ZM650.7,558.057l7.321-7.836,17.124,18.327,11.416-12.218,7.323,7.838L675.14,584.221Zm3.228,0,21.217,22.708,15.509-16.6-4.093-4.383L675.14,572l-17.124-18.327Zm-163.048,0,7.321-7.836,17.124,18.327,11.416-12.218,7.323,7.838-18.739,20.054Zm24.445,22.708,15.509-16.6-4.093-4.383L515.321,572,498.2,553.676l-4.093,4.381ZM331.055,558.057l7.323-7.836L355.5,568.548l11.414-12.218,7.324,7.838L355.5,584.221ZM355.5,580.765l15.509-16.6-4.094-4.383L355.5,572l-17.124-18.327-4.093,4.381ZM171.235,558.057l7.321-7.836,17.124,18.327L207.1,556.33l7.323,7.838L195.68,584.221Zm24.445,22.708,15.51-16.6-4.094-4.383L195.68,572l-17.124-18.327-4.092,4.381ZM11.416,558.057l7.323-7.836,17.124,18.327L47.278,556.33l7.321,7.838L35.862,584.221Zm24.446,22.708,15.509-16.6-4.093-4.383L35.862,572,18.738,553.676l-4.093,4.381ZM640.6,571.617l-5.39,6.114-7.354-7.871L640.5,556.615l19.147,19.435-7.327,7.971Zm11.7,8.944,4.092-4.452-15.863-16.1-9.425,9.871,4.061,4.346,5.382-6.1Zm-171.517-8.944-5.39,6.114-7.354-7.871,12.644-13.245,19.147,19.435-7.327,7.971Zm11.7,8.944,4.09-4.452-15.862-16.1-9.425,9.871,4.063,4.346,5.381-6.1ZM320.96,571.617l-5.39,6.114-7.354-7.871,12.646-13.245,19.146,19.435-7.327,7.971Zm11.7,8.944,4.089-4.452-15.863-16.1-9.423,9.871,4.06,4.346,5.382-6.1ZM161.14,571.617l-5.39,6.114-7.356-7.871,12.647-13.245,19.146,19.435-7.327,7.971Zm11.7,8.944,4.089-4.452-15.862-16.1-9.424,9.871,4.06,4.346,5.382-6.1Zm357.99-29.02,7.321-7.837,17.124,18.328,5.708-6.11,7.323,7.837-13.031,13.946Zm3.23,0,21.216,22.708,9.8-10.49-4.095-4.383-5.708,6.11L538.151,547.16Zm-163.049,0,7.321-7.837,17.124,18.328,5.708-6.11,7.323,7.837-13.03,13.946Zm3.229,0,21.216,22.708,9.8-10.49-4.094-4.383-5.708,6.11L378.331,547.16Zm-163.049,0,7.321-7.837,17.124,18.328,5.708-6.11,7.323,7.837-13.031,13.946Zm3.228,0,21.217,22.708,9.8-10.49-4.094-4.383-5.708,6.11L218.512,547.16Zm-163.048,0,7.323-7.837,17.124,18.328,5.708-6.11,7.321,7.837L75.817,577.705Zm3.228,0,21.218,22.708,9.8-10.49-4.093-4.383-5.708,6.11L58.694,547.16Zm516.6-17.88,7.254-8.538,35.506,38.644-7.316,7.829Zm35.444,34.48,4.1-4.388L578.52,528.678l-4.163,4.9Zm-195.262-34.48,7.253-8.538,35.5,38.644-7.315,7.829Zm35.443,34.48,4.1-4.388L418.7,528.678l-4.163,4.9Zm-195.263-34.48,7.253-8.538,35.5,38.644-7.315,7.829Zm35.443,34.48,4.1-4.388-32.225-35.075-4.163,4.9ZM91.744,533.661,99,525.123,134.5,563.767l-7.313,7.829Zm35.444,34.48,4.1-4.388L99.061,528.678l-4.163,4.9Zm477.749-22.714,18.833-20.047,7.321,7.834-11.429,12.233,3.916,4.336,5.477-6.065,7.776,7.8L623.57,565.481Zm18.65,16.609,9.95-10.474-4.4-4.416-5.556,6.152-7.118-7.881,11.4-12.2-4.1-4.384-15.6,16.607Zm-178.47-16.609,18.833-20.047,7.321,7.834-11.429,12.233,3.916,4.336,5.477-6.065,7.776,7.8-13.263,13.961Zm18.651,16.609,9.949-10.474-4.4-4.416L463.76,553.3l-7.118-7.881,11.4-12.2-4.1-4.384-15.6,16.607ZM285.3,545.427l18.835-20.047,7.32,7.834-11.429,12.233,3.916,4.336,5.479-6.065,7.775,7.8-13.263,13.961Zm18.651,16.609,9.949-10.474-4.4-4.416L303.94,553.3l-7.118-7.881,11.4-12.2-4.1-4.384-15.6,16.607ZM125.479,545.427l18.835-20.047,7.32,7.834L140.2,545.447l3.916,4.336,5.479-6.065,7.776,7.8-13.264,13.961Zm18.651,16.609,9.95-10.474-4.4-4.416-5.558,6.152L137,545.417l11.4-12.2-4.1-4.384-15.6,16.607Zm517.649-16.119,7.215-9.01L682.43,551.52l-7.25,8.279Zm13.322,10.4,4.164-4.755-10.156-11.044-4.2,5.244Zm-173.142-10.4,7.215-9.01L522.61,551.52l-7.252,8.279Zm13.322,10.4,4.164-4.755L509.29,540.517l-4.2,5.244Zm-173.142-10.4,7.215-9.01,13.437,14.613-7.251,8.279Zm13.322,10.4,4.164-4.755L349.47,540.517l-4.2,5.244Zm-173.141-10.4,7.215-9.01,13.438,14.613L195.72,559.8Zm13.321,10.4,4.166-4.755-10.156-11.044-4.2,5.244ZM22.5,545.918l7.216-9.01L43.153,551.52,35.9,559.8Zm13.323,10.4,4.163-4.755L29.831,540.517l-4.2,5.244Zm529.254-4.775L572.4,543.7l7.323,7.837-7.323,7.836Zm3.228,0,4.093,4.381,4.095-4.381L572.4,547.16Zm-163.048,0,7.321-7.837,7.323,7.837-7.323,7.836Zm3.228,0,4.093,4.381,4.094-4.381-4.094-4.381Zm-163.048,0,7.321-7.837,7.323,7.837-7.323,7.836Zm3.228,0,4.093,4.381,4.094-4.381-4.094-4.381Zm-163.048,0,7.323-7.837,7.321,7.837-7.321,7.836Zm3.228,0,4.094,4.381,4.093-4.381-4.093-4.381Zm447.691-18.327,7.321-7.837L555.275,537.6l5.708-6.11,7.323,7.837-13.031,13.946Zm18.737,16.6,9.8-10.491-4.095-4.381-5.708,6.11-11.416-12.22-4.092,4.383Zm-178.557-16.6,7.321-7.837L395.455,537.6l5.708-6.11,7.323,7.837-13.03,13.946Zm18.737,16.6,9.8-10.491-4.094-4.381-5.708,6.11-11.416-12.22-4.093,4.383ZM216.9,533.214l7.321-7.837L235.636,537.6l5.708-6.11,7.323,7.837-13.031,13.946Zm18.737,16.6,9.8-10.491-4.094-4.381-5.708,6.11-11.416-12.22-4.093,4.383Zm-178.557-16.6,7.323-7.837L75.817,537.6l5.708-6.11,7.321,7.837L75.817,553.268Zm18.738,16.6,9.8-10.491-4.093-4.381-5.708,6.11L64.4,528.831l-4.094,4.383Zm557.574-10.473,5.547-6.143-5.365-6.151L641.3,519.3l11.377,12.189,5.3-5.688,7.329,7.616L646.5,553.259Zm13.116,10.483,15.538-16.4-4.04-4.2-5.327,5.717L641.248,522.7l-4.449,4.467,5.289,6.065L636.6,539.3ZM473.571,539.341l5.547-6.143-5.365-6.151,7.726-7.753,11.378,12.189,5.3-5.688,7.327,7.616-18.8,19.847Zm13.116,10.483,15.538-16.4-4.04-4.2-5.327,5.717L481.428,522.7l-4.45,4.467,5.29,6.065L476.78,539.3ZM313.752,539.341,319.3,533.2l-5.365-6.151,7.726-7.753,11.378,12.189,5.3-5.688,7.328,7.616-18.806,19.847Zm13.116,10.483,15.538-16.4-4.039-4.2-5.328,5.717L321.608,522.7l-4.45,4.467,5.29,6.065L316.96,539.3ZM153.932,539.341l5.547-6.143-5.365-6.151,7.726-7.753,11.377,12.189,5.3-5.688,7.328,7.616-18.806,19.847Zm13.116,10.483,15.538-16.4-4.039-4.2-5.327,5.717L161.789,522.7l-4.45,4.467,5.29,6.065-5.488,6.076Zm506.1-17.017,7.321-7.837,13.412,14.353-7.323,7.837Zm13.41,10.9,4.093-4.381-10.182-10.9-4.093,4.381Zm-173.23-10.9,7.321-7.837,13.411,14.353-7.323,7.837Zm13.41,10.9,4.093-4.381-10.182-10.9-4.093,4.381Zm-173.23-10.9,7.323-7.837,13.41,14.353-7.324,7.837Zm13.409,10.9,4.094-4.381-10.181-10.9-4.095,4.381Zm-173.23-10.9,7.324-7.837,13.409,14.353L207.1,547.16Zm13.41,10.9,4.094-4.381-10.181-10.9-4.094,4.381Zm-173.23-10.9,7.323-7.837L54.6,539.323l-7.321,7.837Zm13.412,10.9,4.093-4.381-10.182-10.9L37.1,532.807Zm545.957-10.082,19.118-20.462L619.676,521l-19.119,20.463Zm7.322,4.38L616.448,521l-4.094-4.381-15.89,17.007Zm-167.141-4.38,19.118-20.462L459.857,521l-19.119,20.463Zm7.322,4.38L456.628,521l-4.094-4.381-15.89,17.007ZM273.6,533.621l19.118-20.462L300.037,521l-19.118,20.463Zm7.323,4.38L296.809,521l-4.094-4.381-15.89,17.007Zm-167.142-4.38L132.9,513.16,140.218,521,121.1,541.459ZM121.1,538,136.989,521l-4.093-4.381-15.891,17.007Zm536.917-21.387-5.708,6.109-7.321-7.836,30.153-32.274,18.752,20.071-7.343,7.595-11.4-12-9.821,10.512,4.106,4.542,5.695-6.3,7.336,7.851-13.031,13.944Zm11.416,8.762,9.8-10.49-4.081-4.368-5.721,6.329-7.31-8.084,13.011-13.925,11.429,12.028,4.073-4.212-15.5-16.584-26.925,28.817,4.093,4.381,5.708-6.108ZM565.077,502.669l7.321-7.838,17.124,18.329,11.416-12.219,7.323,7.836-18.739,20.054Zm3.228,0,21.217,22.708,15.51-16.6-4.094-4.381-11.416,12.219L572.4,498.287Zm-7.323,20.054-5.708,6.108L547.953,521l13.029-13.946L574.013,521l-7.323,7.836Zm5.708,2.654L570.785,521l-9.8-10.491L551.182,521l4.093,4.381,5.708-6.109ZM498.2,516.614l-5.708,6.109-7.321-7.836,30.153-32.274,18.752,20.071-7.342,7.595-11.4-12-9.821,10.512,4.106,4.542,5.693-6.3,7.337,7.851-13.031,13.944Zm11.416,8.762,9.8-10.49-4.08-4.368-5.721,6.329-7.309-8.084,13.011-13.925,11.429,12.028,4.073-4.212-15.5-16.584L488.4,514.887l4.093,4.381,5.708-6.108ZM405.257,502.669l7.321-7.838L429.7,513.16l11.416-12.219,7.323,7.836L429.7,528.831Zm3.228,0L429.7,525.377l15.51-16.6-4.094-4.381L429.7,516.614l-17.124-18.327Zm-7.323,20.054-5.708,6.108L388.134,521l13.029-13.946L414.193,521l-7.323,7.836Zm5.708,2.654L410.965,521l-9.8-10.491L391.362,521l4.093,4.381,5.708-6.109Zm-68.493-8.762-5.708,6.109-7.321-7.836L355.5,482.613l18.752,20.071-7.343,7.595-11.4-12-9.821,10.512,4.106,4.542,5.693-6.3,7.337,7.851-13.031,13.944Zm11.416,8.762,9.8-10.49-4.08-4.368-5.721,6.329-7.309-8.084,13.011-13.925,11.429,12.028L371,502.654,355.5,486.07l-26.925,28.817,4.093,4.381,5.708-6.108ZM245.438,502.669l7.321-7.838,17.124,18.329L281.3,500.941l7.323,7.836-18.739,20.054Zm3.228,0,21.217,22.708,15.51-16.6L281.3,504.4l-11.416,12.219-17.124-18.327Zm-7.323,20.054-5.708,6.108L228.314,521l13.029-13.946L254.374,521l-7.323,7.836Zm5.708,2.654L251.146,521l-9.8-10.491L231.542,521l4.093,4.381,5.708-6.109Zm-68.495-8.762-5.705,6.109-7.324-7.836,30.153-32.274,18.753,20.071-7.342,7.595-11.4-12-9.821,10.512,4.1,4.542,5.695-6.3L203,514.887l-13.031,13.944Zm11.416,8.762,9.8-10.49-4.079-4.368-5.724,6.329-7.308-8.084,13.011-13.925L207.1,506.866l4.073-4.212-15.5-16.584-26.923,28.817,4.094,4.381,5.705-6.108ZM85.618,502.669l7.323-7.838,17.124,18.329,11.416-12.219,7.321,7.836-18.737,20.054Zm3.228,0,21.218,22.708,15.509-16.6L121.48,504.4l-11.416,12.219L92.941,498.287Zm-7.321,20.054-5.708,6.108L68.495,521,81.525,507.05,94.555,521l-7.321,7.836Zm5.708,2.654L91.326,521l-9.8-10.491L71.723,521l4.094,4.381,5.708-6.109Zm-68.495-8.762-5.708,6.109-7.323-7.836,30.154-32.274,18.752,20.071-7.342,7.595-11.4-12-9.821,10.512,4.106,4.542,5.695-6.3,7.335,7.851L30.154,528.831Zm11.416,8.762,9.8-10.49-4.08-4.368-5.721,6.329-7.31-8.084,13.011-13.925,11.429,12.028,4.072-4.212L35.862,486.07,8.938,514.887l4.093,4.381,5.708-6.108ZM525.5,520.589l12.648-13.54,7.324,7.837-12.651,13.538Zm3.228,0,4.093,4.38,9.421-10.082-4.094-4.383Zm-163.048,0,12.648-13.54,7.323,7.837L373,528.425Zm3.228,0,4.093,4.38,9.421-10.082-4.094-4.383Zm-163.048,0,12.648-13.54,7.323,7.837-12.65,13.538Zm3.228,0,4.093,4.38,9.421-10.082-4.094-4.383Zm-163.048,0,12.65-13.54,7.321,7.837-12.65,13.538Zm3.228,0,4.093,4.38,9.421-10.082L58.694,510.5ZM599.324,490.45l7.321-7.837,22.832,24.437,11.416-12.219,7.323,7.838-18.738,20.054Zm3.228,0,26.925,28.818,15.51-16.6-4.095-4.381L629.477,510.5,606.646,486.07Zm-163.048,0,7.321-7.837,22.832,24.437,11.416-12.219,7.323,7.838-18.739,20.054Zm3.228,0,26.925,28.818,15.51-16.6-4.094-4.381L469.658,510.5,446.826,486.07Zm-163.048,0,7.321-7.837,22.832,24.437,11.416-12.219,7.323,7.838-18.738,20.054Zm3.228,0,26.925,28.818,15.51-16.6-4.094-4.381L309.838,510.5,287.006,486.07Zm-163.048,0,7.323-7.837L150.02,507.05l11.416-12.219,7.321,7.838L150.02,522.723Zm3.228,0,26.926,28.818,15.507-16.6-4.092-4.381L150.02,510.5,127.188,486.07Zm419.151,12.219,18.737-20.056,7.323,7.837L549.567,510.5Zm3.23,0,4.092,4.381,15.51-16.6-4.095-4.38Zm-163.049,0,18.737-20.056,7.323,7.837L389.747,510.5Zm3.228,0,4.093,4.381,15.51-16.6-4.094-4.38Zm-163.048,0,18.737-20.056,7.323,7.837L229.928,510.5Zm3.228,0,4.093,4.381,15.51-16.6-4.094-4.38Zm-163.048,0,18.738-20.056,7.321,7.837L70.109,510.5Zm3.228,0,4.094,4.381,15.509-16.6-4.093-4.38Zm516.186-6.11,7.321-7.836,7.323,7.836-7.323,7.837Zm3.228,0,4.093,4.383,4.094-4.383-4.094-4.38Zm-163.048,0,7.321-7.836,7.323,7.836L429.7,504.4Zm3.228,0,4.093,4.383,4.095-4.383-4.095-4.38Zm-163.048,0,7.321-7.836,7.323,7.836-7.323,7.837Zm3.228,0,4.093,4.383,4.094-4.383-4.094-4.38Zm-163.048,0,7.323-7.836,7.321,7.836-7.321,7.837Zm3.228,0,4.094,4.383,4.093-4.383-4.093-4.38ZM640.893,486.07l-11.416,12.217-7.321-7.837,11.416-12.217-4.095-4.383-11.416,12.22-7.321-7.837,18.737-20.054,30.154,32.271-7.323,7.837Zm11.416,8.761,4.094-4.381-26.926-28.817-15.509,16.6,4.093,4.38L629.477,470.4l7.323,7.837L625.384,490.45l4.093,4.381,11.416-12.218ZM481.073,486.07l-11.416,12.217-7.321-7.837,11.416-12.217-4.094-4.383-11.416,12.22-7.321-7.837,18.737-20.054,30.154,32.271-7.323,7.837Zm11.416,8.761,4.094-4.381-26.926-28.817-15.509,16.6,4.093,4.38L469.658,470.4l7.323,7.837L465.565,490.45l4.093,4.381,11.416-12.218ZM321.254,486.07l-11.416,12.217-7.322-7.837,11.416-12.217-4.094-4.383-11.416,12.22-7.321-7.837,18.737-20.054,30.154,32.271-7.323,7.837Zm11.416,8.761,4.093-4.381-26.924-28.817-15.509,16.6,4.093,4.38L309.838,470.4l7.323,7.837L305.745,490.45l4.093,4.381,11.416-12.218ZM161.436,486.07,150.02,498.287,142.7,490.45l11.414-12.217-4.092-4.383L138.6,486.07l-7.323-7.837,18.738-20.054,30.153,32.271-7.321,7.837Zm11.416,8.761,4.092-4.381L150.02,461.633l-15.51,16.6,4.094,4.38L150.02,470.4l7.321,7.837L145.925,490.45l4.094,4.381,11.416-12.218Zm346.562-16.6,13.029-13.946,7.324,7.837-5.708,6.109,11.035,11.81-7.323,7.837Zm3.23,0,15.128,16.191,4.094-4.381-11.036-11.81,5.708-6.109-4.094-4.383Zm-163.049,0,13.029-13.946,7.323,7.837-5.707,6.109,11.035,11.81-7.321,7.837Zm3.23,0,15.129,16.191,4.092-4.381-11.035-11.81,5.708-6.109-4.094-4.383Zm-163.049,0L212.8,464.287l7.323,7.837-5.708,6.109,11.036,11.81-7.323,7.837Zm3.228,0,15.129,16.191,4.093-4.381-11.035-11.81,5.708-6.109-4.094-4.383Zm-163.048,0,13.031-13.946,7.321,7.837L54.6,478.233l11.035,11.81-7.321,7.837Zm3.228,0,15.129,16.191,4.093-4.381-11.035-11.81,5.708-6.109-4.093-4.383Zm521.893,0L572.4,470.4l13.031,13.946-7.323,7.837Zm3.228,0,9.8,10.49,4.095-4.381-9.8-10.491Zm-163.048,0,7.321-7.837,13.031,13.946-7.323,7.837Zm3.228,0,9.8,10.49,4.095-4.381-9.8-10.491Zm-163.048,0,7.321-7.837,13.031,13.946-7.323,7.837Zm3.228,0,9.8,10.49,4.094-4.381-9.8-10.491Zm-163.048,0,7.323-7.837,13.029,13.946-7.321,7.837Zm3.228,0,9.8,10.49,4.093-4.381-9.8-10.491Zm567.556,0,24.064-25.758,7.323,7.837L663.725,486.07Zm3.228,0,4.093,4.38,20.837-22.3-4.094-4.381Zm-83.139-12.22,7.321-7.834L595.23,470.4l22.831-24.437,7.323,7.837L595.23,486.07Zm3.228,0,15.509,16.6L622.156,453.8l-4.094-4.381L595.23,473.851l-11.416-12.217Zm-37.476,12.22,5.708-6.109-5.708-6.111,7.322-7.834,13.03,13.946-13.03,13.946Zm3.23-12.22,5.707,6.111-5.707,6.109,4.092,4.38,9.8-10.488-9.8-10.491Zm-48.891,12.22,24.064-25.758,7.323,7.837L503.9,486.07Zm7.321,4.38,20.837-22.3-4.094-4.381-20.836,22.3Zm-87.232-16.6,7.321-7.834L435.41,470.4l22.832-24.437,7.323,7.837L435.41,486.07Zm3.228,0,15.509,16.6L462.336,453.8l-4.094-4.381L435.41,473.851l-11.416-12.217Zm-37.476,12.22,5.708-6.109-5.708-6.111,7.321-7.834,13.031,13.946L389.747,486.07Zm3.228-12.22,5.708,6.111-5.708,6.109,4.093,4.38,9.8-10.488-9.8-10.491Zm-48.891,12.22,24.067-25.758,7.321,7.837L344.085,486.07Zm7.323,4.38,20.837-22.3-4.093-4.381-20.837,22.3Zm-87.232-16.6,7.321-7.834L275.591,470.4l22.832-24.437,7.323,7.837L275.591,486.07Zm3.228,0,15.509,16.6L302.517,453.8l-4.094-4.381-22.832,24.436-11.416-12.217Zm-37.476,12.22,5.708-6.109-5.708-6.111,7.321-7.834,13.031,13.946L229.928,486.07Zm3.228-12.22,5.708,6.111-5.708,6.109,4.093,4.38,9.8-10.488-9.8-10.491Zm-48.891,12.22,24.067-25.758,7.321,7.837L184.264,486.07Zm7.321,4.38,20.837-22.3-4.092-4.381-20.837,22.3Zm-87.23-16.6,7.323-7.834L115.773,470.4,138.6,445.959l7.321,7.837L115.773,486.07Zm3.228,0,15.51,16.6L142.7,453.8l-4.093-4.381-22.832,24.436-11.416-12.217Zm-37.476,12.22,5.708-6.109-5.708-6.111,7.323-7.834,13.029,13.946L70.109,486.07Zm3.228-12.22,5.708,6.111-5.708,6.109,4.094,4.38,9.8-10.488-9.8-10.491Zm-48.891,12.22,24.065-25.758,7.323,7.837L24.446,486.07Zm7.323,4.38,20.836-22.3-4.093-4.381-20.837,22.3Zm603.417-34.925,7.321-7.837,24.446,26.163-7.323,7.837Zm3.228,0L652.309,470.4l4.094-4.383-21.218-22.707Zm-163.048,0,7.322-7.837,24.446,26.163-7.323,7.837Zm3.228,0L492.489,470.4l4.094-4.383-21.218-22.707Zm-163.048,0,7.321-7.837,24.446,26.163-7.323,7.837Zm3.228,0L332.67,470.4l4.093-4.383-21.217-22.707Zm-163.048,0,7.323-7.837,24.445,26.163-7.321,7.837Zm3.228,0L172.851,470.4l4.092-4.383-21.215-22.707ZM559.369,459.9l24.445-26.163L602.553,453.8l-7.323,7.837-11.416-12.218L566.69,467.742Zm3.228,0,4.093,4.383,17.124-18.328,11.416,12.22,4.094-4.382-15.51-16.6Zm-163.048,0,24.445-26.163L442.733,453.8l-7.323,7.837-11.416-12.218-17.124,18.327Zm3.228,0,4.093,4.383,17.124-18.328,11.416,12.22L439.5,453.8l-15.51-16.6Zm-163.048,0,24.445-26.163L282.913,453.8l-7.323,7.837-11.416-12.218-17.124,18.327Zm3.228,0,4.093,4.383,17.124-18.328,11.416,12.22,4.094-4.382-15.51-16.6Zm-163.048,0,24.446-26.163L123.094,453.8l-7.321,7.837-11.416-12.218L87.233,467.742Zm3.228,0,4.094,4.383,17.124-18.328,11.416,12.22,4.093-4.382-15.509-16.6Zm567.547-12.227,18.728-19.6,7.383,7.376-5.75,5.949,5.695,6.3-13.017,13.932Zm3.247.018,9.792,10.483,9.814-10.505-5.721-6.327,5.664-5.862-4.031-4.027Zm-123.1,6.1,18.737-20.054,13.03,13.946-7.323,7.836-5.708-6.109-11.416,12.218Zm3.23,0,4.092,4.382,11.416-12.22,5.708,6.109,4.094-4.38-9.8-10.49Zm-43.193-6.118,18.728-19.6,7.383,7.376-5.75,5.949,5.695,6.3L503.9,461.633Zm13.038,10.5,9.814-10.505L508,441.346l5.666-5.862-4.032-4.027L494.112,447.7ZM371.01,453.8l18.737-20.054,13.031,13.946-7.323,7.836-5.708-6.109-11.416,12.218Zm3.229,0,4.092,4.382,11.416-12.22,5.708,6.109,4.094-4.38-9.8-10.49Zm-43.194-6.118,18.729-19.6,7.383,7.376-5.75,5.949,5.695,6.3-13.017,13.932Zm13.04,10.5,9.814-10.505-5.721-6.327,5.666-5.862-4.033-4.027L334.294,447.7ZM211.19,453.8l18.737-20.054,13.031,13.946-7.323,7.836-5.708-6.109-11.416,12.218Zm3.228,0,4.093,4.382,11.416-12.22,5.708,6.109,4.094-4.38-9.8-10.49Zm-43.193-6.118,18.729-19.6,7.383,7.376-5.75,5.949,5.695,6.3-13.019,13.932Zm13.038,10.5,9.815-10.505-5.721-6.327,5.666-5.862-4.033-4.027L174.474,447.7ZM51.371,453.8l18.738-20.054,13.029,13.946-7.321,7.836-5.708-6.109L58.694,461.633Zm3.228,0,4.094,4.382,11.416-12.22,5.708,6.109,4.093-4.38-9.8-10.49Zm-43.193-6.118,18.729-19.6,7.383,7.376-5.75,5.949,5.695,6.3L24.446,461.633Zm13.04,10.5,9.814-10.505-5.721-6.327,5.666-5.862-4.032-4.027L14.655,447.7Zm574.878-16.6,7.321-7.836,7.323,7.836-7.323,7.837Zm3.228,0,4.093,4.381,4.094-4.381-4.094-4.38Zm-83.139,0,18.737-20.054,7.324,7.837-18.738,20.054Zm3.23,0,4.093,4.381,15.509-16.6-4.094-4.383Zm-83.139,0,7.321-7.836,7.323,7.836-7.323,7.837Zm3.228,0,4.093,4.381,4.094-4.381-4.094-4.38Zm-83.139,0,18.737-20.054,7.323,7.837-18.738,20.054Zm3.23,0,4.092,4.381,15.51-16.6-4.094-4.383Zm-83.139,0,7.321-7.836,7.323,7.836-7.323,7.837Zm3.228,0,4.093,4.381,4.094-4.381-4.094-4.38Zm-83.139,0,18.737-20.054,7.323,7.837L207.1,449.415Zm3.228,0,4.093,4.381,15.51-16.6-4.094-4.383Zm-83.137,0,7.323-7.836,7.321,7.836-7.321,7.837Zm3.228,0,4.094,4.381,4.093-4.381-4.093-4.38Zm-83.139,0,18.738-20.054,7.321,7.837L47.278,449.415Zm3.228,0,4.094,4.381,15.509-16.6-4.093-4.383Zm596.1-6.109,24.445-26.163,7.322,7.834L646.6,443.306Zm7.322,4.381,21.218-22.71-4.094-4.38-21.217,22.708Zm-62.787-39.308L566.69,418.87l-7.322-7.837,24.445-26.163,22.832,24.437,11.8-12.627,13.031,13.946-7.322,7.837-5.708-6.109-4.474,4.787,9.8,10.491,17.124-18.326,7.323,7.834-24.446,26.166Zm39.955,39.308,21.218-22.71-4.095-4.38-17.124,18.326L610.74,417.141l7.7-8.242,5.708,6.109,4.094-4.383-9.8-10.49-11.8,12.626-22.832-24.436L562.6,411.032l4.093,4.382,17.124-18.328Zm-81.9-23.117,7.321-7.835,17.5,18.733,5.708-6.109,7.323,7.837L566.69,443.306Zm3.228,0,21.6,23.117,9.8-10.49-4.095-4.383-5.708,6.109-17.5-18.733ZM479.46,435.469,503.9,409.306l7.323,7.834-24.446,26.166Zm7.321,4.381L508,417.141l-4.093-4.38-21.217,22.708Zm-62.787-39.308L406.871,418.87l-7.322-7.837,24.445-26.163,22.831,24.437,11.8-12.627,13.03,13.946-7.323,7.837-5.708-6.109-4.474,4.787,9.8,10.491,17.124-18.326,7.323,7.834L463.95,443.306ZM463.95,439.85l21.218-22.71-4.094-4.38L463.95,431.087l-13.029-13.946,7.7-8.242,5.708,6.109,4.093-4.383-9.8-10.49-11.8,12.626-22.831-24.436-21.217,22.707,4.093,4.382,17.124-18.328Zm-81.9-23.117,7.321-7.835,17.5,18.733,5.708-6.109,7.323,7.837-13.03,13.946Zm3.23,0,21.6,23.117,9.8-10.49-4.094-4.383-5.708,6.109-17.5-18.733ZM319.64,435.469l24.445-26.163,7.323,7.834-24.447,26.166Zm7.321,4.381,21.217-22.71-4.093-4.38-21.217,22.708Zm-62.787-39.308L247.051,418.87l-7.321-7.837,24.445-26.163,22.831,24.437,11.8-12.627,13.031,13.946-7.323,7.837-5.708-6.109-4.474,4.787,9.8,10.491,17.124-18.326,7.323,7.834L304.13,443.306ZM304.13,439.85l21.218-22.71-4.094-4.38L304.13,431.087,291.1,417.141l7.7-8.242,5.708,6.109,4.093-4.383-9.8-10.49-11.8,12.626-22.831-24.436-21.217,22.707,4.093,4.382,17.124-18.328Zm-81.9-23.117,7.323-7.835,17.5,18.733,5.708-6.109,7.323,7.837-13.031,13.946Zm3.23,0,21.6,23.117,9.8-10.49-4.094-4.383-5.708,6.109-17.5-18.733Zm-65.635,18.736,24.445-26.163,7.324,7.834-24.445,26.166Zm7.324,4.381,21.215-22.71-4.094-4.38-21.215,22.708Zm-62.787-39.308L87.233,418.87l-7.323-7.837,24.446-26.163,22.832,24.437,11.794-12.627,13.032,13.946-7.324,7.837-5.708-6.109-4.473,4.787,9.8,10.491,17.124-18.326,7.321,7.834-24.445,26.166Zm39.955,39.308,21.215-22.71-4.092-4.38-17.124,18.326-13.031-13.946,7.7-8.242,5.708,6.109,4.094-4.383-9.8-10.49-11.794,12.626-22.832-24.436L83.139,411.032l4.094,4.382,17.124-18.328ZM62.406,416.733l7.323-7.835,17.5,18.733,5.708-6.109,7.321,7.837L87.233,443.306Zm3.228,0,21.6,23.117,9.8-10.49-4.093-4.383-5.708,6.109-17.5-18.733ZM0,435.469l24.446-26.163,7.321,7.834L7.323,443.306Zm3.23,0,4.093,4.381,21.217-22.71-4.093-4.38Zm573.263-18.328,7.321-7.834,18.739,20.054L595.23,437.2Zm3.228,0,15.509,16.6,4.094-4.381-15.51-16.6Zm-163.048,0,7.321-7.834,18.738,20.054L435.41,437.2Zm3.228,0,15.509,16.6,4.095-4.381-15.51-16.6Zm-163.048,0,7.321-7.834,18.738,20.054-7.323,7.837Zm3.228,0,15.509,16.6,4.094-4.381-15.51-16.6Zm-163.048,0,7.323-7.834,18.737,20.054-7.321,7.837Zm3.228,0,15.51,16.6,4.093-4.381-15.509-16.6Zm573.265,6.111,24.445-26.166,7.323,7.837-24.446,26.163Zm3.228,0,4.093,4.38,21.217-22.708-4.093-4.381Zm-163.049,0,24.445-26.166,7.324,7.837-24.446,26.163Zm7.323,4.38,21.217-22.708-4.094-4.381-21.215,22.71Zm-167.142-4.38,24.445-26.166,7.323,7.837-24.446,26.163Zm7.321,4.38,21.218-22.708-4.094-4.381-21.215,22.71Zm-167.141-4.38,24.445-26.166,7.323,7.837-24.446,26.163Zm7.321,4.38,21.218-22.708-4.094-4.381L197.3,423.252Zm-167.141-4.38,24.446-26.166,7.321,7.837L41.57,431.087Zm7.323,4.38,21.217-22.708-4.093-4.381-21.218,22.71ZM650.7,387l7.321-7.837,17.124,18.327,11.416-12.217,7.323,7.836L675.14,413.169Zm3.228,0,21.217,22.71,15.509-16.6-4.093-4.381L675.14,400.95l-17.124-18.328Zm-163.048,0,7.321-7.837,17.124,18.327,11.416-12.217,7.323,7.836-18.739,20.056Zm24.445,22.71,15.509-16.6-4.093-4.381L515.321,400.95,498.2,382.622,494.1,387ZM331.055,387l7.323-7.837L355.5,397.494l11.414-12.217,7.324,7.836L355.5,413.169Zm24.446,22.71,15.509-16.6-4.094-4.381L355.5,400.95l-17.124-18.328L334.284,387ZM171.235,387l7.321-7.837,17.124,18.327L207.1,385.277l7.323,7.836L195.68,413.169Zm24.445,22.71,15.51-16.6-4.094-4.381L195.68,400.95l-17.124-18.328L174.465,387ZM11.416,387l7.323-7.837,17.124,18.327,11.416-12.217,7.321,7.836L35.862,413.169Zm24.446,22.71,15.509-16.6-4.093-4.381L35.862,400.95,18.738,382.622,14.645,387Zm604.737-9.15-5.39,6.113-7.354-7.871L640.5,385.563,659.646,405l-7.327,7.971Zm11.7,8.944,4.092-4.452-15.863-16.1-9.425,9.869,4.061,4.347,5.382-6.1Zm-171.517-8.944-5.39,6.113-7.354-7.871,12.644-13.242L499.826,405l-7.327,7.971Zm11.7,8.944,4.09-4.452-15.862-16.1-9.425,9.869,4.063,4.347,5.381-6.1ZM320.96,400.564l-5.39,6.113-7.354-7.871,12.646-13.242L340.007,405l-7.327,7.971Zm11.7,8.944,4.089-4.452-15.863-16.1-9.423,9.869,4.06,4.347,5.382-6.1ZM161.14,400.564l-5.39,6.113-7.356-7.871,12.647-13.242L180.187,405l-7.327,7.971Zm11.7,8.944,4.089-4.452-15.862-16.1-9.424,9.869,4.06,4.347,5.382-6.1Zm357.99-29.02,7.321-7.837,17.124,18.327,5.708-6.109,7.323,7.836-13.031,13.946Zm3.23,0L555.275,403.2l9.8-10.49-4.095-4.38-5.708,6.109-17.124-18.328Zm-163.049,0,7.321-7.837,17.124,18.327,5.708-6.109,7.323,7.836-13.03,13.946Zm3.229,0L395.455,403.2l9.8-10.49-4.094-4.38-5.708,6.109-17.124-18.328Zm-163.049,0,7.321-7.837,17.124,18.327,5.708-6.109,7.323,7.836-13.031,13.946Zm3.228,0L235.636,403.2l9.8-10.49-4.094-4.38-5.708,6.109-17.124-18.328Zm-163.048,0,7.323-7.837,17.124,18.327,5.708-6.109,7.321,7.836L75.817,406.651Zm3.228,0L75.817,403.2l9.8-10.49-4.093-4.38-5.708,6.109L58.694,376.106Zm516.6-17.88,7.254-8.54,35.506,38.645-7.316,7.829Zm35.444,34.478,4.1-4.388L578.52,357.626l-4.163,4.9ZM411.383,362.608l7.253-8.54,35.5,38.645-7.315,7.829Zm35.443,34.478,4.1-4.388L418.7,357.626l-4.163,4.9ZM251.564,362.608l7.253-8.54,35.5,38.645-7.315,7.829Zm35.443,34.478,4.1-4.388-32.225-35.072-4.163,4.9ZM91.744,362.608,99,354.069,134.5,392.714l-7.313,7.829Zm35.444,34.478,4.1-4.388L99.061,357.626l-4.163,4.9Zm477.749-22.712,18.833-20.047,7.321,7.833-11.429,12.234,3.916,4.336,5.477-6.066,7.776,7.8L623.57,394.43Zm18.65,16.608,9.95-10.474-4.4-4.415-5.556,6.154-7.118-7.882,11.4-12.2-4.1-4.384-15.6,16.608Zm-178.47-16.608,18.833-20.047,7.321,7.833-11.429,12.234,3.916,4.336,5.477-6.066,7.776,7.8L463.751,394.43Zm18.651,16.608,9.949-10.474-4.4-4.415-5.556,6.154-7.118-7.882,11.4-12.2-4.1-4.384-15.6,16.608ZM285.3,374.374l18.835-20.047,7.32,7.833-11.429,12.234,3.916,4.336,5.479-6.066,7.775,7.8L303.931,394.43Zm18.651,16.608,9.949-10.474-4.4-4.415-5.558,6.154-7.118-7.882,11.4-12.2-4.1-4.384-15.6,16.608ZM125.479,374.374l18.835-20.047,7.32,7.833L140.2,374.394l3.916,4.336,5.479-6.066,7.776,7.8L144.112,394.43Zm18.651,16.608,9.95-10.474-4.4-4.415-5.558,6.154L137,374.364l11.4-12.2-4.1-4.384-15.6,16.608Zm517.649-16.119,7.215-9.009,13.437,14.612-7.25,8.28Zm13.322,10.4,4.164-4.755-10.156-11.045-4.2,5.246Zm-173.142-10.4,7.215-9.009,13.437,14.612-7.252,8.28Zm13.322,10.4,4.164-4.755L509.29,369.463l-4.2,5.246Zm-173.142-10.4,7.215-9.009,13.437,14.612-7.251,8.28Zm13.322,10.4,4.164-4.755L349.47,369.463l-4.2,5.246Zm-173.141-10.4,7.215-9.009,13.438,14.612-7.253,8.28Zm13.321,10.4,4.166-4.755-10.156-11.045-4.2,5.246ZM22.5,374.863l7.216-9.009,13.438,14.612-7.252,8.28Zm13.323,10.4,4.163-4.755L29.831,369.463l-4.2,5.246Zm529.254-4.774,7.321-7.837,7.323,7.837-7.323,7.837Zm3.228,0,4.093,4.381,4.095-4.381-4.095-4.382Zm-163.048,0,7.321-7.837,7.323,7.837-7.323,7.837Zm3.228,0,4.093,4.381,4.094-4.381-4.094-4.382Zm-163.048,0,7.321-7.837,7.323,7.837-7.323,7.837Zm3.228,0,4.093,4.381,4.094-4.381-4.094-4.382Zm-163.048,0,7.323-7.837,7.321,7.837-7.321,7.837Zm3.228,0,4.094,4.381,4.093-4.381-4.093-4.382ZM536.537,362.16l7.321-7.837,11.416,12.22,5.708-6.109,7.323,7.835-13.031,13.946Zm18.737,16.6,9.8-10.491-4.095-4.38L555.275,370,543.859,357.78l-4.092,4.38Zm-178.557-16.6,7.321-7.837,11.416,12.22,5.708-6.109,7.323,7.835-13.03,13.946Zm18.737,16.6,9.8-10.491-4.094-4.38L395.455,370,384.039,357.78l-4.093,4.38ZM216.9,362.16l7.321-7.837,11.416,12.22,5.708-6.109,7.323,7.835-13.031,13.946Zm18.737,16.6,9.8-10.491-4.094-4.38L235.636,370,224.22,357.78l-4.093,4.38ZM57.079,362.16l7.323-7.837,11.416,12.22,5.708-6.109,7.321,7.835L75.817,382.214Zm18.738,16.6,9.8-10.491-4.093-4.38L75.817,370,64.4,357.78l-4.094,4.38Zm557.574-10.471,5.547-6.142-5.365-6.152,7.726-7.753,11.377,12.192,5.3-5.69,7.329,7.614L646.5,382.207Zm13.116,10.481,15.538-16.4-4.04-4.2-5.327,5.715-11.43-12.247-4.449,4.466,5.289,6.066-5.489,6.076ZM473.571,368.288l5.547-6.142-5.365-6.152,7.726-7.753,11.378,12.192,5.3-5.69,7.327,7.614-18.8,19.85Zm13.116,10.481,15.538-16.4-4.04-4.2-5.327,5.715-11.43-12.247-4.45,4.466,5.29,6.066-5.488,6.076ZM313.752,368.288l5.547-6.142-5.365-6.152,7.726-7.753,11.378,12.192,5.3-5.69,7.328,7.614-18.806,19.85Zm13.116,10.481,15.538-16.4-4.039-4.2-5.328,5.715-11.43-12.247-4.45,4.466,5.29,6.066-5.488,6.076ZM153.932,368.288l5.547-6.142-5.365-6.152,7.726-7.753,11.377,12.192,5.3-5.69,7.328,7.614-18.806,19.85Zm13.116,10.481,15.538-16.4-4.039-4.2-5.327,5.715-11.432-12.247-4.45,4.466,5.29,6.066-5.488,6.076Zm506.1-17.017,7.321-7.834,13.412,14.351-7.323,7.837Zm13.41,10.9,4.093-4.383-10.182-10.9-4.093,4.38Zm-173.23-10.9,7.321-7.834,13.411,14.351-7.323,7.837Zm13.41,10.9,4.093-4.383-10.182-10.9-4.093,4.38Zm-173.23-10.9,7.323-7.834,13.41,14.351-7.324,7.837Zm13.409,10.9,4.094-4.383-10.181-10.9-4.095,4.38Zm-173.23-10.9,7.324-7.834,13.409,14.351-7.323,7.837Zm13.41,10.9,4.094-4.383-10.181-10.9-4.094,4.38Zm-173.23-10.9,7.323-7.834L54.6,368.268l-7.321,7.837Zm13.412,10.9,4.093-4.383-10.182-10.9-4.093,4.38Zm545.957-10.084,19.118-20.462,7.323,7.837L600.557,370.4Zm7.322,4.382,15.891-17.007-4.094-4.381-15.89,17.006Zm-167.141-4.382,19.118-20.462,7.323,7.837L440.737,370.4Zm7.322,4.382,15.891-17.007-4.094-4.381-15.89,17.006ZM273.6,362.567l19.118-20.462,7.323,7.837L280.919,370.4Zm7.323,4.382,15.89-17.007-4.094-4.381-15.89,17.006Zm-167.142-4.382L132.9,342.105l7.321,7.837L121.1,370.4Zm7.323,4.382,15.89-17.007-4.093-4.381-15.891,17.006Zm536.917-21.388-5.708,6.108-7.321-7.836,30.153-32.273,18.752,20.068-7.343,7.6-11.4-12-9.821,10.511,4.106,4.542,5.695-6.3,7.336,7.851L669.432,357.78Zm11.416,8.761,9.8-10.488-4.081-4.367-5.721,6.327-7.31-8.084,13.011-13.925,11.429,12.029,4.073-4.215-15.5-16.584-26.925,28.818,4.093,4.38,5.708-6.108ZM565.077,331.616l7.321-7.837,17.124,18.327,11.416-12.217,7.323,7.836L589.522,357.78Zm3.228,0,21.217,22.707,15.51-16.6-4.094-4.381-11.416,12.219L572.4,327.233Zm-7.323,20.054-5.708,6.11-7.322-7.837L560.982,336l13.031,13.946-7.323,7.837Zm5.708,2.652,4.095-4.38-9.8-10.49-9.8,10.49,4.093,4.38,5.708-6.109ZM498.2,345.562l-5.708,6.108-7.321-7.836,30.153-32.273,18.752,20.068-7.342,7.6-11.4-12-9.821,10.511,4.106,4.542,5.693-6.3,7.337,7.851L509.613,357.78Zm11.416,8.761,9.8-10.488-4.08-4.367-5.721,6.327L502.3,337.71l13.011-13.925,11.429,12.029,4.073-4.215-15.5-16.584L488.4,343.834l4.093,4.38,5.708-6.108ZM405.257,331.616l7.321-7.837L429.7,342.105l11.416-12.217,7.323,7.836L429.7,357.78Zm3.228,0L429.7,354.323l15.51-16.6-4.094-4.381L429.7,345.562l-17.124-18.328Zm-7.323,20.054-5.708,6.11-7.321-7.837L401.163,336l13.031,13.946-7.323,7.837Zm5.708,2.652,4.094-4.38-9.8-10.49-9.8,10.49,4.093,4.38,5.708-6.109Zm-68.493-8.761-5.708,6.108-7.321-7.836L355.5,311.561l18.752,20.068-7.343,7.6-11.4-12-9.821,10.511,4.106,4.542,5.693-6.3,7.337,7.851L349.793,357.78Zm11.416,8.761,9.8-10.488-4.08-4.367-5.721,6.327-7.309-8.084,13.011-13.925,11.429,12.029L371,331.6l-15.5-16.584-26.925,28.818,4.093,4.38,5.708-6.108ZM245.438,331.616l7.321-7.837,17.124,18.327L281.3,329.888l7.323,7.836L269.883,357.78Zm3.228,0,21.217,22.707,15.51-16.6-4.094-4.381-11.416,12.219-17.124-18.328Zm-7.323,20.054-5.708,6.11-7.321-7.837L241.343,336l13.031,13.946-7.323,7.837Zm5.708,2.652,4.094-4.38-9.8-10.49-9.8,10.49,4.093,4.38,5.708-6.109Zm-68.495-8.761-5.705,6.108-7.324-7.836,30.153-32.273,18.753,20.068-7.342,7.6-11.4-12-9.821,10.511,4.1,4.542,5.695-6.3L203,343.834,189.972,357.78Zm11.416,8.761,9.8-10.488-4.079-4.367-5.724,6.327-7.308-8.084,13.011-13.925L207.1,335.815l4.073-4.215-15.5-16.584-26.923,28.818,4.094,4.38,5.705-6.108ZM85.618,331.616l7.323-7.837,17.124,18.327,11.416-12.217,7.321,7.836L110.065,357.78Zm3.228,0,21.218,22.707,15.509-16.6-4.093-4.381-11.416,12.219L92.941,327.233ZM81.525,351.67l-5.708,6.11-7.323-7.837L81.525,336l13.029,13.946-7.321,7.837Zm5.708,2.652,4.093-4.38-9.8-10.49-9.8,10.49,4.094,4.38,5.708-6.109Zm-68.495-8.761-5.708,6.108-7.323-7.836,30.154-32.273L54.614,331.63l-7.342,7.6-11.4-12-9.821,10.511,4.106,4.542,5.695-6.3,7.335,7.851L30.154,357.78Zm11.416,8.761,9.8-10.488-4.08-4.367-5.721,6.327-7.31-8.084,13.011-13.925,11.429,12.029,4.072-4.215L35.862,315.016,8.938,343.834l4.093,4.38,5.708-6.108ZM525.5,349.535,538.151,336l7.324,7.837-12.651,13.538Zm3.228,0,4.093,4.383,9.421-10.084-4.094-4.381Zm-163.048,0L378.331,336l7.323,7.837L373,357.373Zm3.228,0L373,353.918l9.421-10.084-4.094-4.381Zm-163.048,0L218.512,336l7.323,7.837-12.65,13.538Zm3.228,0,4.093,4.383,9.421-10.084-4.094-4.381Zm-163.048,0L58.694,336l7.321,7.837-12.65,13.538Zm3.228,0,4.093,4.383,9.421-10.084-4.093-4.381ZM599.324,319.4l7.321-7.836L629.477,336l11.416-12.218,7.323,7.837L629.477,351.67Zm3.228,0,26.925,28.817,15.51-16.6-4.095-4.383-11.416,12.22-22.832-24.437Zm-163.048,0,7.321-7.836L469.658,336l11.416-12.218,7.323,7.837L469.658,351.67Zm3.228,0,26.925,28.817,15.51-16.6-4.094-4.383-11.416,12.22-22.832-24.437Zm-163.048,0,7.321-7.836L309.838,336l11.416-12.218,7.323,7.837L309.838,351.67Zm3.228,0,26.925,28.817,15.51-16.6-4.094-4.383-11.416,12.22-22.832-24.437Zm-163.048,0,7.323-7.836L150.02,336l11.416-12.218,7.321,7.837L150.02,351.67Zm3.228,0,26.926,28.817,15.507-16.6-4.092-4.383-11.416,12.22-22.832-24.437Zm419.151,12.219,18.737-20.054,7.323,7.836-18.739,20.056Zm3.23,0L549.567,336l15.51-16.6-4.095-4.381Zm-163.049,0,18.737-20.054,7.323,7.836-18.738,20.056Zm3.228,0L389.747,336l15.51-16.6-4.094-4.381Zm-163.048,0,18.737-20.054,7.323,7.836-18.738,20.056Zm3.228,0L229.928,336l15.51-16.6-4.094-4.381Zm-163.048,0,18.738-20.054,7.321,7.836L70.109,339.453Zm3.228,0L70.109,336l15.509-16.6-4.093-4.381ZM582.2,325.507l7.321-7.837,7.323,7.837-7.323,7.836Zm3.228,0,4.093,4.381,4.094-4.381-4.094-4.383Zm-163.048,0,7.321-7.837,7.323,7.837-7.323,7.836Zm3.228,0,4.093,4.381,4.095-4.381-4.095-4.383Zm-163.048,0,7.321-7.837,7.323,7.837-7.323,7.836Zm3.228,0,4.093,4.381,4.094-4.381-4.094-4.383Zm-163.048,0,7.323-7.837,7.321,7.837-7.321,7.836Zm3.228,0,4.094,4.381,4.093-4.381-4.093-4.383Zm534.923-10.491-11.416,12.217-7.321-7.836,11.416-12.219-4.095-4.381-11.416,12.219-7.321-7.837,18.737-20.054L659.631,319.4l-7.323,7.836Zm11.416,8.762L656.4,319.4l-26.926-28.817-15.509,16.6,4.093,4.383,11.416-12.22,7.323,7.837L625.384,319.4l4.093,4.381,11.416-12.217Zm-171.235-8.762-11.416,12.217-7.321-7.836,11.416-12.219-4.094-4.381-11.416,12.219-7.321-7.837,18.737-20.054L499.812,319.4l-7.323,7.836Zm11.416,8.762,4.094-4.381-26.926-28.817-15.509,16.6,4.093,4.383,11.416-12.22,7.323,7.837L465.565,319.4l4.093,4.381,11.416-12.217Zm-171.235-8.762-11.416,12.217-7.322-7.836,11.416-12.219-4.094-4.381-11.416,12.219-7.321-7.837,18.737-20.054L339.992,319.4l-7.323,7.836Zm11.416,8.762,4.093-4.381-26.924-28.817-15.509,16.6,4.093,4.383,11.416-12.22,7.323,7.837L305.745,319.4l4.093,4.381,11.416-12.217Zm-171.234-8.762L150.02,327.233,142.7,319.4l11.414-12.219L150.02,302.8,138.6,315.016l-7.323-7.837,18.738-20.054L180.173,319.4l-7.321,7.836Zm11.416,8.762,4.092-4.381L150.02,290.581l-15.51,16.6,4.094,4.383,11.416-12.22,7.321,7.837L145.925,319.4l4.094,4.381,11.416-12.217Zm346.562-16.6,13.029-13.946,7.324,7.837-5.708,6.108,11.035,11.811-7.323,7.836Zm3.23,0,15.128,16.192,4.094-4.381-11.036-11.811,5.708-6.108-4.094-4.381Zm-163.049,0,13.029-13.946,7.323,7.837-5.707,6.108,11.035,11.811-7.321,7.836Zm3.23,0,15.129,16.192,4.092-4.381L371.01,307.179l5.708-6.108-4.094-4.381Zm-163.049,0L212.8,293.233l7.323,7.837-5.708,6.108,11.036,11.811-7.323,7.836Zm3.228,0,15.129,16.192,4.093-4.381L211.19,307.179l5.708-6.108-4.094-4.381Zm-163.048,0,13.031-13.946,7.321,7.837L54.6,307.179,65.634,318.99l-7.321,7.836Zm3.228,0,15.129,16.192,4.093-4.381L51.371,307.179l5.708-6.108-4.093-4.381Zm521.893,0,7.321-7.837,13.031,13.946-7.323,7.837Zm3.228,0,9.8,10.491,4.095-4.383-9.8-10.49Zm-163.048,0,7.321-7.837,13.031,13.946-7.323,7.837Zm3.228,0,9.8,10.491,4.095-4.383-9.8-10.49Zm-163.048,0,7.321-7.837,13.031,13.946-7.323,7.837Zm3.228,0,9.8,10.491,4.094-4.383-9.8-10.49Zm-163.048,0,7.323-7.837,13.029,13.946-7.321,7.837Zm3.228,0,9.8,10.491,4.093-4.383-9.8-10.49Zm567.556,0,24.064-25.755,7.323,7.836-24.065,25.757Zm3.228,0,4.093,4.383,20.837-22.3-4.094-4.381Zm-83.139-12.217,7.321-7.837,11.416,12.217,22.831-24.436,7.323,7.837L595.23,315.016Zm3.228,0,15.509,16.6,26.926-28.818-4.094-4.383L595.23,302.8l-11.416-12.217Zm-37.476,12.217,5.708-6.108-5.708-6.108,7.322-7.837L562.6,301.07l-13.03,13.946Zm3.23-12.217,5.707,6.108-5.707,6.108,4.092,4.383,9.8-10.491-9.8-10.49Zm-48.891,12.217,24.064-25.755,7.323,7.836L503.9,315.016Zm7.321,4.383,20.837-22.3-4.094-4.381-20.836,22.3Zm-87.232-16.6,7.321-7.837,11.416,12.217,22.832-24.436,7.323,7.837L435.41,315.016Zm3.228,0,15.509,16.6,26.926-28.818-4.094-4.383L435.41,302.8l-11.416-12.217Zm-37.476,12.217,5.708-6.108-5.708-6.108,7.321-7.837,13.031,13.946-13.031,13.946Zm3.228-12.217,5.708,6.108-5.708,6.108,4.093,4.383,9.8-10.491-9.8-10.49Zm-48.891,12.217,24.067-25.755,7.321,7.836-24.065,25.757Zm7.323,4.383,20.837-22.3-4.093-4.381-20.837,22.3Zm-87.232-16.6,7.321-7.837,11.416,12.217,22.832-24.436,7.323,7.837-30.154,32.273Zm3.228,0,15.509,16.6,26.926-28.818-4.094-4.383L275.591,302.8l-11.416-12.217Zm-37.476,12.217,5.708-6.108-5.708-6.108,7.321-7.837,13.031,13.946-13.031,13.946Zm3.228-12.217,5.708,6.108-5.708,6.108,4.093,4.383,9.8-10.491-9.8-10.49Zm-48.891,12.217,24.067-25.755,7.321,7.836-24.067,25.757Zm7.321,4.383,20.837-22.3-4.092-4.381-20.837,22.3Zm-87.23-16.6,7.323-7.837,11.416,12.217L138.6,274.906l7.321,7.837-30.153,32.273Zm3.228,0,15.51,16.6L142.7,282.743l-4.093-4.383L115.773,302.8l-11.416-12.217ZM62.787,307.179l5.708-6.108-5.708-6.108,7.323-7.837L83.139,301.07,70.109,315.016Zm3.228-12.217,5.708,6.108-5.708,6.108,4.094,4.383,9.8-10.491-9.8-10.49ZM17.124,307.179l24.065-25.755,7.323,7.836L24.446,315.016Zm7.323,4.383,20.836-22.3-4.093-4.381-20.837,22.3Zm603.417-34.927,7.321-7.837,24.446,26.164-7.323,7.836Zm3.228,0,21.217,22.707,4.094-4.38-21.218-22.71Zm-163.048,0,7.322-7.837,24.446,26.164-7.323,7.836Zm3.228,0,21.217,22.707,4.094-4.38-21.218-22.71Zm-163.048,0,7.321-7.837,24.446,26.164L332.67,302.8Zm3.228,0,21.217,22.707,4.093-4.38-21.217-22.71Zm-163.048,0,7.323-7.837,24.445,26.164-7.321,7.836Zm3.228,0,21.218,22.707,4.092-4.38-21.215-22.71Zm407.735,12.217,24.445-26.163,18.739,20.054-7.323,7.837-11.416-12.22L566.69,296.689Zm3.228,0,4.093,4.381,17.124-18.327,11.416,12.219,4.094-4.381-15.51-16.6Zm-163.048,0,24.445-26.163,18.738,20.054-7.323,7.837-11.416-12.22-17.124,18.328Zm3.228,0,4.093,4.381,17.124-18.327,11.416,12.219,4.095-4.381-15.51-16.6Zm-163.048,0,24.445-26.163,18.738,20.054-7.323,7.837-11.416-12.22-17.124,18.328Zm3.228,0,4.093,4.381,17.124-18.327,11.416,12.219,4.094-4.381-15.51-16.6Zm-163.048,0,24.446-26.163,18.737,20.054-7.321,7.837-11.416-12.22L87.233,296.689Zm3.228,0,4.094,4.381,17.124-18.327,11.416,12.219,4.093-4.381-15.509-16.6Zm567.547-12.228,18.728-19.6L676.8,264.4l-5.75,5.951,5.695,6.3-13.017,13.933Zm3.247.021,9.792,10.48,9.814-10.5-5.721-6.328,5.664-5.86-4.031-4.029Zm-123.1,6.1,18.737-20.054,13.03,13.946-7.323,7.836-5.708-6.11-11.416,12.22Zm3.23,0,4.092,4.381,11.416-12.219,5.708,6.11,4.094-4.381-9.8-10.491Zm-43.193-6.12,18.728-19.6,7.383,7.375-5.75,5.951,5.695,6.3L503.9,290.581Zm13.038,10.5,9.814-10.5L508,270.292l5.666-5.86-4.032-4.029-15.519,16.241ZM371.01,282.743l18.737-20.054,13.031,13.946-7.323,7.836-5.708-6.11-11.416,12.22Zm3.229,0,4.092,4.381,11.416-12.219,5.708,6.11,4.094-4.381-9.8-10.491Zm-43.194-6.12,18.729-19.6,7.383,7.375-5.75,5.951,5.695,6.3-13.017,13.933Zm13.04,10.5,9.814-10.5-5.721-6.328,5.666-5.86-4.033-4.029-15.518,16.241ZM211.19,282.743l18.737-20.054,13.031,13.946-7.323,7.836-5.708-6.11-11.416,12.22Zm3.228,0,4.093,4.381,11.416-12.219,5.708,6.11,4.094-4.381-9.8-10.491Zm-43.193-6.12,18.729-19.6,7.383,7.375-5.75,5.951,5.695,6.3-13.019,13.933Zm13.038,10.5,9.815-10.5-5.721-6.328,5.666-5.86-4.033-4.029-15.518,16.241ZM51.371,282.743l18.738-20.054,13.029,13.946-7.321,7.836-5.708-6.11-11.416,12.22Zm3.228,0,4.094,4.381,11.416-12.219,5.708,6.11,4.093-4.381-9.8-10.491Zm-43.193-6.12,18.729-19.6,7.383,7.375-5.75,5.951,5.695,6.3L24.446,290.581Zm13.04,10.5,9.814-10.5-5.721-6.328,5.666-5.86L30.173,260.4,14.655,276.645Zm574.878-16.6,7.321-7.836,7.323,7.836-7.323,7.836Zm3.228,0,4.093,4.381,4.094-4.381-4.094-4.381Zm-83.139,0,18.737-20.056,7.324,7.837-18.738,20.054Zm3.23,0,4.093,4.381,15.509-16.6-4.094-4.38Zm-83.139,0,7.321-7.836,7.323,7.836-7.323,7.836Zm3.228,0,4.093,4.381,4.094-4.381-4.094-4.381Zm-83.139,0,18.737-20.056,7.323,7.837-18.738,20.054Zm3.23,0,4.092,4.381,15.51-16.6-4.094-4.38Zm-83.139,0,7.321-7.836,7.323,7.836-7.323,7.836Zm3.228,0,4.093,4.381,4.094-4.381-4.094-4.381Zm-83.139,0,18.737-20.056,7.323,7.837L207.1,278.361Zm3.228,0,4.093,4.381,15.51-16.6-4.094-4.38Zm-83.137,0,7.323-7.836,7.321,7.836-7.321,7.836Zm3.228,0,4.094,4.381,4.093-4.381-4.093-4.381Zm-83.139,0,18.738-20.056,7.321,7.837L47.278,278.361Zm3.228,0,4.094,4.381,15.509-16.6-4.093-4.38Zm596.1-6.11,24.445-26.163,7.322,7.837L646.6,272.252ZM646.6,268.8l21.218-22.708-4.094-4.383-21.217,22.708ZM583.814,229.49,566.69,247.817l-7.322-7.836,24.445-26.164,22.832,24.436,11.8-12.625,13.031,13.946-7.322,7.836-5.708-6.108-4.474,4.789,9.8,10.49,17.124-18.327,7.323,7.837-24.446,26.163ZM623.769,268.8l21.218-22.708-4.095-4.383-17.124,18.328L610.74,246.089l7.7-8.245,5.708,6.109,4.094-4.38-9.8-10.491-11.8,12.625-22.832-24.436L562.6,239.981l4.093,4.38,17.124-18.326Zm-81.9-23.116,7.321-7.837,17.5,18.735,5.708-6.11,7.323,7.837L566.69,272.252Zm3.228,0,21.6,23.116,9.8-10.491-4.095-4.38-5.708,6.108-17.5-18.734ZM479.46,264.415,503.9,238.252l7.323,7.837-24.446,26.163Zm7.321,4.383L508,246.089l-4.093-4.383-21.217,22.708ZM423.995,229.49l-17.124,18.327-7.322-7.836,24.445-26.164,22.831,24.436,11.8-12.625,13.03,13.946-7.323,7.836-5.708-6.108-4.474,4.789,9.8,10.49,17.124-18.327,7.323,7.837L463.95,272.252ZM463.95,268.8l21.218-22.708-4.094-4.383L463.95,260.035l-13.029-13.946,7.7-8.245,5.708,6.109,4.093-4.38-9.8-10.491-11.8,12.625-22.831-24.436-21.217,22.71,4.093,4.38,17.124-18.326Zm-81.9-23.116,7.321-7.837,17.5,18.735,5.708-6.11,7.323,7.837-13.03,13.946Zm3.23,0,21.6,23.116,9.8-10.491-4.094-4.38-5.708,6.108-17.5-18.734ZM319.64,264.415l24.445-26.163,7.323,7.837-24.447,26.163Zm7.321,4.383,21.217-22.708-4.093-4.383-21.217,22.708ZM264.175,229.49l-17.124,18.327-7.321-7.836,24.445-26.164,22.831,24.436,11.8-12.625,13.031,13.946-7.323,7.836L298.8,241.3l-4.474,4.789,9.8,10.49,17.124-18.327,7.323,7.837L304.13,272.252ZM304.13,268.8l21.218-22.708-4.094-4.383L304.13,260.035,291.1,246.089l7.7-8.245,5.708,6.109,4.093-4.38-9.8-10.491-11.8,12.625-22.831-24.436-21.217,22.71,4.093,4.38,17.124-18.326Zm-81.9-23.116,7.323-7.837,17.5,18.735,5.708-6.11,7.323,7.837-13.031,13.946Zm3.23,0,21.6,23.116,9.8-10.491-4.094-4.38-5.708,6.108-17.5-18.734Zm-65.635,18.733,24.445-26.163,7.324,7.837-24.445,26.163Zm7.324,4.383,21.215-22.708-4.094-4.383-21.215,22.708ZM104.357,229.49,87.233,247.817l-7.323-7.836,24.446-26.164,22.832,24.436,11.794-12.625,13.032,13.946-7.324,7.836-5.708-6.108-4.473,4.789,9.8,10.49,17.124-18.327,7.321,7.837-24.445,26.163ZM144.312,268.8l21.215-22.708-4.092-4.383-17.124,18.328-13.031-13.946,7.7-8.245,5.708,6.109,4.094-4.38-9.8-10.491-11.794,12.625-22.832-24.436-21.218,22.71,4.094,4.38,17.124-18.326ZM62.406,245.682l7.323-7.837,17.5,18.735,5.708-6.11,7.321,7.837L87.233,272.252Zm3.228,0,21.6,23.116,9.8-10.491-4.093-4.38-5.708,6.108L69.728,241.3ZM0,264.415l24.446-26.163,7.321,7.837L7.323,272.252Zm3.23,0L7.323,268.8l21.217-22.708-4.093-4.383Zm573.263-18.326,7.321-7.837,18.739,20.054-7.323,7.837Zm3.228,0,15.509,16.6,4.094-4.383-15.51-16.6Zm-163.048,0,7.321-7.837,18.738,20.054-7.323,7.837Zm3.228,0,15.509,16.6,4.095-4.383-15.51-16.6Zm-163.048,0,7.321-7.837,18.738,20.054-7.323,7.837Zm3.228,0,15.509,16.6,4.094-4.383-15.51-16.6Zm-163.048,0,7.323-7.837,18.737,20.054-7.321,7.837Zm3.228,0,15.51,16.6,4.093-4.383-15.509-16.6ZM673.527,252.2l24.445-26.163,7.323,7.836-24.446,26.164Zm3.228,0,4.093,4.381,21.217-22.708-4.093-4.381Zm-163.049,0,24.445-26.163,7.324,7.836-24.446,26.164Zm7.323,4.381,21.217-22.708-4.094-4.381L516.936,252.2ZM353.886,252.2l24.445-26.163,7.323,7.836-24.446,26.164Zm7.321,4.381,21.218-22.708-4.094-4.381L357.116,252.2ZM194.067,252.2l24.445-26.163,7.323,7.836-24.446,26.164Zm7.321,4.381,21.218-22.708-4.094-4.381L197.3,252.2ZM34.247,252.2l24.446-26.163,7.321,7.836L41.57,260.035Zm7.323,4.381,21.217-22.708-4.093-4.381L37.476,252.2ZM650.7,215.95l7.321-7.836,17.124,18.327,11.416-12.218,7.323,7.837L675.14,242.114Zm3.228,0,21.217,22.71,15.509-16.6-4.093-4.381L675.14,229.9,658.017,211.57Zm-163.048,0,7.321-7.836,17.124,18.327,11.416-12.218,7.323,7.837-18.739,20.054Zm24.445,22.71,15.509-16.6-4.093-4.381L515.321,229.9,498.2,211.57l-4.093,4.38ZM331.055,215.95l7.323-7.836L355.5,226.441l11.414-12.218,7.324,7.837L355.5,242.114ZM355.5,238.66l15.509-16.6-4.094-4.381L355.5,229.9,338.377,211.57l-4.093,4.38ZM171.235,215.95l7.321-7.836,17.124,18.327L207.1,214.223l7.323,7.837L195.68,242.114Zm24.445,22.71,15.51-16.6-4.094-4.381L195.68,229.9,178.557,211.57l-4.092,4.38ZM11.416,215.95l7.323-7.836,17.124,18.327,11.416-12.218L54.6,222.06,35.862,242.114Zm24.446,22.71,15.509-16.6-4.093-4.381L35.862,229.9,18.738,211.57l-4.093,4.38ZM640.6,229.51l-5.39,6.116-7.354-7.872L640.5,214.509l19.147,19.434-7.327,7.971Zm11.7,8.944,4.092-4.45-15.863-16.1-9.425,9.871,4.061,4.346,5.382-6.1ZM480.779,229.51l-5.39,6.116-7.354-7.872,12.644-13.244,19.147,19.434-7.327,7.971Zm11.7,8.944,4.09-4.45-15.862-16.1-9.425,9.871,4.063,4.346,5.381-6.1ZM320.96,229.51l-5.39,6.116-7.354-7.872,12.646-13.244,19.146,19.434-7.327,7.971Zm11.7,8.944,4.089-4.45-15.863-16.1-9.423,9.871,4.06,4.346,5.382-6.1ZM161.14,229.51l-5.39,6.116-7.356-7.872,12.647-13.244,19.146,19.434-7.327,7.971Zm11.7,8.944,4.089-4.45-15.862-16.1-9.424,9.871,4.06,4.346,5.382-6.1Zm357.99-29.02,7.321-7.836,17.124,18.327,5.708-6.108,7.323,7.836L555.275,235.6Zm3.23,0,21.216,22.71,9.8-10.491-4.095-4.381-5.708,6.108-17.124-18.326Zm-163.049,0,7.321-7.836,17.124,18.327,5.708-6.108,7.323,7.836L395.455,235.6Zm3.229,0,21.216,22.71,9.8-10.491-4.094-4.381-5.708,6.108-17.124-18.326Zm-163.049,0,7.321-7.836,17.124,18.327,5.708-6.108,7.323,7.836L235.636,235.6Zm3.228,0,21.217,22.71,9.8-10.491-4.094-4.381-5.708,6.108-17.124-18.326Zm-163.048,0,7.323-7.836,17.124,18.327,5.708-6.108,7.321,7.836L75.817,235.6Zm3.228,0,21.218,22.71,9.8-10.491-4.093-4.381-5.708,6.108L58.694,205.054Zm516.6-17.88,7.254-8.537,35.506,38.642-7.316,7.83Zm35.444,34.481,4.1-4.39L578.52,186.572l-4.163,4.9ZM411.383,191.554l7.253-8.537,35.5,38.642-7.315,7.83Zm35.443,34.481,4.1-4.39L418.7,186.572l-4.163,4.9ZM251.564,191.554l7.253-8.537,35.5,38.642-7.315,7.83Zm35.443,34.481,4.1-4.39-32.225-35.073-4.163,4.9ZM91.744,191.554,99,183.017,134.5,221.66l-7.313,7.83Zm35.444,34.481,4.1-4.39L99.061,186.572l-4.163,4.9Zm477.749-22.714,18.833-20.049,7.321,7.836L619.663,203.34l3.916,4.337,5.477-6.065,7.776,7.8L623.57,223.376Zm18.65,16.608,9.95-10.473-4.4-4.416-5.556,6.152-7.118-7.881,11.4-12.2-4.1-4.384-15.6,16.605Zm-178.47-16.608,18.833-20.049,7.321,7.836L459.843,203.34l3.916,4.337,5.477-6.065,7.776,7.8-13.263,13.961Zm18.651,16.608,9.949-10.473-4.4-4.416-5.556,6.152-7.118-7.881,11.4-12.2-4.1-4.384-15.6,16.605ZM285.3,203.321l18.835-20.049,7.32,7.836L300.024,203.34l3.916,4.337,5.479-6.065,7.775,7.8-13.263,13.961Zm18.651,16.608,9.949-10.473-4.4-4.416-5.558,6.152-7.118-7.881,11.4-12.2-4.1-4.384-15.6,16.605ZM125.479,203.321l18.835-20.049,7.32,7.836L140.2,203.34l3.916,4.337,5.479-6.065,7.776,7.8-13.264,13.961Zm18.651,16.608,9.95-10.473-4.4-4.416-5.558,6.152L137,203.312l11.4-12.2-4.1-4.384-15.6,16.605Zm517.649-16.117,7.215-9.01,13.437,14.613-7.25,8.279Zm13.322,10.4,4.164-4.755-10.156-11.044-4.2,5.243Zm-173.142-10.4,7.215-9.01,13.437,14.613-7.252,8.279Zm13.322,10.4,4.164-4.755L509.29,198.411l-4.2,5.243Zm-173.142-10.4,7.215-9.01,13.437,14.613-7.251,8.279Zm13.322,10.4,4.164-4.755L349.47,198.411l-4.2,5.243Zm-173.141-10.4,7.215-9.01,13.438,14.613-7.253,8.279Zm13.321,10.4,4.166-4.755-10.156-11.044-4.2,5.243ZM22.5,203.812l7.216-9.01,13.438,14.613L35.9,217.693Zm13.323,10.4,4.163-4.755L29.831,198.411l-4.2,5.243Zm529.254-4.776L572.4,201.6l7.323,7.836-7.323,7.837Zm3.228,0,4.093,4.383,4.095-4.383-4.095-4.38Zm-163.048,0,7.321-7.836,7.323,7.836-7.323,7.837Zm3.228,0,4.093,4.383,4.094-4.383-4.094-4.38Zm-163.048,0,7.321-7.836,7.323,7.836-7.323,7.837Zm3.228,0,4.093,4.383,4.094-4.383-4.094-4.38Zm-163.048,0,7.323-7.836,7.321,7.836-7.321,7.837Zm3.228,0,4.094,4.383,4.093-4.383-4.093-4.38Zm447.691-18.326,7.321-7.837,11.416,12.217,5.708-6.109,7.323,7.837-13.031,13.946Zm18.737,16.6,9.8-10.49-4.095-4.383-5.708,6.11-11.416-12.218-4.092,4.383Zm-178.557-16.6,7.321-7.837,11.416,12.217,5.708-6.109,7.323,7.837-13.03,13.946Zm18.737,16.6,9.8-10.49-4.094-4.383-5.708,6.11-11.416-12.218-4.093,4.383ZM216.9,191.108l7.321-7.837,11.416,12.217,5.708-6.109,7.323,7.837-13.031,13.946Zm18.737,16.6,9.8-10.49-4.094-4.383-5.708,6.11L224.22,186.726l-4.093,4.383Zm-178.557-16.6,7.323-7.837,11.416,12.217,5.708-6.109,7.321,7.837L75.817,211.163Zm18.738,16.6,9.8-10.49-4.093-4.383-5.708,6.11L64.4,186.726l-4.094,4.383Zm557.574-10.471,5.547-6.142-5.365-6.152,7.726-7.751,11.377,12.189,5.3-5.688,7.329,7.615L646.5,211.153Zm13.116,10.48,15.538-16.4-4.04-4.2-5.327,5.714-11.43-12.245-4.449,4.464,5.289,6.068L636.6,197.2Zm-172.936-10.48,5.547-6.142-5.365-6.152,7.726-7.751,11.378,12.189,5.3-5.688,7.327,7.615-18.8,19.848Zm13.116,10.48,15.538-16.4-4.04-4.2-5.327,5.714-11.43-12.245-4.45,4.464,5.29,6.068L476.78,197.2Zm-172.936-10.48,5.547-6.142-5.365-6.152,7.726-7.751,11.378,12.189,5.3-5.688,7.328,7.615-18.806,19.848Zm13.116,10.48,15.538-16.4-4.039-4.2-5.328,5.714-11.43-12.245-4.45,4.464,5.29,6.068L316.96,197.2Zm-172.936-10.48,5.547-6.142-5.365-6.152,7.726-7.751,11.377,12.189,5.3-5.688,7.328,7.615-18.806,19.848Zm13.116,10.48,15.538-16.4-4.039-4.2-5.327,5.714-11.432-12.245-4.45,4.464,5.29,6.068-5.488,6.076Zm506.1-17.014,7.321-7.837,13.412,14.353-7.323,7.837Zm13.41,10.9,4.093-4.381-10.182-10.9-4.093,4.383Zm-173.23-10.9,7.321-7.837,13.411,14.353-7.323,7.837Zm13.41,10.9,4.093-4.381-10.182-10.9-4.093,4.383Zm-173.23-10.9,7.323-7.837,13.41,14.353-7.324,7.837Zm13.409,10.9,4.094-4.381-10.181-10.9-4.095,4.383Zm-173.23-10.9,7.324-7.837,13.409,14.353-7.323,7.837Zm13.41,10.9,4.094-4.381-10.181-10.9-4.094,4.383ZM33.866,190.7l7.323-7.837L54.6,197.217l-7.321,7.837Zm13.412,10.9,4.093-4.381-10.182-10.9L37.1,190.7Zm545.957-10.082,19.118-20.463,7.323,7.836-19.119,20.463Zm7.322,4.38,15.891-17.007-4.094-4.381-15.89,17.009Zm-167.141-4.38,19.118-20.463,7.323,7.836-19.119,20.463Zm7.322,4.38,15.891-17.007-4.094-4.381-15.89,17.009ZM273.6,191.516l19.118-20.463,7.323,7.836-19.118,20.463Zm7.323,4.38,15.89-17.007-4.094-4.381-15.89,17.009Zm-167.142-4.38L132.9,171.053l7.321,7.836L121.1,199.352Zm7.323,4.38,15.89-17.007-4.093-4.381-15.891,17.009Zm536.917-21.388-5.708,6.11-7.321-7.837,30.153-32.273,18.752,20.068-7.343,7.6-11.4-12-9.821,10.512,4.106,4.542,5.695-6.3,7.336,7.851-13.031,13.946Zm11.416,8.764,9.8-10.491-4.081-4.367-5.721,6.329-7.31-8.084,13.011-13.925,11.429,12.028,4.073-4.213-15.5-16.585L648.216,172.78l4.093,4.383,5.708-6.11Zm-104.356-22.71,7.321-7.836,17.124,18.327,11.416-12.218,7.323,7.837-18.739,20.054Zm3.228,0,21.217,22.71,15.51-16.6-4.094-4.381-11.416,12.217L572.4,156.182Zm-7.323,20.056-5.708,6.108-7.322-7.837,13.029-13.946,13.031,13.946-7.323,7.837Zm5.708,2.654,4.095-4.383-9.8-10.49-9.8,10.49,4.093,4.383,5.708-6.109ZM498.2,174.507l-5.708,6.11-7.321-7.837,30.153-32.273,18.752,20.068-7.342,7.6-11.4-12-9.821,10.512,4.106,4.542,5.693-6.3,7.337,7.851-13.031,13.946Zm11.416,8.764,9.8-10.491-4.08-4.367-5.721,6.329-7.309-8.084,13.011-13.925,11.429,12.028,4.073-4.213-15.5-16.585L488.4,172.78l4.093,4.383,5.708-6.11Zm-104.355-22.71,7.321-7.836L429.7,171.053l11.416-12.218,7.323,7.837L429.7,186.726Zm3.228,0,21.217,22.71,15.51-16.6-4.094-4.381L429.7,174.507l-17.124-18.326Zm-7.323,20.056-5.708,6.108-7.321-7.837,13.029-13.946,13.031,13.946-7.323,7.837Zm5.708,2.654,4.094-4.383-9.8-10.49-9.8,10.49,4.093,4.383,5.708-6.109Zm-68.493-8.764-5.708,6.11-7.321-7.837L355.5,140.507l18.752,20.068-7.343,7.6-11.4-12-9.821,10.512,4.106,4.542,5.693-6.3,7.337,7.851-13.031,13.946Zm11.416,8.764,9.8-10.491-4.08-4.367-5.721,6.329-7.309-8.084,13.011-13.925,11.429,12.028L371,160.548l-15.5-16.585L328.577,172.78l4.093,4.383,5.708-6.11Zm-104.355-22.71,7.321-7.836,17.124,18.327L281.3,158.834l7.323,7.837-18.739,20.054Zm3.228,0,21.217,22.71,15.51-16.6L281.3,162.29l-11.416,12.217-17.124-18.326Zm-7.323,20.056-5.708,6.108-7.321-7.837,13.029-13.946,13.031,13.946-7.323,7.837Zm5.708,2.654,4.094-4.383-9.8-10.49-9.8,10.49,4.093,4.383,5.708-6.109Zm-68.495-8.764-5.705,6.11-7.324-7.837,30.153-32.273,18.753,20.068-7.342,7.6-11.4-12-9.821,10.512,4.1,4.542,5.695-6.3L203,172.78l-13.031,13.946Zm11.416,8.764,9.8-10.491-4.079-4.367-5.724,6.329-7.308-8.084,13.011-13.925L207.1,164.761l4.073-4.213-15.5-16.585L168.757,172.78l4.094,4.383,5.705-6.11ZM85.618,160.562l7.323-7.836,17.124,18.327,11.416-12.218,7.321,7.837-18.737,20.054Zm3.228,0,21.218,22.71,15.509-16.6-4.093-4.381-11.416,12.217L92.941,156.182Zm-7.321,20.056-5.708,6.108-7.323-7.837,13.031-13.946,13.029,13.946-7.321,7.837Zm5.708,2.654,4.093-4.383-9.8-10.49-9.8,10.49,4.094,4.383,5.708-6.109Zm-68.495-8.764-5.708,6.11L5.708,172.78l30.154-32.273,18.752,20.068-7.342,7.6-11.4-12-9.821,10.512,4.106,4.542,5.695-6.3,7.335,7.851L30.154,186.726Zm11.416,8.764,9.8-10.491-4.08-4.367-5.721,6.329-7.31-8.084,13.011-13.925,11.429,12.028,4.072-4.213L35.862,143.962,8.938,172.78l4.093,4.383,5.708-6.11Zm495.348-4.79,12.648-13.538,7.324,7.837-12.651,13.538Zm3.228,0,4.093,4.383,9.421-10.084-4.094-4.381Zm-163.048,0,12.648-13.538,7.323,7.837L373,186.318Zm3.228,0L373,182.864l9.421-10.084-4.094-4.381Zm-163.048,0,12.648-13.538,7.323,7.837-12.65,13.538Zm3.228,0,4.093,4.383,9.421-10.084-4.094-4.381Zm-163.048,0,12.65-13.538,7.321,7.837-12.65,13.538Zm3.228,0,4.093,4.383,9.421-10.084L58.694,168.4Zm550.052-30.137,7.321-7.837,22.832,24.435,11.416-12.217,7.323,7.836-18.738,20.056Zm3.228,0,26.925,28.818,15.51-16.6-4.095-4.38L629.477,168.4l-22.832-24.437Zm-163.048,0,7.321-7.837,22.832,24.435,11.416-12.217,7.323,7.836-18.739,20.056Zm3.228,0,26.925,28.818,15.51-16.6-4.094-4.38L469.658,168.4l-22.832-24.437Zm-163.048,0,7.321-7.837,22.832,24.435,11.416-12.217,7.323,7.836-18.738,20.056Zm3.228,0,26.925,28.818,15.51-16.6-4.094-4.38L309.838,168.4l-22.832-24.437Zm-163.048,0,7.323-7.837,22.832,24.435,11.416-12.217,7.321,7.836L150.02,180.617Zm3.228,0,26.926,28.818,15.507-16.6-4.092-4.38L150.02,168.4l-22.832-24.437Zm419.151,12.217,18.737-20.054,7.323,7.837L549.567,168.4Zm3.23,0,4.092,4.381,15.51-16.6-4.095-4.383Zm-163.049,0,18.737-20.054,7.323,7.837L389.747,168.4Zm3.228,0,4.093,4.381,15.51-16.6-4.094-4.383Zm-163.048,0,18.737-20.054,7.323,7.837L229.928,168.4Zm3.228,0,4.093,4.381,15.51-16.6-4.094-4.383Zm-163.048,0,18.738-20.054,7.321,7.837L70.109,168.4Zm3.228,0,4.094,4.381,15.509-16.6-4.093-4.383ZM582.2,154.453l7.321-7.837,7.323,7.837-7.323,7.837Zm3.228,0,4.093,4.381,4.094-4.381-4.094-4.38Zm-163.048,0,7.321-7.837,7.323,7.837L429.7,162.29Zm3.228,0,4.093,4.381,4.095-4.381-4.095-4.38Zm-163.048,0,7.321-7.837,7.323,7.837-7.323,7.837Zm3.228,0,4.093,4.381,4.094-4.381-4.094-4.38Zm-163.048,0,7.323-7.837,7.321,7.837-7.321,7.837Zm3.228,0,4.094,4.381,4.093-4.381-4.093-4.38Zm534.923-10.491-11.416,12.22-7.321-7.837,11.416-12.217-4.095-4.383-11.416,12.217-7.321-7.834,18.737-20.057,30.154,32.274-7.323,7.837Zm11.416,8.764,4.094-4.381-26.926-28.818-15.509,16.6,4.093,4.38,11.416-12.217,7.323,7.837-11.416,12.217,4.093,4.381,11.416-12.218Zm-171.235-8.764-11.416,12.22-7.321-7.837,11.416-12.217-4.094-4.383-11.416,12.217-7.321-7.834,18.737-20.057,30.154,32.274-7.323,7.837Zm11.416,8.764,4.094-4.381-26.926-28.818-15.509,16.6,4.093,4.38,11.416-12.217,7.323,7.837-11.416,12.217,4.093,4.381,11.416-12.218Zm-171.235-8.764-11.416,12.22-7.322-7.837,11.416-12.217-4.094-4.383-11.416,12.217-7.321-7.834,18.737-20.057,30.154,32.274-7.323,7.837Zm11.416,8.764,4.093-4.381-26.924-28.818-15.509,16.6,4.093,4.38,11.416-12.217,7.323,7.837-11.416,12.217,4.093,4.381,11.416-12.218Zm-171.234-8.764-11.416,12.22-7.323-7.837,11.414-12.217-4.092-4.383L138.6,143.962l-7.323-7.834L150.02,116.07l30.153,32.274-7.321,7.837Zm11.416,8.764,4.092-4.381L150.02,119.527l-15.51,16.6,4.094,4.38L150.02,128.29l7.321,7.837-11.416,12.217,4.094,4.381,11.416-12.218Zm346.562-16.6,13.029-13.946,7.324,7.834-5.708,6.111,11.035,11.809-7.323,7.837Zm3.23,0,15.128,16.191,4.094-4.381-11.036-11.809,5.708-6.111-4.094-4.38Zm-163.049,0,13.029-13.946,7.323,7.834-5.707,6.111,11.035,11.809-7.321,7.837Zm3.23,0,15.129,16.191,4.092-4.381L371.01,136.128l5.708-6.111-4.094-4.38Zm-163.049,0L212.8,122.182l7.323,7.834-5.708,6.111,11.036,11.809-7.323,7.837Zm3.228,0,15.129,16.191,4.093-4.381L211.19,136.128l5.708-6.111-4.094-4.38Zm-163.048,0,13.031-13.946,7.321,7.834L54.6,136.128l11.035,11.809-7.321,7.837Zm3.228,0,15.129,16.191,4.093-4.381L51.371,136.128l5.708-6.111-4.093-4.38Zm521.893,0,7.321-7.837,13.031,13.946-7.323,7.837Zm3.228,0,9.8,10.488,4.095-4.38-9.8-10.491Zm-163.048,0,7.321-7.837,13.031,13.946-7.323,7.837Zm3.228,0,9.8,10.488,4.095-4.38-9.8-10.491Zm-163.048,0,7.321-7.837,13.031,13.946-7.323,7.837Zm3.228,0,9.8,10.488,4.094-4.38-9.8-10.491Zm-163.048,0,7.323-7.837,13.029,13.946-7.321,7.837Zm3.228,0,9.8,10.488,4.093-4.38-9.8-10.491Zm567.556,0,24.064-25.758,7.323,7.837-24.065,25.755Zm3.228,0,4.093,4.38,20.837-22.3-4.094-4.381Zm-83.139-12.22,7.321-7.837,11.416,12.22,22.831-24.437,7.323,7.837L595.23,143.962Zm3.228,0,15.509,16.6,26.926-28.817-4.094-4.381L595.23,131.745l-11.416-12.218Zm-37.476,12.22,5.708-6.111-5.708-6.109,7.322-7.837,13.03,13.946-13.03,13.946Zm3.23-12.22,5.707,6.109-5.707,6.111,4.092,4.38,9.8-10.491-9.8-10.49Zm-48.891,12.22,24.064-25.758,7.323,7.837L503.9,143.962Zm7.321,4.38,20.837-22.3-4.094-4.381-20.836,22.3Zm-87.232-16.6,7.321-7.837,11.416,12.22,22.832-24.437,7.323,7.837L435.41,143.962Zm3.228,0,15.509,16.6,26.926-28.817-4.094-4.381L435.41,131.745l-11.416-12.218Zm-37.476,12.22,5.708-6.111-5.708-6.109,7.321-7.837,13.031,13.946-13.031,13.946Zm3.228-12.22,5.708,6.109-5.708,6.111,4.093,4.38,9.8-10.491-9.8-10.49Zm-48.891,12.22,24.067-25.758,7.321,7.837-24.065,25.755Zm7.323,4.38,20.837-22.3-4.093-4.381-20.837,22.3Zm-87.232-16.6,7.321-7.837,11.416,12.22,22.832-24.437,7.323,7.837-30.154,32.271Zm3.228,0,15.509,16.6,26.926-28.817-4.094-4.381-22.832,24.436-11.416-12.218Zm-37.476,12.22,5.708-6.111-5.708-6.109,7.321-7.837,13.031,13.946-13.031,13.946Zm3.228-12.22,5.708,6.109-5.708,6.111,4.093,4.38,9.8-10.491-9.8-10.49Zm-48.891,12.22,24.067-25.758,7.321,7.837-24.067,25.755Zm7.321,4.38,20.837-22.3-4.092-4.381-20.837,22.3Zm-87.23-16.6,7.323-7.837,11.416,12.22L138.6,103.853l7.321,7.837-30.153,32.271Zm3.228,0,15.51,16.6L142.7,111.691,138.6,107.31l-22.832,24.436-11.416-12.218Zm-37.476,12.22,5.708-6.111-5.708-6.109,7.323-7.837,13.029,13.946L70.109,143.962Zm3.228-12.22,5.708,6.109-5.708,6.111,4.094,4.38,9.8-10.491-9.8-10.49Zm-48.891,12.22,24.065-25.758,7.323,7.837L24.446,143.962Zm7.323,4.38,20.836-22.3-4.093-4.381-20.837,22.3Zm603.417-34.927,7.321-7.836,24.446,26.163-7.323,7.837Zm3.228,0,21.217,22.71,4.094-4.383L635.185,101.2Zm-163.048,0,7.322-7.836,24.446,26.163-7.323,7.837Zm3.228,0,21.217,22.71,4.094-4.383L475.366,101.2Zm-163.048,0,7.321-7.836,24.446,26.163-7.323,7.837Zm3.228,0,21.217,22.71,4.093-4.383L315.546,101.2Zm-163.048,0,7.323-7.836,24.445,26.163-7.321,7.837Zm3.228,0,21.218,22.71,4.092-4.383L155.728,101.2ZM559.369,117.8l24.445-26.164,18.739,20.056-7.323,7.836L583.814,107.31,566.69,125.636Zm3.228,0,4.093,4.383,17.124-18.328L595.23,116.07l4.094-4.38-15.51-16.6Zm-163.048,0,24.445-26.164,18.738,20.056-7.323,7.836L423.995,107.31l-17.124,18.327Zm3.228,0,4.093,4.383,17.124-18.328L435.41,116.07l4.095-4.38-15.51-16.6Zm-163.048,0,24.445-26.164,18.738,20.056-7.323,7.836L264.175,107.31l-17.124,18.327Zm3.228,0,4.093,4.383,17.124-18.328,11.416,12.217,4.094-4.38-15.51-16.6Zm-163.048,0,24.446-26.164,18.737,20.056-7.321,7.836L104.357,107.31,87.233,125.636Zm3.228,0,4.094,4.383,17.124-18.328,11.416,12.217,4.093-4.38-15.509-16.6Zm567.547-12.227,18.728-19.6,7.383,7.376-5.75,5.949,5.695,6.3-13.017,13.932Zm3.247.018,9.792,10.48,9.814-10.5-5.721-6.326,5.664-5.862-4.031-4.029Zm-123.1,6.1,18.737-20.056,13.03,13.946-7.323,7.837-5.708-6.109-11.416,12.217Zm3.23,0,4.092,4.38,11.416-12.217,5.708,6.109,4.094-4.381-9.8-10.491Zm-43.193-6.118,18.728-19.6,7.383,7.376-5.75,5.949,5.695,6.3L503.9,119.527Zm13.038,10.5,9.814-10.5L508,99.241l5.666-5.862-4.032-4.029-15.519,16.24Zm-132.895-4.38,18.737-20.056,13.031,13.946-7.323,7.837-5.708-6.109-11.416,12.217Zm3.229,0,4.092,4.38,11.416-12.217,5.708,6.109,4.094-4.381-9.8-10.491Zm-43.194-6.118,18.729-19.6,7.383,7.376-5.75,5.949,5.695,6.3-13.017,13.932Zm13.04,10.5,9.814-10.5-5.721-6.326,5.666-5.862-4.033-4.029-15.518,16.24Zm-132.895-4.38,18.737-20.056,13.031,13.946-7.323,7.837-5.708-6.109-11.416,12.217Zm3.228,0,4.093,4.38,11.416-12.217,5.708,6.109,4.094-4.381-9.8-10.491Zm-43.193-6.118,18.729-19.6,7.383,7.376-5.75,5.949,5.695,6.3-13.019,13.932Zm13.038,10.5,9.815-10.5-5.721-6.326,5.666-5.862-4.033-4.029-15.518,16.24Zm-132.894-4.38L70.109,91.635l13.029,13.946-7.321,7.837-5.708-6.109L58.694,119.527Zm3.228,0,4.094,4.38,11.416-12.217,5.708,6.109,4.093-4.381-9.8-10.491Zm-43.193-6.118,18.729-19.6,7.383,7.376L31.769,99.3l5.695,6.3L24.446,119.527Zm13.04,10.5,9.814-10.5-5.721-6.326,5.666-5.862-4.032-4.029-15.518,16.24Zm574.878-16.6,7.321-7.837,7.323,7.837-7.323,7.837Zm3.228,0,4.093,4.381,4.094-4.381-4.094-4.383Zm-83.139,0,18.737-20.054,7.324,7.837L526.737,107.31Zm3.23,0,4.093,4.381,15.509-16.6-4.094-4.383Zm-83.139,0,7.321-7.837,7.323,7.837-7.323,7.837Zm3.228,0,4.093,4.381,4.094-4.381-4.094-4.383Zm-83.139,0,18.737-20.054,7.323,7.837L366.916,107.31Zm3.23,0,4.092,4.381,15.51-16.6-4.094-4.383Zm-83.139,0,7.321-7.837,7.323,7.837-7.323,7.837Zm3.228,0,4.093,4.381,4.094-4.381-4.094-4.383Zm-83.139,0,18.737-20.054,7.323,7.837L207.1,107.31Zm3.228,0,4.093,4.381,15.51-16.6-4.094-4.383Zm-83.137,0,7.323-7.837,7.321,7.837-7.321,7.837Zm3.228,0,4.094,4.381,4.093-4.381-4.093-4.383Zm-83.139,0L58.694,79.418l7.321,7.837L47.278,107.31Zm3.228,0,4.094,4.381,15.509-16.6-4.093-4.383Zm596.1-6.108L663.725,67.2l7.322,7.837L646.6,101.2Zm7.322,4.381,21.218-22.71-4.094-4.381-21.217,22.71ZM583.814,58.437,566.69,76.764l-7.322-7.837,24.445-26.164L606.646,67.2l11.8-12.625,13.031,13.946-7.322,7.837-5.708-6.109-4.474,4.787,9.8,10.491L640.893,67.2l7.323,7.837L623.769,101.2Zm39.955,39.308,21.218-22.71-4.095-4.381L623.769,88.981,610.74,75.035l7.7-8.245,5.708,6.111,4.094-4.383-9.8-10.49-11.8,12.625L583.814,46.217,562.6,68.927l4.093,4.383,17.124-18.328Zm-81.9-23.117,7.321-7.837,17.5,18.736,5.708-6.108,7.323,7.837L566.69,101.2Zm3.228,0,21.6,23.117,9.8-10.49L572.4,82.873l-5.708,6.109-17.5-18.733ZM479.46,93.364,503.9,67.2l7.323,7.837L486.781,101.2Zm7.321,4.381L508,75.035,503.9,70.654l-21.217,22.71ZM423.995,58.437,406.871,76.764l-7.322-7.837,24.445-26.164L446.826,67.2l11.8-12.625,13.03,13.946-7.323,7.837-5.708-6.109-4.474,4.787,9.8,10.491L481.073,67.2l7.323,7.837L463.95,101.2ZM463.95,97.745l21.218-22.71-4.094-4.381L463.95,88.981,450.921,75.035l7.7-8.245,5.708,6.111,4.093-4.383-9.8-10.49-11.8,12.625L423.995,46.217l-21.217,22.71,4.093,4.383,17.124-18.328Zm-81.9-23.117,7.321-7.837,17.5,18.736,5.708-6.108,7.323,7.837L406.871,101.2Zm3.23,0,21.6,23.117,9.8-10.49-4.094-4.383-5.708,6.109-17.5-18.733ZM319.64,93.364,344.085,67.2l7.323,7.837L326.962,101.2Zm7.321,4.381,21.217-22.71-4.093-4.381-21.217,22.71ZM264.175,58.437,247.051,76.764l-7.321-7.837,24.445-26.164L287.006,67.2l11.8-12.625,13.031,13.946-7.323,7.837L298.8,70.248l-4.474,4.787,9.8,10.491L321.254,67.2l7.323,7.837L304.13,101.2ZM304.13,97.745l21.218-22.71-4.094-4.381L304.13,88.981,291.1,75.035l7.7-8.245,5.708,6.111,4.093-4.383-9.8-10.49-11.8,12.625L264.175,46.217l-21.217,22.71,4.093,4.383,17.124-18.328Zm-81.9-23.117,7.323-7.837,17.5,18.736,5.708-6.108,7.323,7.837L247.051,101.2Zm3.23,0,21.6,23.117,9.8-10.49-4.094-4.383-5.708,6.109-17.5-18.733ZM159.819,93.364,184.264,67.2l7.324,7.837L167.144,101.2Zm7.324,4.381,21.215-22.71-4.094-4.381-21.215,22.71ZM104.357,58.437,87.233,76.764,79.91,68.927l24.446-26.164L127.188,67.2l11.794-12.625,13.032,13.946-7.324,7.837-5.708-6.109-4.473,4.787,9.8,10.491L161.436,67.2l7.321,7.837L144.312,101.2Zm39.955,39.308,21.215-22.71-4.092-4.381L144.312,88.981,131.281,75.035l7.7-8.245L144.69,72.9l4.094-4.383-9.8-10.49L127.188,70.654,104.357,46.217,83.139,68.927l4.094,4.383,17.124-18.328ZM62.406,74.628l7.323-7.837,17.5,18.736,5.708-6.108,7.321,7.837L87.233,101.2Zm3.228,0,21.6,23.117,9.8-10.49-4.093-4.383-5.708,6.109-17.5-18.733ZM0,93.364,24.446,67.2l7.321,7.837L7.323,101.2Zm3.23,0,4.093,4.381,21.217-22.71-4.093-4.381ZM576.493,75.035l7.321-7.837,18.739,20.057L595.23,95.09Zm3.228,0,15.509,16.6,4.094-4.38-15.51-16.6Zm-163.048,0,7.321-7.837,18.738,20.057L435.41,95.09Zm3.228,0,15.509,16.6,4.095-4.38-15.51-16.6Zm-163.048,0,7.321-7.837,18.738,20.057-7.323,7.834Zm3.228,0,15.509,16.6,4.094-4.38-15.51-16.6Zm-163.048,0,7.323-7.837,18.737,20.057-7.321,7.834Zm3.228,0,15.51,16.6,4.093-4.38-15.509-16.6Zm573.265,6.109,24.445-26.163,7.323,7.837L680.848,88.981Zm3.228,0,4.093,4.383,21.217-22.708-4.093-4.381Zm-163.049,0,24.445-26.163,7.324,7.837L521.028,88.981Zm7.323,4.383,21.217-22.708-4.094-4.381L516.936,81.144ZM353.886,81.144l24.445-26.163,7.323,7.837L361.208,88.981Zm7.321,4.383,21.218-22.708-4.094-4.381L357.116,81.144ZM194.067,81.144l24.445-26.163,7.323,7.837L201.388,88.981Zm7.321,4.383,21.218-22.708-4.094-4.381L197.3,81.144ZM34.247,81.144,58.694,54.981l7.321,7.837L41.57,88.981Zm7.323,4.383L62.787,62.818l-4.093-4.381L37.476,81.144ZM650.7,44.9l7.321-7.837L675.14,55.388,686.556,43.17l7.323,7.837L675.14,71.062Zm3.228,0L675.14,67.606l15.509-16.6-4.093-4.383L675.14,58.845,658.017,40.516Zm-163.048,0,7.321-7.837,17.124,18.327L526.737,43.17l7.323,7.837L515.321,71.062Zm24.445,22.707,15.509-16.6-4.093-4.383-11.416,12.22L498.2,40.516,494.1,44.9ZM331.055,44.9l7.323-7.837L355.5,55.388,366.916,43.17l7.324,7.837L355.5,71.062ZM355.5,67.606l15.509-16.6-4.094-4.383L355.5,58.845,338.377,40.516,334.284,44.9ZM171.235,44.9l7.321-7.837L195.68,55.388,207.1,43.17l7.323,7.837L195.68,71.062ZM195.68,67.606l15.51-16.6L207.1,46.625,195.68,58.845,178.557,40.516,174.465,44.9ZM11.416,44.9l7.323-7.837L35.862,55.388,47.278,43.17,54.6,51.007,35.862,71.062ZM35.862,67.606l15.509-16.6-4.093-4.383L35.862,58.845,18.738,40.516,14.645,44.9ZM640.6,58.457l-5.39,6.114L627.855,56.7,640.5,43.456,659.646,62.89l-7.327,7.971ZM652.3,67.4l4.092-4.45-15.863-16.1L631.1,56.718l4.061,4.346,5.382-6.1ZM480.779,58.457l-5.39,6.114L468.035,56.7l12.644-13.244L499.826,62.89,492.5,70.861Zm11.7,8.944,4.09-4.45-15.862-16.1-9.425,9.869,4.063,4.346,5.381-6.1ZM320.96,58.457l-5.39,6.114L308.215,56.7l12.646-13.244L340.007,62.89l-7.327,7.971Zm11.7,8.944,4.089-4.45-15.863-16.1-9.423,9.869,4.06,4.346,5.382-6.1ZM161.14,58.457l-5.39,6.114L148.395,56.7l12.647-13.244L180.187,62.89l-7.327,7.971Zm11.7,8.944,4.089-4.45-15.862-16.1-9.424,9.869,4.06,4.346,5.382-6.1Zm357.99-29.018,7.321-7.837,17.124,18.327,5.708-6.11,7.323,7.837L555.275,64.546Zm3.23,0,21.216,22.707,9.8-10.49-4.095-4.383-5.708,6.11L538.151,34Zm-163.049,0,7.321-7.837,17.124,18.327,5.708-6.11,7.323,7.837-13.03,13.946Zm3.229,0,21.216,22.707,9.8-10.49-4.094-4.383-5.708,6.11L378.331,34Zm-163.049,0,7.321-7.837,17.124,18.327,5.708-6.11,7.323,7.837L235.636,64.546Zm3.228,0,21.217,22.707,9.8-10.49-4.094-4.383-5.708,6.11L218.512,34Zm-163.048,0,7.323-7.837L75.817,48.872l5.708-6.11L88.847,50.6,75.817,64.546Zm3.228,0L75.817,61.089l9.8-10.49-4.093-4.383-5.708,6.11L58.694,34ZM571.2,20.5l7.254-8.54,35.506,38.644-7.316,7.83Zm3.156-.082,32.289,34.56,4.1-4.388L578.52,15.519ZM411.383,20.5l7.253-8.54,35.5,38.644-7.315,7.83Zm3.154-.082,32.288,34.56,4.1-4.388L418.7,15.519ZM251.564,20.5l7.253-8.54,35.5,38.644-7.315,7.83Zm3.155-.082,32.288,34.56,4.1-4.388L258.881,15.519ZM91.744,20.5,99,11.963,134.5,50.607l-7.313,7.83Zm3.155-.082,32.29,34.56,4.1-4.388L99.061,15.519ZM604.937,32.267,623.771,12.22l7.321,7.834L619.663,32.288l3.916,4.336,5.477-6.066,7.776,7.8L623.57,52.323Zm3.227.01,15.423,16.6,9.95-10.474-4.4-4.416-5.556,6.152-7.118-7.881,11.4-12.2-4.1-4.384Zm-163.047-.01L463.951,12.22l7.321,7.834L459.843,32.288l3.916,4.336,5.477-6.066,7.776,7.8L463.751,52.323Zm3.228.01,15.423,16.6L473.718,38.4l-4.4-4.416-5.556,6.152-7.118-7.881,11.4-12.2-4.1-4.384ZM285.3,32.267,304.133,12.22l7.32,7.834L300.024,32.288l3.916,4.336,5.479-6.066,7.775,7.8L303.931,52.323Zm3.228.01,15.423,16.6L313.9,38.4l-4.4-4.416-5.558,6.152-7.118-7.881,11.4-12.2-4.1-4.384Zm-163.048-.01L144.313,12.22l7.32,7.834L140.2,32.288l3.916,4.336,5.479-6.066,7.776,7.8L144.112,52.323Zm3.228.01,15.423,16.6L154.08,38.4l-4.4-4.416-5.558,6.152L137,32.257l11.4-12.2-4.1-4.384Zm533.072.481,7.215-9.01L682.43,38.36l-7.25,8.279Zm3.131-.155L675.1,43.156l4.164-4.753L669.109,27.357Zm-162.95.155,7.215-9.01L522.61,38.36l-7.252,8.279Zm13.322,10.4,4.164-4.753L509.29,27.357l-4.2,5.246ZM342.14,32.758l7.215-9.01L362.791,38.36l-7.251,8.279Zm13.322,10.4,4.164-4.753L349.47,27.357l-4.2,5.246ZM182.32,32.758l7.215-9.01L202.973,38.36l-7.253,8.279Zm13.321,10.4,4.166-4.753L189.651,27.357l-4.2,5.246ZM22.5,32.758l7.216-9.01L43.153,38.36,35.9,46.639Zm13.323,10.4L39.986,38.4,29.831,27.357l-4.2,5.246Zm529.254-4.773,7.321-7.837,7.323,7.837L572.4,46.217Zm3.228,0,4.093,4.38,4.095-4.38L572.4,34Zm-163.048,0,7.321-7.837,7.323,7.837-7.323,7.834Zm3.228,0,4.093,4.38,4.094-4.38L412.579,34Zm-163.048,0,7.321-7.837,7.323,7.837-7.323,7.834Zm3.228,0,4.093,4.38,4.094-4.38L252.759,34Zm-163.048,0,7.323-7.837,7.321,7.837-7.321,7.834Zm3.228,0,4.094,4.38,4.093-4.38L92.941,34ZM536.537,20.054l7.321-7.837,11.416,12.22,5.708-6.111,7.323,7.837L555.275,40.109Zm3.23,0,15.508,16.6,9.8-10.491-4.095-4.38-5.708,6.109L543.859,15.673Zm-163.049,0,7.321-7.837,11.416,12.22,5.708-6.111,7.323,7.837-13.03,13.946Zm3.228,0,15.509,16.6,9.8-10.491-4.094-4.38-5.708,6.109L384.039,15.673Zm-163.048,0,7.321-7.837,11.416,12.22,5.708-6.111,7.323,7.837L235.636,40.109Zm3.228,0,15.509,16.6,9.8-10.491-4.094-4.38-5.708,6.109L224.22,15.673Zm-163.048,0L64.4,12.217l11.416,12.22,5.708-6.111,7.321,7.837L75.817,40.109Zm3.228,0,15.51,16.6,9.8-10.491-4.093-4.38-5.708,6.109L64.4,15.673Zm573.084,6.128,5.547-6.142-5.365-6.152L641.3,6.135l11.377,12.189,5.3-5.687,7.329,7.615L646.5,40.1ZM636.8,14l5.289,6.066L636.6,26.146l9.909,10.518,15.538-16.4-4.04-4.2-5.327,5.717L641.248,9.538ZM473.571,26.183l5.547-6.142-5.365-6.152,7.726-7.753,11.378,12.189,5.3-5.687,7.327,7.615L486.684,40.1ZM476.978,14l5.29,6.066-5.488,6.076,9.908,10.518,15.538-16.4-4.04-4.2-5.327,5.717L481.428,9.538ZM313.752,26.183,319.3,20.04l-5.365-6.152,7.726-7.753,11.378,12.189,5.3-5.687,7.328,7.615L326.864,40.1ZM317.158,14l5.29,6.066-5.488,6.076,9.908,10.518,15.538-16.4-4.039-4.2-5.328,5.717L321.608,9.538ZM153.932,26.183l5.547-6.142-5.365-6.152,7.726-7.753,11.377,12.189,5.3-5.687,7.328,7.615L167.045,40.1ZM157.339,14l5.29,6.066-5.488,6.076,9.908,10.518,15.538-16.4-4.039-4.2-5.327,5.717L161.789,9.538Zm515.807,5.643,7.321-7.837,13.412,14.353L686.556,34Zm3.228,0,10.182,10.9,4.093-4.383-10.182-10.9Zm-163.048,0,7.321-7.837,13.411,14.353L526.737,34Zm13.41,10.9,4.093-4.383-10.182-10.9-4.093,4.381Zm-173.23-10.9,7.323-7.837,13.41,14.353L366.916,34Zm13.409,10.9,4.094-4.383-10.181-10.9-4.095,4.381Zm-173.23-10.9,7.324-7.837,13.409,14.353L207.1,34Zm13.41,10.9,4.094-4.383-10.181-10.9-4.094,4.381Zm-173.23-10.9,7.323-7.837L54.6,26.163,47.278,34Zm13.412,10.9,4.093-4.383-10.182-10.9L37.1,19.647ZM593.235,20.462,612.353,0l7.323,7.837L600.557,28.3Zm3.228,0,4.093,4.381L616.448,7.837l-4.094-4.383Zm-163.048,0L452.534,0l7.323,7.837L440.737,28.3Zm3.228,0,4.093,4.381L456.628,7.837l-4.094-4.383Zm-163.048,0L292.715,0l7.323,7.837L280.919,28.3Zm3.228,0,4.094,4.381,15.89-17.006-4.094-4.383Zm-163.048,0L132.9,0l7.321,7.837L121.1,28.3Zm3.228,0,4.094,4.381,15.89-17.006L132.9,3.455Z" transform="translate(-97.252 -328.012)"/></g></svg>